<?xml version="1.0" encoding="UTF-8"?>
<svg id="Layer_1" data-name="Layer 1" xmlns="http://www.w3.org/2000/svg" viewBox="0 0 147.19 147.19">
  <defs>
    <style>
      .cls-1 {
        fill: #0062ff;
      }

      .cls-2 {
        fill: #fff;
      }
    </style>
  </defs>
  <circle class="cls-1" cx="73.59" cy="73.59" r="73.59"/>
  <path class="cls-2" d="M36.33,128.94l-1.77-14.37,20.23-51.28c1.77,1.52,3.7,2.8,5.77,3.84s4.29,1.82,6.65,2.37l-19.52,49.32-11.36,10.12ZM110.86,128.94l-11.36-10.12-19.52-49.32c2.37-.54,4.58-1.33,6.65-2.37s3.99-2.31,5.77-3.84l20.23,51.28-1.77,14.37ZM73.59,63.62c-5.91,0-10.94-1.91-15.08-5.72s-6.21-8.44-6.21-13.88c0-4.25,1.33-8.03,3.99-11.35s6.06-5.63,10.2-6.94v-14.37h14.19v14.37c4.14,1.31,7.54,3.62,10.2,6.94s3.99,7.1,3.99,11.35c0,5.44-2.07,10.07-6.21,13.88s-9.17,5.72-15.08,5.72ZM73.59,50.56c2.01,0,3.7-.63,5.06-1.88,1.36-1.25,2.04-2.8,2.04-4.65s-.68-3.4-2.04-4.65c-1.36-1.25-3.05-1.88-5.06-1.88s-3.7.63-5.06,1.88-2.04,2.8-2.04,4.65.68,3.4,2.04,4.65,3.05,1.88,5.06,1.88Z"/>
</svg>