<?xml version="1.0" encoding="UTF-8"?>
<svg id="Layer_1" data-name="Layer 1" xmlns="http://www.w3.org/2000/svg" viewBox="0 0 158.16 147.19">
  <defs>
    <style>
      .cls-1 {
        fill: #0062ff;
      }

      .cls-2 {
        fill: #fff;
      }

      .cls-3 {
        fill: none;
        stroke: #0062ff;
        stroke-miterlimit: 10;
      }
    </style>
  </defs>
  <g>
    <circle class="cls-1" cx="73.59" cy="73.59" r="73.59"/>
    <g>
      <path class="cls-2" d="M106.07,84.05c-4.38-2.23-9.31-4.12-14.8-5.66-5.49-1.54-11.54-2.32-18.15-2.32s-12.66.77-18.15,2.32c-5.49,1.54-10.43,3.43-14.8,5.66-2.57,1.29-4.59,3.18-6.05,5.66s-2.19,5.15-2.19,7.98v14.42h82.39v-14.42c0-2.83-.73-5.49-2.19-7.98s-3.48-4.38-6.05-5.66ZM104.01,101.82h-61.79v-4.12c0-.94.24-1.8.71-2.57.47-.77,1.09-1.37,1.87-1.8,3.09-1.54,7.06-3.09,11.91-4.63,4.85-1.54,10.32-2.32,16.41-2.32s11.56.77,16.41,2.32,8.82,3.09,11.91,4.63c.77.43,1.39,1.03,1.87,1.8.47.77.71,1.63.71,2.57v4.12Z"/>
      <path class="cls-2" d="M80.39,57.6c-2.02,2.02-4.44,3.03-7.27,3.03s-5.26-1.01-7.27-3.03c-2.02-2.02-3.03-4.44-3.03-7.27h-10.3c0,5.66,2.02,10.51,6.05,14.55,4.03,4.03,8.88,6.05,14.55,6.05s10.51-2.02,14.55-6.05c4.03-4.03,6.05-8.88,6.05-14.55h-10.3c0,2.83-1.01,5.26-3.03,7.27Z"/>
    </g>
    <path class="cls-1" d="M155.58,21.26v-1.29c0-.16-.05-.38-.16-.65l2.74-2.42-2.26-3.87-3.39,1.13c-.32-.32-.69-.61-1.09-.85-.4-.24-.85-.44-1.33-.61l-.65-3.39h-4.52l-.65,3.39c-.48.16-.93.36-1.33.61-.4.24-.77.52-1.09.85l-3.39-1.13-2.26,3.87,2.74,2.42c-.11.27-.16.48-.16.65v1.29c0,.16.05.38.16.65l-2.74,2.42,2.26,3.87,3.39-1.13c.32.32.69.61,1.09.85.4.24.85.44,1.33.61l.65,3.39h4.52l.65-3.39c.48-.16.93-.36,1.33-.61.4-.24.77-.52,1.09-.85l3.39,1.13,2.26-3.87-2.74-2.42c.11-.27.16-.48.16-.65ZM150.05,23.48c-.78.78-1.73,1.17-2.86,1.17s-2.08-.39-2.86-1.17c-.78-.78-1.17-1.73-1.17-2.86s.39-2.08,1.17-2.86,1.73-1.17,2.86-1.17,2.08.39,2.86,1.17,1.17,1.73,1.17,2.86-.39,2.08-1.17,2.86Z"/>
    <path class="cls-2" d="M143.32,42.84l4.56-4.14-4.14-7.46-5.8,2.07c-.55-.55-1.24-1.04-2.07-1.45-.83-.41-1.66-.76-2.49-1.04l-1.24-6.22h-8.29l-1.24,6.22c-.83.28-1.66.62-2.49,1.04s-1.52.9-2.07,1.45l-5.8-2.07-4.14,7.46,4.56,4.14v4.97l-4.56,4.14,4.14,7.46,5.8-2.07c.69.69,1.42,1.21,2.18,1.55s1.55.66,2.38.93l1.24,6.22h8.29l1.24-6.22c.83-.28,1.62-.59,2.38-.93s1.49-.86,2.18-1.55l5.8,2.07,4.14-7.46-4.56-4.14v-4.97ZM132.34,49.68c-1.24,1.24-2.69,1.87-4.35,1.87s-3.11-.62-4.35-1.87c-1.24-1.24-1.87-2.69-1.87-4.35s.62-3.11,1.87-4.35c1.24-1.24,2.69-1.87,4.35-1.87s3.11.62,4.35,1.87c1.24,1.24,1.87,2.69,1.87,4.35s-.62,3.11-1.87,4.35Z"/>
  </g>
  <path class="cls-2" d="M97.99,45.79h-1.24c.01-.26.02-.53.02-.8,0-11.67-11.67-21.12-23.33-21.12s-23.22,9.46-23.22,21.12c0,.27.01.53.02.8h-.85c-1.22,0-2.2.99-2.2,2.2v.13c0,1.22.99,2.2,2.2,2.2h48.54c1.13,0,2.05-.92,2.05-2.05v-.48c0-1.1-.9-2-2-2Z"/>
  <rect class="cls-2" x="68.24" y="21.6" width="10.7" height="24.77" rx="5.35" ry="5.35"/>
  <path class="cls-2" d="M66.26,47.32h0c-2.96,0-4.47-2.49-4.47-5.44l.54-12.91c0-2.96.61-5.27,3.56-5.27l.54-.13c2.96,0,4.01,2.91,4.01,5.87l.63,12.53c0,2.96-1.85,5.35-4.81,5.35Z"/>
  <path class="cls-2" d="M79.85,47.84h0c-2.96,0-4.47-2.49-4.47-5.44l.54-12.91c0-2.96.61-5.27,3.56-5.27l.54-.13c2.96,0,4.01,2.91,4.01,5.87l.63,12.53c0,2.96-1.85,5.35-4.81,5.35Z"/>
  <path class="cls-3" d="M68.43,36.06v.81c0,2.1,2.11,4.32,4.21,4.32h1.91c2.1,0,4.2-1.76,4.2-3.86v-1.09"/>
  <path class="cls-3" d="M66.32,23.87c-2.1,0-3.81,1.71-3.81,3.81v5.57c0,2.1,1.71,3.81,3.81,3.81.78,0,1.51-.24,2.12-.64v-11.91c-.61-.41-1.33-.64-2.12-.64Z"/>
  <path class="cls-3" d="M80.09,23.87c-.47,0-.92.1-1.34.26v12.68c.42.16.87.26,1.34.26,2.1,0,3.81-1.71,3.81-3.81v-5.57c0-2.1-1.71-3.81-3.81-3.81Z"/>
</svg>