<?xml version="1.0" encoding="UTF-8"?>
<svg id="Layer_1" data-name="Layer 1" xmlns="http://www.w3.org/2000/svg" viewBox="0 0 147.19 147.19">
  <defs>
    <style>
      .cls-1 {
        fill: #0062ff;
      }

      .cls-2 {
        fill: #fff;
      }
    </style>
  </defs>
  <circle class="cls-1" cx="73.59" cy="73.59" r="73.59"/>
  <path class="cls-2" d="M40.08,114.07v-14.9h15.4l-12.67-41.47c-2.24-1.24-4.08-3.06-5.53-5.46-1.45-2.4-2.17-4.97-2.17-7.7,0-4.14,1.45-7.66,4.35-10.55s6.42-4.35,10.55-4.35c3.23,0,6.11.93,8.63,2.79s4.28,4.24,5.28,7.14h15.89v-4.97c0-1.41.48-2.59,1.43-3.54s2.13-1.43,3.54-1.43c.75,0,1.47.17,2.17.5s1.3.83,1.8,1.49l8.44-7.95c.75-.75,1.63-1.22,2.67-1.43s2.05-.06,3.04.43l19.37,8.94c.99.5,1.68,1.22,2.05,2.17s.35,1.88-.06,2.79c-.5.99-1.22,1.63-2.17,1.92s-1.88.23-2.79-.19l-17.88-8.2-11.67,10.93v6.95l11.67,10.68,17.88-8.2c.91-.41,1.86-.46,2.86-.12s1.7.95,2.11,1.86c.5.99.54,1.95.12,2.86s-1.12,1.61-2.11,2.11l-19.37,9.19c-.99.5-2.01.64-3.04.43s-1.92-.68-2.67-1.43l-8.44-7.95c-.5.5-1.1.95-1.8,1.37s-1.43.62-2.17.62c-1.41,0-2.59-.48-3.54-1.43s-1.43-2.13-1.43-3.54v-4.97h-15.89c-.25.66-.52,1.28-.81,1.86s-.68,1.2-1.18,1.86l24.83,45.94h17.88v14.9H40.08ZM50.01,49.5c1.41,0,2.59-.48,3.54-1.43s1.43-2.13,1.43-3.54-.48-2.59-1.43-3.54-2.13-1.43-3.54-1.43-2.59.48-3.54,1.43-1.43,2.13-1.43,3.54.48,2.59,1.43,3.54,2.13,1.43,3.54,1.43ZM65.66,99.17h9.69l-21.36-39.73h-.5l12.17,39.73Z"/>
</svg>