<?xml version="1.0" encoding="UTF-8"?>
<svg id="Layer_1" data-name="Layer 1" xmlns="http://www.w3.org/2000/svg" viewBox="0 0 168.2 161.11">
  <defs>
    <style>
      .cls-1 {
        fill: #0062ff;
      }

      .cls-2 {
        fill: #fff;
      }
    </style>
  </defs>
  <circle class="cls-1" cx="73.59" cy="87.51" r="73.59"/>
  <path class="cls-2" d="M25.3,129.33v-58.33l33.95-14.43v9.7l24.25-9.7v14.55h38.8v58.21H25.3ZM35,119.63h77.61v-38.8h-38.8v-9.94l-24.25,9.7v-9.46l-14.55,6.43v42.08ZM68.95,109.93h9.7v-19.4h-9.7v19.4ZM49.55,109.93h9.7v-19.4h-9.7v19.4ZM88.35,109.93h9.7v-19.4h-9.7v19.4ZM122.31,71.13h-24.25l4.85-38.8h14.55l4.85,38.8ZM35,119.63h77.61H35Z"/>
  <path class="cls-1" d="M164.98,10.35c1.54-.96,2.58-2.65,2.58-4.6,0-3-2.43-5.43-5.43-5.43-1.56,0-2.95.67-3.94,1.72-.81-1.04-2.05-1.72-3.47-1.72-2.22,0-4.03,1.64-4.34,3.77-.74-.16-1.51-.24-2.3-.24-1.57,0-3.06.33-4.42.92-1.55-2.83-4.52-4.77-7.98-4.77-4.47,0-8.17,3.21-8.97,7.45-4.59.74-8.23,4.3-9.08,8.85-4.11.02-7.44,3.36-7.44,7.47s3.35,7.48,7.48,7.48c2.44,0,4.58-1.18,5.94-2.99,1.47.73,3.13,1.15,4.88,1.15s3.29-.39,4.72-1.07c1.97,1.8,4.58,2.91,7.46,2.91,3.8,0,7.16-1.92,9.15-4.85,1.95,1.74,4.52,2.8,7.34,2.8,6.11,0,11.05-4.95,11.05-11.05,0-3.04-1.23-5.79-3.22-7.79Z"/>
</svg>