<?xml version="1.0" encoding="utf-8"?>
<!-- Generator: Adobe Illustrator 21.0.0, SVG Export Plug-In . SVG Version: 6.00 Build 0)  -->
<svg version="1.1" id="Layer_1" xmlns="http://www.w3.org/2000/svg" xmlns:xlink="http://www.w3.org/1999/xlink" x="0px" y="0px"
	 width="160px" height="44px" viewBox="0 0 160 44" style="enable-background:new 0 0 160 44;" xml:space="preserve">
<style type="text/css">
	.st0{fill:#FFFFFF;}
</style>
<g>
	<rect width="43.6" height="43.6"/>
	<g>
		<path d="M73.3,29.3h-6.2l-0.9,3.2h-5.6L67.3,13h6l6.6,19.4h-5.7L73.3,29.3z M72.2,25.1l-2-7l-1.9,7H72.2z"/>
		<path d="M80.6,13h9.1c2,0,3.5,0.5,4.4,1.6c1,1,1.5,2.5,1.5,4.4c0,2-0.5,3.5-1.6,4.6c-1.1,1.1-2.7,1.7-4.9,1.7h-3v7.2h-5.5V13z
			 M86.1,21.3h1.3c1.1,0,1.8-0.2,2.2-0.6c0.4-0.4,0.6-0.9,0.6-1.5c0-0.6-0.2-1.1-0.6-1.6c-0.4-0.4-1.1-0.6-2.1-0.6h-1.6V21.3z"/>
		<path d="M97.7,13h5.5v19.4h-5.5V13z"/>
		<path  fill="#fffffff" d="M113.3,13h10.2c1.7,0,3,0.5,3.9,1.4c0.9,0.9,1.4,2.1,1.4,3.4c0,1.1-0.3,2.1-1,3c-0.4,0.5-1.1,1-1.9,1.3
			c1.3,0.3,2.2,0.9,2.8,1.7c0.6,0.8,0.9,1.8,0.9,3.1c0,1-0.2,1.9-0.6,2.7c-0.4,0.8-1,1.4-1.7,1.9c-0.5,0.3-1.2,0.5-2.1,0.6
			c-1.2,0.2-2,0.3-2.4,0.3h-9.4V13z M118.8,20.7h2.4c0.9,0,1.4-0.2,1.8-0.5c0.3-0.3,0.5-0.8,0.5-1.4c0-0.6-0.2-1-0.5-1.3
			c-0.3-0.3-0.9-0.5-1.7-0.5h-2.4V20.7z M118.8,28.3h2.8c0.9,0,1.6-0.2,2-0.6c0.4-0.4,0.6-0.9,0.6-1.5c0-0.6-0.2-1-0.6-1.4
			c-0.4-0.3-1.1-0.5-2-0.5h-2.8V28.3z"/>
		<path d="M131.7,13h5.5v19.4h-5.5V13z"/>
		<path d="M140,13h7.2l2.8,11.8l2.8-11.8h7.2v19.4h-4.5V17.7L152,32.5H148l-3.4-14.8v14.8H140V13z"/>
	</g>
	<path class="st0" d="M18.2,13.3v5.5h-6.6v14.3h6.6h7.6H34V13.3H18.2z M24.7,31.9h-5.4v-5.4h5.4V31.9z M32.9,31.9h-7.1V18.8h-6.5
		v-4.4h13.6V31.9z"/>
</g>
</svg>
