<?xml version="1.0" encoding="utf-8"?>
<!-- Generator: Adobe Illustrator 25.0.0, SVG Export Plug-In . SVG Version: 6.00 Build 0)  -->
<svg version="1.1" id="Layer_2" xmlns="http://www.w3.org/2000/svg" xmlns:xlink="http://www.w3.org/1999/xlink" x="0px" y="0px"
	 viewBox="0 0 335.9 335.9" style="enable-background:new 0 0 335.9 335.9;" xml:space="preserve">
<style type="text/css">
	.st0{fill-rule:evenodd;clip-rule:evenodd;}
</style>
<g>
	<g>
		<path class="st0" d="M195.4,78.8H91.2c-18.8,1.4-15.8,26.4-1.9,26.2c12.8-0.2,34.3,0,49.6,0C117,125.8,68,157.1,46.6,177.5
			c-8.3,7.9-7.8,30.8,16.3,25.5c9.1-5,50.3-38.6,55.9-44.4c2.9,71.4,83.2,104.9,143.5,63c32.1-22.3,43.1-78.9,18-106.8
			c-19.8-22.1-55.8-44.3-99-80.2c-6.9-5.6-27.5-2.8-20.5,14C160.9,48.7,179.3,67.1,195.4,78.8L195.4,78.8z M206,103.9
			c29.7,0,54.1,21.9,54.1,48.6c0,26.8-24.4,48.6-54.1,48.6c-29.9,0-54.1-21.7-54.1-48.6C151.9,125.9,176.1,103.9,206,103.9
			L206,103.9z"/>
		<path class="st0" d="M207.9,119.6c18.5,0,33.6,14.2,33.6,31.6c0,17.4-15.1,31.6-33.6,31.6s-33.6-14.2-33.6-31.6
			C174.3,133.8,189.4,119.6,207.9,119.6L207.9,119.6z"/>
	</g>
	<g>
		<path class="st0" d="M84.8,303.1h10.6c0.1,0,0.1,0,0.1-0.1v-44.3c0-0.1,0-0.1-0.1-0.1H84.8c-0.1,0-0.1,0-0.1,0.1L84.8,303.1
			C84.7,303.1,84.7,303.1,84.8,303.1L84.8,303.1z"/>
		<path class="st0" d="M168.1,267.2c-6.6,0-10.3,1.9-15,5.8c0,0-0.1-0.1-0.1,0c0-0.4,0.2-2.7-0.3-2.7c-2.9,0-7.3-0.1-10.4,0V303
			c4,0.1,10.7,0,10.7,0c0.1-6.3,0.1-13.5,0.1-20.2c0.4-2.9,3.3-7.1,10.6-7.1c5.2-0.4,6.4,3.7,6.4,8.3c0,5.1,0,12.5,0,19.1h10.6
			c0-2.9,1.1-20.1-0.4-26.7C178.5,268.2,170.4,267.3,168.1,267.2L168.1,267.2z"/>
		<path class="st0" d="M39.4,255.8l10.9,3V271c3.4-2.1,7.5-3.4,11.9-3.4c11.1,0,20.1,8.1,20.1,17.9c0,9.9-9,17.9-20.1,17.9
			c-4.4,0-8.5-1.2-11.9-3.4v3H39.4V255.8L39.4,255.8z M60.6,275.8c5.7,0,10.3,4.4,10.3,9.9c0,5.4-4.6,9.9-10.3,9.9
			c-5.6,0-10.2-4.5-10.2-9.9C50.4,280.2,55,275.8,60.6,275.8L60.6,275.8z"/>
		<path class="st0" d="M226.2,255.8l-11,3l-0.1,12.3c-3.3-2.1-7.4-3.5-11.8-3.5c-11.1,0-20.1,8.1-20.1,17.9c0,9.9,9,17.9,20.1,17.9
			c4.3,0,8.4-1.2,11.7-3.3l-0.1,3h11.2V255.8L226.2,255.8z M204.9,275.8c-5.6,0-10.2,4.4-10.2,9.9c0,5.4,4.6,9.9,10.2,9.9
			c5.7,0,10.3-4.5,10.3-9.9C215.2,280.2,210.6,275.8,204.9,275.8L204.9,275.8z"/>
		<path class="st0" d="M269.7,287.7c-0.1-12.7-5.1-21.4-21.8-20.8c-13.2,0.3-19.9,7.1-19.7,19.5c1.1,12.2,7.8,15.7,19,17.4
			c9.7,0.4,16.4-3,18.7-7.6c-2.5-1.8-5.6-3.4-8.1-5.1c-2.7,3.8-5.1,5.8-9.2,5.2c-7.1-1.1-8.3-4.5-8.6-8.5
			C249.7,287.8,260.2,287.7,269.7,287.7L269.7,287.7z M240.6,280.7c0.6-3.7,2.7-6.7,8.5-7.1c5.2,0,8.5,3.2,8.5,7.1
			C257.6,280.7,240.2,280.7,240.6,280.7L240.6,280.7z"/>
		<path class="st0" d="M139.5,287.7c-0.1-12.7-5.1-21.4-21.8-20.8c-13.2,0.3-19.9,7.1-19.7,19.5c1.1,12.2,7.8,15.7,19,17.4
			c9.7,0.4,16.4-3,18.7-7.6c-2.6-1.7-5.5-3.5-8.1-5.1c-2.7,3.8-5.1,5.8-9.2,5.2c-7.1-1.1-8.3-4.5-8.6-8.5
			C119.5,287.8,130,287.7,139.5,287.7L139.5,287.7z M110.4,280.7c0.6-3.7,2.7-6.7,8.5-7.1c5.2,0,8.5,3.2,8.5,7.1
			C127.4,280.7,110,280.7,110.4,280.7L110.4,280.7z"/>
		<path class="st0" d="M273.6,303h10.1c0.2,0,0.3,0,0.3-0.1v-20.1c2.4-4.7,6.4-5.8,12.4-5.5l-0.1-9.1c-7,0.3-9,0.9-12.4,4.5v-2.5
			c0-0.1-0.1-0.1-0.3-0.1h-10.1c-0.2,0-0.3,0-0.3,0.1v32.7C273.3,303,273.4,303,273.6,303L273.6,303z"/>
	</g>
</g>
</svg>
