<?xml version="1.0" encoding="utf-8"?>
<!-- Generator: Adobe Illustrator 25.0.0, SVG Export Plug-In . SVG Version: 6.00 Build 0)  -->
<svg version="1.1" id="Layer_2" xmlns="http://www.w3.org/2000/svg" xmlns:xlink="http://www.w3.org/1999/xlink" x="0px" y="0px"
	 viewBox="0 0 335.9 335.9" style="enable-background:new 0 0 335.9 335.9;" xml:space="preserve">
<g>
	<path d="M259.2,175.7c0.1,15.1-7.1,25.5-22,31c-33.1,12.4-66.2,24.6-99.3,37c-4.4,1.7-8.7,3.7-13,5.7
		c-22.7,10.3-46.2-4.8-46.3-29.7c0-48.1,0-96.2,0-144.2c0-6.7-0.1-13.5-0.1-20.2c0.3-20.2,17.8-34.8,37.5-30.9
		c25.7,5.1,51.3,10.5,77,15.7c10.7,2.2,21.4,4.2,32.2,6.1c16,2.9,27.5,14.8,28.1,30.9c1.3,31.8,3.4,63.6,5.7,95.3
		C259.3,173.6,259.2,174.7,259.2,175.7z M221.6,88.9c6.2,0,11.4-5.2,11.3-11.5c-0.1-5.9-5.4-11.3-11.2-11.1
		c-5.8,0.1-11.4,5.5-11.5,11.1C210.1,83.4,215.6,88.9,221.6,88.9z M227.9,187.3c6.9,0,11.4-4.3,11.4-11c-0.1-6.1-5-10.8-11.3-10.8
		c-5.6,0-11.2,5.1-11.3,10.4C216.6,182.1,221.6,187.3,227.9,187.3z M121.3,220.6c-0.1-5.8-5-10.7-10.7-10.8
		c-6.1-0.1-11.2,5.2-11,11.7c0.1,6.3,4.5,10.6,10.7,10.6C116.8,231.9,121.4,227.2,121.3,220.6z M110.2,66c6.6,0,10.9-4.1,11-10.2
		c0.1-6-5.6-11.7-11.5-11.5C104,44.5,99.6,49.1,99.5,55C99.4,61.9,103.5,66,110.2,66z"/>
	<g>
		<path d="M80.8,282.3c0-5.5,0-11,0-16.4c0-1.7,0.1-1.8,1.8-1.8c3.4,0,6.9-0.1,10.3,0c3.6,0.1,7,1.1,9.9,3.3
			c3.5,2.6,5.2,6.2,5.8,10.3c0.6,3.6,0.4,7.1-0.4,10.7c-1.4,6.2-6.3,10.8-12.6,11.9c-4.6,0.8-9.1,0.3-13.7,0.5
			c-0.8,0-1.2-0.4-1.2-1.2c0-0.5,0-1,0-1.5C80.8,292.8,80.8,287.5,80.8,282.3z M84,282.3c0,4.6,0,9.2,0,13.8c0,0,0,0.1,0,0.1
			c0,0.7-0.1,1.5,1,1.4c3.4-0.1,6.9,0.3,10.3-0.5c4.6-1.2,7.9-3.8,9.3-8.4c1-3.1,1-6.4,0.7-9.6c-0.5-6.3-4.1-10.4-10.2-11.7
			c-3.2-0.7-6.5-0.3-9.7-0.5c-1.2-0.1-1.6,0.4-1.6,1.6C84,273.2,84,277.7,84,282.3z"/>
		<path d="M197,276.4c0.7-0.7,1.1-1.2,1.6-1.6c2.8-2.5,9.7-2.5,12.2-0.1c0.5,0.5,1.1,1,1.5,1.7c0.4,0.7,0.6,0.9,1.2,0.1
			c2.8-3.7,8-4.4,12.3-2.8c3.2,1.2,4.5,3.9,4.6,7.1c0.2,6.3,0,12.5,0.1,18.8c0,1.1-0.6,1.2-1.5,1.2c-0.9,0-1.4-0.3-1.4-1.3
			c0-5.1,0-10.2,0-15.3c0-1.8-0.2-3.5-0.8-5.2c-0.6-1.6-1.7-2.6-3.4-2.8c-1.4-0.2-2.9-0.2-4.3,0c-2.8,0.5-4.7,2.8-5.1,5.9
			c-0.3,2.3-0.2,4.5-0.2,6.8c0,3.4,0,6.8,0,10.3c0,1.5-0.2,1.6-1.6,1.6c-1.4,0-1.6-0.2-1.6-1.7c0-5.9,0-11.9,0-17.8
			c0-2-0.7-3.7-2.6-4.7c-4-2.2-9.3,0.1-10.5,4.4c-0.4,1.5-0.6,3-0.6,4.5c0,4.6,0,9.2,0,13.7c0,1.1-0.3,1.6-1.5,1.6
			c-1.2,0-1.5-0.5-1.5-1.6c0-8.1,0-16.2,0-24.4c0-0.8,0-1.5,1.1-1.6c1,0,1.7,0.3,1.7,1.4C196.7,275.1,196.9,275.6,197,276.4z"/>
		<path d="M183.2,296.8c-1.2,1.4-2.3,2.4-3.7,3.1c-3,1.5-6.3,1.5-9.4,0.5c-3-1-4.5-3.4-4.7-6.6c-0.2-3.5,1.4-5.9,4.4-7.5
			c2.7-1.4,5.6-1.8,8.6-1.9c0.9,0,1.9,0,2.8,0c2,0,2,0,2-2c0-0.1,0-0.2,0-0.4c-0.1-5.2-3-7-7.8-6.5c-1.9,0.2-3.8,0.8-5.6,1.6
			c-1,0.4-1.1-0.3-1.4-0.9c-0.3-0.6-0.7-1.3,0.2-1.7c4.1-1.8,8.3-2.4,12.6-1.1c3,1,4.5,3.5,4.6,6.6c0.2,6.5,0.1,12.9,0.1,19.4
			c0,0.6-0.1,1.2-0.9,1.2c-0.7,0-1.3-0.1-1.4-1C183.6,298.8,183.4,298,183.2,296.8z M183.2,290.2c0-3.2,0-3.2-2.2-3.1
			c-0.7,0-1.4,0-2.1,0c-2.4,0.1-4.7,0.4-7,1.2c-1.9,0.7-3.2,2.3-3.2,4.4c-0.1,2.5,0.7,4.2,2.6,4.9c2.4,0.9,4.8,0.7,7.1-0.2
			C182,295.9,183.1,292.8,183.2,290.2z"/>
		<path d="M248.8,273c6.9-0.5,11.4,4.9,12.1,11.1c0.3,2.8,0.2,5.6-0.5,8.3c-1.1,4.6-5.4,8.6-10.4,8.6c-2.4,0-4.9,0-7.1-1.2
			c-3.2-1.9-5-4.8-5.8-8.2c-0.9-3.8-0.8-7.5,0.6-11.2C239.1,276.4,242.8,272.6,248.8,273z M248.8,275.9c-4.5-0.3-7.1,2.2-8.2,5.4
			c-0.9,2.5-1,5.1-0.7,7.7c0.2,1.5,0.5,3,1.1,4.4c1.6,3.4,4.3,4.7,8,4.7c3.5,0,6.3-1.6,7.6-4.8c1.4-3.3,1.5-6.8,0.8-10.3
			C256.3,278.3,253.6,275.9,248.8,275.9z"/>
		<path d="M138,286.9c0-4,0-7.9,0-11.9c0-0.9-0.1-1.9,1.3-1.8c1.3,0,1.5,0.2,1.6,1.7c0,0.4-0.2,1.1,0.3,1.2c0.5,0.2,0.7-0.4,1-0.7
			c1.6-1.6,3.6-2.3,5.8-2.4c1.8-0.1,3.7-0.3,5.5,0.2c3.7,1,5.8,3.8,6.1,8c0.5,6.1,0.1,12.1,0.2,18.2c0,1.1-0.6,1.4-1.6,1.4
			c-1,0-1.7-0.2-1.7-1.4c0-5.3,0-10.6,0-15.8c0-1.2-0.1-2.5-0.4-3.7c-0.5-2-1.6-3.3-3.6-3.7c-2.2-0.4-4.4-0.5-6.5,0.1
			c-3.3,1-5,3.7-5.1,7.9c-0.1,4.9,0,9.9,0,14.8c0,1.5-0.2,1.6-1.6,1.7c-1.2,0-1.6-0.4-1.6-1.6C138,295.1,138,291,138,286.9z"/>
		<path d="M123,296.7c0.5-1.5,1.1-3.1,1.6-4.6c2.2-5.9,4.4-11.8,6.7-17.7c0.4-1.1,1.9-1.6,3-1.1c0.6,0.3,0.3,0.8,0.2,1.2
			c-0.9,2.4-1.9,4.8-2.8,7.3c-2.9,7.6-5.8,15.2-8.7,22.7c-0.6,1.5-1.2,2.9-1.9,4.3c-2.3,4.2-4.9,4.4-8.8,3.9
			c-1.1-0.2-1.7-1.7-1.1-2.6c0.2-0.4,0.6-0.4,1-0.3c4.6,0.4,5.3,0,7.1-4.3c0.6-1.4,1.1-2.9,1.7-4.4c0.4-1.1-0.3-2-0.6-2.9
			c-2.9-7.7-5.9-15.4-8.8-23.1c-0.2-0.5-1.1-1.3,0-1.8c1-0.5,2.4,0,2.8,0.9c0.4,1,0.8,2.1,1.2,3.1c1.7,4.6,3.4,9.2,5.1,13.8
			c0.7,1.9,1.3,3.8,2,5.7C122.8,296.7,122.9,296.7,123,296.7z"/>
	</g>
</g>
</svg>
