<?xml version="1.0" encoding="utf-8"?>
<!-- Generator: Adobe Illustrator 25.0.0, SVG Export Plug-In . SVG Version: 6.00 Build 0)  -->
<svg version="1.1" id="Layer_2" xmlns="http://www.w3.org/2000/svg" xmlns:xlink="http://www.w3.org/1999/xlink" x="0px" y="0px"
	 viewBox="0 0 335.9 335.9" style="enable-background:new 0 0 335.9 335.9;" xml:space="preserve">
<style type="text/css">
	.st0{fill:#12100B;}
	.st1{fill:#FFFFFF;}
</style>
<g>
	<g>
		<path id="XMLID_21_" d="M195.5,38.4v9.2c35.7,13.7,59.7,48.4,59.4,87c-0.3-0.6-0.6-1.2-0.9-1.8c-7-29.1-29.6-52.1-58.6-59.6v7.1
			c19.3,5.5,35.3,18.5,44.8,35.7c-20.3-16.5-53.7-21.2-86.6-9.8c-45.1,15.7-72.1,56-60.3,90c9,25.9,38.1,40.6,71.4,39.1
			c22.1-8.2,39.6-22.3,50-38.6c-1.9,10.7-6.9,21.4-14.5,31c32.4-12.5,54.7-37.8,58.7-63.7c1.4-4.7,2.6-9.5,3.4-14.5
			C270,100.4,240.9,54.1,195.5,38.4"/>
		<path id="XMLID_20_" class="st0" d="M221.1,142.3c4.6,19.4-12.6,40-38.4,46.1c-25.8,6.1-50.4-4.7-55-24.1
			c-4.6-19.4,12.7-40,38.5-46.1C192,112.1,216.6,122.9,221.1,142.3"/>
		<path id="XMLID_19_" class="st1" d="M201.5,137.4c1.8,7.8-5.1,16.1-15.5,18.6c-10.4,2.4-20.3-1.9-22.2-9.7
			c-1.8-7.8,5.1-16.1,15.5-18.6C189.8,125.3,199.7,129.6,201.5,137.4"/>
	</g>
	<g>
		<path id="XMLID_46_" d="M52.5,289.7c-9.5,0-13-5.6-13-14.1v-5.3c0-8.1,3.6-14.1,13.3-14.1c3.1,0,6.5,0.7,8.7,2.8
			c0.6,0.4,0.9,1,0.9,1.5c0,0.9-0.7,1.8-2.2,1.8c-0.8,0-1.2-0.4-2.1-0.9c-1.4-1-3.2-1.5-5.3-1.5c-6,0-8.7,3.5-8.7,10.5v5.2
			c0,7.3,2.6,10.5,8.4,10.5c5.4,0,7.6-2.9,7.6-7.4v-2.4h-6.2c-1.2,0-2.2-0.9-2.2-1.9c0-1,1-1.9,2.2-1.9h8.4c1.3,0,2.2,0.8,2.2,2v4
			C64.6,284.8,60.9,289.7,52.5,289.7"/>
		<path id="XMLID_45_" d="M82.1,270.4c-0.6-0.1-1.2-0.3-2.6-0.3c-2.2,0-4.9,0.6-5.7,4.1v13.4c0,1.1-1,2-2.3,2c-1.2,0-2.3-0.9-2.3-2
			v-15.1c0-1.8-0.6-2.3-1.6-2.8c-0.6-0.3-0.9-0.7-0.9-1.3c0-1.1,0.9-1.7,2.2-1.7c0.2,0,0.5,0,0.7,0c1.9,0.4,2.9,1.5,3.4,2.8
			c2.2-2.7,5.2-3.1,7.1-3.1c1.5,0,2.6,0.2,3.4,0.5c1,0.4,1.3,1.4,0.9,2.3C84.3,270.1,83.4,270.7,82.1,270.4"/>
		<path d="M104.7,289.6c-1,0-2-0.4-2.7-0.9c-0.5-0.4-0.8-0.9-1-1.3c-1.9,1.8-4.9,2.3-7.2,2.3c-6.4,0-9-2.9-9-6.6v-0.4
			c0-3.7,2.9-6.5,9.4-6.5h5.8v-1.1c0-3.6-1-5.4-5.3-5.4c-2.4,0-3.9,0.5-5.2,1.1c-2.3,1.1-4.2-1.6-2.1-2.8c2.1-1.1,4.7-1.6,7.5-1.6
			c7.3,0,9.5,3.1,9.5,9v8.3c0,1.8,0.5,2.3,1.4,2.8c0.6,0.3,0.9,0.7,0.9,1.3C106.9,289,106,289.6,104.7,289.6 M100.1,279.2h-5.4
			c-4.3,0-5.4,1.7-5.4,3.5v0.4c0,1.9,1.2,3.5,5.3,3.5c3.4,0,5.5-1.5,5.5-4.7V279.2z"/>
		<path id="XMLID_42_" d="M117.7,289.6c-3.3,0-5.3-0.4-7.2-1c-1.1-0.3-1.4-1.3-1.1-2.2c0.4-0.9,1.5-1.4,2.5-1
			c1.6,0.5,3.1,0.9,5.9,0.9c3.8,0,5.5-1.4,5.5-3.5c0-2.8-3.7-3-7.2-3.7c-3.4-0.7-6.6-1.8-6.6-6c0-4.3,3.8-6.7,8.8-6.7
			c2.9,0,4.7,0.3,6.6,0.9c1.1,0.4,1.5,1.3,1.2,2.2c-0.4,0.9-1.4,1.3-2.5,1c-1.7-0.6-3.1-0.9-5.1-0.9c-3.2,0-4.7,1.3-4.7,3.1
			c0,2.6,3.1,2.8,6.5,3.4c3.6,0.7,7.4,1.7,7.4,6.4C127.6,287.3,123.4,289.6,117.7,289.6"/>
		<path id="XMLID_41_" d="M138.6,289.6c-3.3,0-5.3-0.4-7.2-1c-1.1-0.3-1.4-1.3-1.1-2.2c0.4-0.9,1.5-1.4,2.5-1
			c1.6,0.5,3.1,0.9,5.9,0.9c3.8,0,5.5-1.4,5.5-3.5c0-2.8-3.7-3-7.2-3.7c-3.4-0.7-6.6-1.8-6.6-6c0-4.3,3.8-6.7,8.8-6.7
			c2.9,0,4.7,0.3,6.6,0.9c1.1,0.4,1.5,1.3,1.2,2.2c-0.4,0.9-1.4,1.3-2.5,1c-1.7-0.6-3.1-0.9-5.1-0.9c-3.2,0-4.7,1.3-4.7,3.1
			c0,2.6,3.1,2.8,6.5,3.4c3.6,0.7,7.4,1.7,7.4,6.4C148.5,287.3,144.3,289.6,138.6,289.6"/>
		<path id="XMLID_40_" d="M170,289.6c-1.2,0-2.3-0.9-2.3-2V275c0-2.9-0.9-4.8-4.8-4.8c-3,0-5.1,1.1-6.3,2.8v14.7c0,1.1-1,2-2.3,2
			c-1.2,0-2.2-0.9-2.2-2v-28.8c0-1.1,1-1.9,2.2-1.9c1.3,0,2.3,0.9,2.3,1.9v9.8c1.7-1.3,4.1-2.2,7.2-2.2c6.5,0,8.4,3.5,8.4,8.2v13
			C172.3,288.7,171.2,289.6,170,289.6"/>
		<path d="M186.4,289.6c-7.3,0-10.3-4.2-10.3-9.3v-4.6c0-5.1,3-9.3,10.3-9.3c7.3,0,10.4,4.2,10.4,9.3v4.6
			C196.7,285.4,193.7,289.6,186.4,289.6 M192.2,275.7c0-3.5-1.7-5.7-5.8-5.7c-4.1,0-5.8,2.2-5.8,5.7v4.6c0,3.5,1.7,5.7,5.8,5.7
			c4.2,0,5.8-2.2,5.8-5.7V275.7z"/>
		<path d="M211.7,289.6c-1.9,0-4.3-0.5-6.1-1.7v7.7c0,1.1-1,2-2.3,2c-1.2,0-2.2-0.9-2.2-2v-23.3c0-1.8-0.4-2.3-1.4-2.8
			c-0.6-0.3-0.9-0.7-0.9-1.3c0-1.2,1-1.7,2.2-1.7c0.8,0,1.9,0.3,2.7,0.9c0.4,0.3,0.7,0.6,1,1c2-1.3,4.4-2,6.7-2
			c6.7,0,9.5,3.3,9.5,9.1v4.1C220.9,285.5,218.5,289.6,211.7,289.6 M216.4,275.2c0-3.6-1.5-5.4-5.6-5.4c-1.6,0-3.5,0.6-5.2,1.9v12.4
			c1.6,1.5,3.8,2.1,5.3,2.1c3.9,0,5.5-2.2,5.5-6V275.2z"/>
		<path d="M235.9,289.6c-1.9,0-4.3-0.5-6.1-1.7v7.7c0,1.1-1,2-2.3,2s-2.2-0.9-2.2-2v-23.3c0-1.8-0.4-2.3-1.4-2.8
			c-0.6-0.3-0.9-0.7-0.9-1.3c0-1.2,1-1.7,2.2-1.7c0.8,0,1.9,0.3,2.7,0.9c0.4,0.3,0.7,0.6,1,1c1.9-1.3,4.4-2,6.7-2
			c6.7,0,9.5,3.3,9.5,9.1v4.1C245.1,285.5,242.7,289.6,235.9,289.6 M240.6,275.2c0-3.6-1.5-5.4-5.6-5.4c-1.6,0-3.5,0.6-5.2,1.9v12.4
			c1.6,1.5,3.8,2.1,5.3,2.1c3.9,0,5.5-2.2,5.5-6V275.2z"/>
		<path d="M268.2,277.7c0,0.9-0.8,1.5-1.7,1.5h-14v1.2c0,3.5,1.8,5.8,5.8,5.8c2.9,0,4.7-0.5,6.4-1.3c1-0.4,2.1,0,2.4,0.9
			c0.4,0.9,0.1,1.7-0.9,2.1c-2.5,1.1-5.2,1.6-8.1,1.6c-7.4,0-10.1-4.4-10.1-9.5v-4.2c0-5.1,2.9-9.5,10.1-9.5
			c7.5,0,10.1,4.3,10.1,9.4V277.7z M263.9,275.3c0-3.5-1.4-5.7-5.6-5.7c-4.1,0-5.7,2.2-5.7,5.7v0.8h11.3V275.3z"/>
		<path id="XMLID_22_" d="M285.2,270.4c-0.6-0.1-1.2-0.3-2.6-0.3c-2.2,0-4.9,0.6-5.7,4.1v13.4c0,1.1-1,2-2.3,2c-1.2,0-2.3-0.9-2.3-2
			v-15.1c0-1.8-0.6-2.3-1.6-2.8c-0.6-0.3-0.9-0.7-0.9-1.3c0-1.1,0.9-1.7,2.2-1.7c0.2,0,0.5,0,0.7,0c2,0.4,2.9,1.5,3.4,2.8
			c2.2-2.7,5.2-3.1,7.1-3.1c1.5,0,2.6,0.2,3.4,0.5c1,0.4,1.3,1.4,0.9,2.3C287.4,270.1,286.5,270.7,285.2,270.4"/>
		<path d="M293.5,271c-1.6,0-3-1.3-3-3c0-1.6,1.3-3,3-3c1.6,0,3,1.3,3,3C296.5,269.7,295.1,271,293.5,271 M293.5,265.5
			c-1.4,0-2.6,1.2-2.6,2.6c0,1.4,1.1,2.6,2.6,2.6c1.4,0,2.6-1.2,2.6-2.6C296,266.6,294.9,265.5,293.5,265.5 M293.9,268.2l0.6,1.1
			c0,0,0,0.1,0,0.1c0,0.1-0.1,0.2-0.2,0.2c-0.1,0-0.2,0-0.2-0.1l-0.7-1.3h-0.6v1.2c0,0.1-0.1,0.2-0.2,0.2c-0.1,0-0.2-0.1-0.2-0.2
			v-2.9c0-0.1,0.1-0.2,0.2-0.2h0.9c0.8,0,1,0.4,1,0.8v0.2C294.6,267.8,294.4,268.1,293.9,268.2 M294.1,267.2c0-0.2-0.1-0.5-0.6-0.5
			h-0.7v1.1h0.6c0.5,0,0.6-0.3,0.6-0.5V267.2z"/>
	</g>
</g>
</svg>
