<svg id="Layer_2" data-name="Layer 2" xmlns="http://www.w3.org/2000/svg" viewBox="0 0 219.44 219.44"><defs><style>.cls-1{fill:#fff;}</style></defs><path d="M277.67,60.69v217h-217c.32-4.89.92-9.78.92-14.66.06-62.82.26-125.63-.18-188.44-.07-10.25,2.89-13.21,13.14-13.14,62.81.44,125.62.24,188.44.18C267.89,61.6,272.78,61,277.67,60.69ZM87.68,219c44.37,0,85.73.14,127.08-.31,2.85,0,7.12-4,8.25-7q12.77-34.44,24.39-69.32c5.06-15.29-.62-22.82-16.66-22.94q-35.09-.25-70.16,0c-12.26.09-27.43-3.52-35.92,2.33S114.34,143,110.2,154.41C102.72,175.05,95.72,195.86,87.68,219Z" transform="translate(-58.22 -58.22)"/><path class="cls-1" d="M277.67,60.69c-4.89.32-9.78.91-14.66.92-62.82.06-125.63.26-188.44-.18-10.25-.07-13.21,2.89-13.14,13.14.44,62.81.24,125.62.18,188.44,0,4.88-.6,9.77-.92,14.66-.82-3.28-2.35-6.56-2.36-9.83-.14-69.67-.1-139.33-.1-209.62q108.5,0,217,.11C276,58.33,276.85,59.87,277.67,60.69Z" transform="translate(-58.22 -58.22)"/><path class="cls-1" d="M87.68,219c8-23.15,15-44,22.52-64.6,4.14-11.44,6.09-26.91,14.46-32.67s23.66-2.24,35.92-2.33q35.07-.27,70.16,0c16,.12,21.72,7.65,16.66,22.94Q235.85,177.23,223,211.66c-1.13,3.05-5.4,7-8.25,7C173.41,219.15,132.05,219,87.68,219Zm49.6-13.56c24.78,0,48,.33,71.14-.41,3-.1,7.26-5.21,8.58-8.86,5.83-16.11,11-32.48,16-48.87,3.12-10.13,0-14.32-11-14.48-17.22-.25-34.45-.35-51.66.17-3.25.1-8.3,2.63-9.3,5.26C152.92,159.91,145.52,181.85,137.28,205.45Zm-30.17-1.86,2.24,3.64c5.61-1.95,14.75-2.46,16.25-6.1,8.91-21.69,16.05-44.11,23.78-66.28l-2.52-3.58c-5.51,2.28-14.35,3.17-16,7.06C122,159.68,114.85,181.76,107.11,203.59Z" transform="translate(-58.22 -58.22)"/><path d="M137.28,205.45c8.24-23.6,15.64-45.54,23.8-67.19,1-2.63,6-5.16,9.3-5.26,17.21-.52,34.44-.42,51.66-.17,10.94.16,14.1,4.35,11,14.48-5.05,16.39-10.19,32.76-16,48.87-1.32,3.65-5.55,8.76-8.58,8.86C185.26,205.78,162.06,205.45,137.28,205.45Zm77.08-57.17c-13.23,0-23.7-.18-34.14.16-2,.07-5.17,1.75-5.8,3.43-4.61,12.39-8.72,25-13.54,39.11,12.16,0,22.28.35,32.35-.23,2.77-.16,6.85-2.51,7.8-4.87C205.65,174.38,209.41,162.53,214.36,148.28Z" transform="translate(-58.22 -58.22)"/><path d="M107.11,203.59c7.74-21.83,14.88-43.91,23.78-65.26,1.62-3.89,10.46-4.78,16-7.06l2.52,3.58c-7.73,22.17-14.87,44.59-23.78,66.28-1.5,3.64-10.64,4.15-16.25,6.1Z" transform="translate(-58.22 -58.22)"/><path class="cls-1" d="M214.36,148.28c-5,14.25-8.71,26.1-13.33,37.6-.95,2.36-5,4.71-7.8,4.87-10.07.58-20.19.23-32.35.23,4.82-14.14,8.93-26.72,13.54-39.11.63-1.68,3.77-3.36,5.8-3.43C190.66,148.1,201.13,148.28,214.36,148.28Z" transform="translate(-58.22 -58.22)"/></svg>