<?xml version="1.0" encoding="utf-8"?>
<!-- Generator: Adobe Illustrator 25.0.0, SVG Export Plug-In . SVG Version: 6.00 Build 0)  -->
<svg version="1.1" id="Layer_1" xmlns="http://www.w3.org/2000/svg" xmlns:xlink="http://www.w3.org/1999/xlink" x="0px" y="0px"
	 viewBox="0 0 315.8 315.8" style="enable-background:new 0 0 315.8 315.8;" xml:space="preserve">
<style type="text/css">
	.st0{fill:#FFFFFF;}
	.st1{fill:#020202;}
	.st2{fill:#080808;}
	.st3{fill:#E3E3E3;}
	.st4{fill:#E8E8E8;}
	.st5{fill:#E6E6E6;}
	.st6{fill:#CDCDCD;}
	.st7{fill:#C1C1C1;}
	.st8{fill:#DCDCDC;}
	.st9{fill:#C4C4C4;}
	.st10{fill:#C9C9C9;}
	.st11{fill:#D0D0D0;}
	.st12{fill:#D7D7D7;}
	.st13{fill:#B8B8B8;}
	.st14{fill:#CCCCCC;}
	.st15{fill:#C2C2C2;}
	.st16{fill:#C7C7C7;}
	.st17{fill:#CFCFCF;}
	.st18{fill:#A1A1A1;}
	.st19{fill:#C3C3C3;}
	.st20{fill:#B5B5B5;}
	.st21{fill:#909090;}
	.st22{fill:#A4A4A4;}
	.st23{fill:#B0B0B0;}
	.st24{fill:#525252;}
	.st25{fill:#BEBEBE;}
	.st26{fill:#4A4A4A;}
	.st27{fill:#BFBFBF;}
	.st28{fill:#343434;}
	.st29{fill:#818181;}
	.st30{fill:#8B8B8B;}
	.st31{fill:#9F9F9F;}
	.st32{fill:#5A5A5A;}
	.st33{fill:#AEAEAE;}
	.st34{fill:#616161;}
	.st35{fill:#838383;}
	.st36{fill:#383838;}
	.st37{fill:#323232;}
	.st38{fill:#9E9E9E;}
	.st39{fill:#4D4D4D;}
	.st40{fill:#6D6D6D;}
	.st41{fill:#555555;}
	.st42{fill:#888888;}
	.st43{fill:#6E6E6E;}
	.st44{fill:#6B6B6B;}
	.st45{fill:#656565;}
	.st46{fill:#4C4C4C;}
	.st47{fill:#8D8D8D;}
	.st48{fill:#434343;}
	.st49{fill:#585858;}
	.st50{fill:#484848;}
	.st51{fill:#4F4F4F;}
	.st52{fill:#464646;}
	.st53{fill:#959595;}
	.st54{fill:#939393;}
	.st55{fill:#919191;}
	.st56{fill:#606060;}
	.st57{fill:#3A3A3A;}
	.st58{fill:#505050;}
	.st59{fill:#7A7A7A;}
</style>
<g>
	<ellipse class="st0" cx="157.9" cy="157.9" rx="159.2" ry="202.2"/>
	<path d="M111.2,235.2c0.6,1.5,1.5,2.7,2.6,3.8c1,1,2,1.9,3,2.9c0.2,0.2,0.6,0.4,0.7,0.9c-1.5-0.4-2.9-0.8-4.3-1.2
		c-3.5-1-6.9-1.7-10.5-2c-5-0.4-9.8,0.1-14.4,2.5c-1.8,1-3.5,2.2-5.2,3.4c-0.5,0.4-0.9,0.5-1.5,0.5c-8.9,0-17.7,0-26.6,0
		c-0.2,0-0.4,0-0.6,0c-0.3,0-0.5-0.2-0.5-0.5c0-0.2,0-0.5,0-0.7c0-73.2,0-146.4,0-219.7c0-1.2-0.1-1.2,1.2-1.2c68.3,0,136.7,0,205,0
		c0.1,0,0.2,0,0.3,0c0.9,0,0.9,0,0.9,1c0,8.7,0,17.4,0,26.1c0,10.2,0,20.5,0,30.7c0,0.7-0.1,1.3-0.3,1.9c-1.2,3-1.5,6.2-1.5,9.4
		c0,1.4,0.1,2.8,0.2,4.2c-3.6-7.5-7.2-15-9.2-23.1c-0.7-1.4-0.7-3-0.9-4.6c-0.1-0.7-0.2-1.4-0.1-1.9c0,0.6,0,1.4,0.2,2.1
		c0,0.9,0.2,1.8,0.3,2.6c0.1,0.8,0.3,1.5,0.3,2.3c0.4,2.5,1.1,4.8,1.9,7.2c1.8,5.5,4.1,10.8,6.3,16.1c0.8,2,1.7,4,2.5,6
		c0.2,0.5,0.3,1,0.3,1.6c0,14.2,0,28.5,0,42.7c0,0.6-0.1,1.1-0.4,1.6c-1.5,2.5-3,5-4.3,7.7c-0.6,1.2-1.1,2.5-1.6,3.8
		c-0.2,0-0.3-0.1-0.5-0.2c-6.5-6.5-11.9-13.9-15.5-22.4c-2.5-6-3.8-12.3-3.7-18.8c0-3,0.5-5.9,1.1-8.8c0.9-4.6,2.1-9.1,3.3-13.6
		c0.9-3.5,1.6-7,1.9-10.5c0.4-4.3,0-8.5-1.4-12.6c-0.2-0.7-0.2-1.1,0.3-1.6c1.4-1.3,2.3-3,3-4.8c0.9-2.5,1.4-5,1.9-7.6
		c0.4-2,0.8-3.9,1.4-5.8c0.1-1.2,0.9-2.1,1.4-3c-0.6,0.8-1,1.8-1.6,2.6c-0.9,2.1-1.4,4.3-2,6.6c-0.5,2.1-1,4.1-1.7,6.1
		c-0.5,1.3-1.1,2.5-2,3.6c-0.4,0.5-0.9,1-1.4,1.5c-0.4-0.1-0.4-0.5-0.5-0.7c-2-4.3-4.2-8.5-6.8-12.5c-0.1-0.2-0.3-0.4-0.4-0.5
		c-0.9-0.7-1.1-1.7-1.8-2.5c0-0.1,0-0.1-0.1-0.2c0,0,0,0,0,0c0,0.1,0,0.1,0.1,0.2c0.6,0.9,1.3,1.7,1.6,2.8c1.9,3.6,3.6,7.3,5.2,11.1
		c1.9,4.4,2.8,9,2.6,13.8c-0.1,1.3-0.2,2.5-0.4,3.7c0,0.2-0.1,0.4-0.3,0.5c-0.4-1.3-0.7-2.7-1.2-4c-2.5-7-6.6-12.8-12.7-17.2
		c-1.4-1-2.7-2.2-4.1-3.2c-1-0.4-1.6-1.3-2.3-2c-1.3-1.5-2.5-3.1-3.2-5c-0.7-1.6-1.1-3.2-1.3-4.9c-0.1-0.8-0.2-1.6-0.2-2.4
		c0-1.3-0.1-2.5,0.1-3.5c-0.1,1.3-0.1,3,0,4.6c0,0.5,0.1,1,0.2,1.5c0.2,1.7,0.7,3.2,1.3,4.7c1,2.3,2.5,4.2,4.2,5.9
		c0.4,0.4,0.8,0.6,0.9,1.2c1.2,1.3,2.5,2.3,3.9,3.4c7.6,5.9,11.9,13.8,13.6,23.2c0.2,0.9,0.1,1.7-0.2,2.6c-1.1,4-2.6,7.8-3.8,11.8
		c-0.3,1-0.7,2.1-1,3.1c-0.1,0.5-0.4,0.7-0.9,0.9c-3.1,1.1-6.3,0.9-9.4,0.2c-3.1-0.7-5.9-2-8.5-3.9c-0.2-0.1-0.3-0.2-0.5-0.3
		c-1-0.5-1.6-1.3-2.3-2c-0.5-0.7-1.1-1.4-1.6-2.1c-0.1-0.1-0.1-0.2-0.2-0.3c0.1,0.1,0.1,0.2,0.2,0.4c0.4,0.8,1,1.4,1.5,2.1
		c0.6,0.8,1.5,1.3,2.1,2.2c2.7,2.4,5.9,3.9,9.4,4.8c2.9,0.8,5.8,1,8.8,0.2c0.1,0,0.3,0,0.5-0.1c0.1,0.3,0,0.6-0.1,0.9
		c-0.8,3.1-1.5,6.2-1.7,9.4c-0.3,3.9-0.2,7.8,0.4,11.7c0.7,4.6,1.9,9.1,3.7,13.4c0.3,0.7,0.3,0.7-0.4,1.1c-2,1.2-4,2.4-6.2,3.2
		c-1.2,0.4-2.4,0.8-3.6,0.9c-0.4,0.4-0.9,0-1.3,0.1c-0.2,0-0.5-0.1-0.7-0.1c0.1,0,0.2,0,0.4,0.1c0.7,0,1.4,0.3,2.2,0.2
		c0.2,0,0.5,0,0.7-0.1c0.2-0.2,0.6,0,0.8-0.1c1.6-0.2,3.1-0.8,4.6-1.4c1.2-0.5,2.3-1.1,3.4-1.6c0.8-0.4,0.8-0.4,1.1,0.4
		c2.4,5.2,5.5,10.2,8.9,14.8c2.7,3.6,5.8,6.9,8.9,10.2c2.4,2.6,4.6,5.2,7,7.7c1,1,1.3,2,1.3,3.3c0,20.3,0,40.7,0,61
		c0,1.6,0.2,1.4-1.4,1.4c-2.3,0-4.6,0-7,0c-0.7,0-1.1-0.2-1.4-0.9c-2.3-4.8-5-9.4-8.3-13.6c-0.9-1.2-1.2-2.3-1-3.8
		c0.7-4.7,1.1-9.4,1.3-14.1c0.2-4.2,0.2-8.5,0-12.7c-0.2-4.5-1.6-8.7-3.8-12.6c-0.3-0.4-0.2-0.7,0.2-1c1.3-1,2.6-1.9,4-2.7
		c1.1-0.6,2.2-0.9,3.4-1c0-0.1,0.3-0.1,0.1-0.2c-0.2-0.1-0.5-0.1-0.7,0c-1.3,0-2.5,0.4-3.7,1c-1.3,0.6-2.5,1.3-3.7,2.1
		c-0.4,0.2-0.6,0.3-0.9-0.1c-3-4.5-6.7-8.2-10.7-11.8c-3.1-2.8-6.1-5.6-9-8.7c-3.7-4-7-8.1-9.9-12.7c-0.1-0.2-0.2-0.3-0.3-0.5
		c-0.4-0.7-0.4-0.7,0.2-1.2c0.1-0.1,0.3-0.3,0.5-0.4c3.5-2.4,5.3-6,6.7-9.8c0.6-1.6,0.8-3.3,1-5c0-0.5-0.1-1-0.1-1.4
		c-0.4-0.9-0.4-1.8-0.7-2.7c0-0.1,0-0.1,0-0.2c0,0.1,0.1,0.2,0.1,0.4c0.2,1,0.5,2.1,0.5,3.1c0,0.8-0.2,1.5-0.3,2.3
		c-0.6,3.6-2.3,6.7-4.5,9.5c-1.1,1.5-2.7,2.5-4.3,3.5c-0.3-0.2-0.3-0.4-0.4-0.6c-2.9-5.2-5-10.7-5.8-16.6
		c-0.8-5.1-0.5-10.1,0.6-15.2c0.1-0.3,0.1-0.5,0.1-0.8c-0.1-0.7,0.3-1.2,0.4-1.9c0.1-0.4,0.3-0.7,0.4-1.2c0,0-0.2,0.1,0,0.1
		c0,0.4-0.3,0.7-0.3,1.1c-0.2,0.6-0.3,1.1-0.7,1.6c-1.8,5.4-2.5,11-2.1,16.7c0.4,5.7,2,11.2,4.3,16.4c1.3,2.9,2.7,5.7,4.4,8.4
		c0.2,0.3,0.3,0.5,0.5,0.8c-0.2,0.2-0.3,0.1-0.4,0c-1.8-0.8-3.6-0.9-5.5-0.4c-1.2,0.3-2.3,0.5-3.5,0.7c-0.9,0.3-1.8,0.2-2.7,0.1
		c-0.3,0-0.6-0.1-0.9-0.2c-0.3-0.1-0.6-0.1-0.9-0.2c0.2,0.1,0.3,0.1,0.5,0.1c0.3,0.1,0.7,0.2,1,0.3c1.4,0.1,2.9,0.2,4.3,0.1
		c0.7,0,1.3-0.1,2-0.3c2.3-0.5,4.5-0.1,6.4,1.4c0.8,0.6,1.6,1.3,2.1,2.2c2.8,4.1,6,8,9.4,11.7c2.5,2.7,5.1,5.4,7.4,8.3
		c2,2.5,3.8,5,5.2,7.9c1.4,3,2.1,6.1,2.1,9.4c0,5-0.6,9.9-1.3,14.8c-0.2,1.4-0.4,2.8-0.7,4.2c-0.1,0.3-0.1,0.7-0.2,1
		c-0.3,0-0.4-0.2-0.6-0.3c-5-4.1-10.6-7.5-16.3-10.7c-0.2-0.1-0.3-0.2-0.5-0.3c-0.4-0.1-0.5-0.4-0.4-0.8c0.1-1,0.2-1.9,0.3-2.9
		c0.2-2.7,0.4-5.4,0.2-8.1c-0.1-1.6-0.3-3.3-0.8-4.8c-0.2-0.8,0-1.2,0.5-1.7c0.8-0.7,1.7-1.2,2.6-1.6c0.7-0.3,1.4-0.6,2.1-0.8
		c0-0.4-0.2-0.2-0.4-0.2c-1.9,0.3-3.7,0.9-5.4,1.9c-0.3-0.2-0.3-0.5-0.4-0.7c-1.7-4.3-3.9-8.2-7-11.5c-1-1-1.9-2.1-2.9-3.1
		c-2.2-2.3-4.2-4.6-5.9-7.2c-0.9-0.6-0.9-1.7-1.3-2.6c-0.2-0.4-0.3-0.8-0.3-1c0.1,0.2,0.2,0.7,0.4,1.1c0.3,1,0.8,1.9,1.1,2.9
		c0.8,1.8,2,3.4,3.2,5c1.4,1.8,2.8,3.5,4.2,5.3c0.2,0.3,0.5,0.6,0.7,1c-1.5,0.4-2.9,0.9-3.9,2c-0.1,0.2-0.1,0.4-0.3,0.5
		c0.1-0.1,0.3-0.2,0.5-0.3c1.1-0.6,2.2-0.9,3.4-1c0.8,0,1.3,0.2,1.8,0.9c2.9,5.1,5,10.4,4.9,16.3c-0.1,2.9-0.5,5.7-1,8.5
		c0,0.2-0.1,0.3-0.1,0.5c-0.1,0-0.3-0.1-0.4-0.1c-4.8-2.4-9.4-5-13.7-8.3c-6.2-4.7-10.5-10.7-13.5-17.8c-2.3-5.4-3.8-11-5.2-16.7
		c-1.1-4.4-1.9-8.8-2.4-13.3c-0.7-5.9-0.7-11.7,0-17.5c0.8-6.4,2.6-12.5,4.6-18.5c0.2-0.5,0.4-1.1,0.6-1.6c0.3-1.3,1.1-2.3,2-3.3
		c2.3-2.5,5-4.7,7.8-6.6c0.9-0.6,2-1,3.2-1.2c1.9-0.3,3.2-1.2,4.2-2.7c0.8-1.4,1.4-2.9,1.8-4.5c0-0.2,0-0.4,0.1-0.6
		c0.2-0.5,0.2-1.1,0.4-1.7c0.1-0.3,0.1-0.7,0.2-1c-0.1,0.2-0.1,0.4-0.1,0.6c-0.2,0.7-0.2,1.3-0.4,2c-0.3,1.5-0.7,3.1-1.6,4.4
		c-0.1,0.2-0.2,0.4-0.5,0.4c-0.3,0.3-0.5,0.6-0.8,0.8c-0.8,0.8-1.8,1.4-2.9,1.5c-2.1,0.3-3.9,1.1-5.7,2.3c-1.8,1.3-3.6,2.7-5.3,4.2
		c-0.2,0.1-0.3,0.3-0.5,0.4c0-0.4,0.2-0.8,0.3-1.1c2.2-6.2,4.6-12.4,6.7-18.6c0.9-2.8,1.7-5.5,2.2-8.4c0.1-0.3-0.1-0.8,0.4-0.8
		c0.5-0.1,1-0.3,1.4,0.2c0.4,0.5,1,0.5,1.6,0.5c0.5,0,0.9-0.2,1.3-0.4c3.3-1.5,5.5-4,6.9-7.4c0-0.1,0-0.1,0-0.2
		c-0.5-0.2-1.1,0-1.6,0.1c-2.9,0.5-5.4,1.7-7.4,3.8c-0.6,0.6-1.1,1.3-1.2,2.1c-0.1,0.4-0.7,0.7-1,0.5c-0.2-0.1-0.1-0.3-0.1-0.5
		c0.1-1.1,0.2-2.2,0.2-3.4c0.1-3-0.4-6-1-9c-0.4-1.9-0.9-3.9-1.5-5.8c-0.5-0.9-0.6-2-0.9-3c0-0.4-0.2-0.7-0.2-1
		c0.2,0.4,0.2,0.9,0.3,1.4c0.3,1,0.6,2,0.6,3c0.4,1.8,0.7,3.7,1.1,5.5c1.3,6.9,0.4,13.6-2,20.1c-0.2,0.7-0.3,0.7-0.9,0.4
		c-0.2-0.1-0.4-0.2-0.5-0.2c-0.5-0.1-0.8-0.4-0.6-1c0.1-0.8-0.3-1.6-0.7-2.3c-1.4-2.5-3.4-4.2-6-5.4c-0.5-0.3-1.1-0.6-1.7-0.6
		c-0.2,0.5,0,0.9,0.1,1.4c0.6,2.8,1.8,5.2,3.9,7.2c0.5,0.5,1.1,0.9,1.7,1.2c0.5,0.2,1.1,0.4,1.6,0.1c0.5-0.3,0.8-0.2,1.3,0
		c1.4,0.5,1.4,0.5,0.8,1.9c-2.8,7.1-5.9,14.1-8.7,21.2c-0.2,0-0.3-0.1-0.4-0.3c-0.7-1.3-1.7-2.4-2.8-3.3c-1.4-1.2-2.9-2.4-4.4-3.4
		c-0.3-0.2-0.5-0.4-0.8-0.7c-0.8-0.5-1.2-1.2-1.7-1.9c-0.1-0.4-0.4-0.7-0.4-1.1c0-0.1,0-0.1,0-0.2c0,0,0,0.1,0,0.1
		c0,0.1,0,0.2,0.1,0.3c0.1,0.3,0.3,0.6,0.4,1c0.3,0.8,1.1,1.2,1.4,2c0.6,0.8,1.4,1.4,2.2,2.1c1.1,1,2.2,1.9,3.2,3
		c0.9,1,1.7,2.2,2.2,3.5c0.2,0.5,0.2,1,0,1.5c-1.7,4.3-3.3,8.6-4.6,13c-1.5,0.2-2.9,0.1-4.4-0.2c-3.6-0.8-6.6-2.6-9.1-5.1
		c-4.6-4.5-7.4-9.8-8.4-16.2c-0.4-2.7-0.3-5.4,0.5-8c0.8-2.6,2.2-4.7,4.4-6.3c1.2-0.9,2.5-1.6,3.8-2.3c0.6-0.3,1.2-0.6,1.8-1
		c0.2-0.4,0.7-0.6,1-0.8c1.5-0.9,3-2,4.3-3.2c2.3-2.2,4-4.7,4.9-7.8c0.4-1.3,0.7-2.7,0.7-4.1c0.2-1.5,0-3,0-4.1
		c0.1,0.8,0.1,1.9,0.1,3c0,1.7-0.3,3.4-0.8,5c-0.9,3.1-2.6,5.7-4.9,7.9c-1.4,1.4-3.1,2.5-4.7,3.5c-0.3,0.2-0.7,0.1-1,0.3
		c-1.6,0.7-3.2,1.6-4.7,2.6c-3.6,2.2-5.5,5.5-6.1,9.6c-0.6,3.8,0,7.6,1.3,11.2c1.9,5.4,5,10.1,9.7,13.6c2.3,1.7,4.8,3,7.6,3.5
		c1,0.2,1.9,0.3,2.9,0.3c0.2,0,0.5-0.1,0.8,0.1c-1.6,6.5-2.4,13.2-2.2,19.9c-0.5,0.1-0.8-0.1-1.1-0.3c-5.8-2.3-10.9-5.8-15.4-10.1
		c-5-4.8-9.1-10.4-12.7-16.2c-3.5-5.7-6.7-11.7-9.8-17.6c-0.6-1.1-1.2-2.3-1.8-3.4c-0.2-0.3-0.2-0.6,0.1-0.8
		c2.4-2.2,3.4-5.2,3.9-8.3c0.4-2.5,0.7-5,1.2-7.4c0.1-1.2,0.6-2.2,1.2-3.3c0.2-0.2,0.3-0.5,0.5-0.7c-0.2,0.2-0.3,0.4-0.4,0.6
		c-0.5,0.7-0.8,1.4-1.1,2.2c-0.1,0.2-0.2,0.5-0.4,0.6c-0.7,1.9-1,3.9-1.4,5.9c-0.3,1.7-0.7,3.5-1.4,5.1c-0.6,1.5-1.5,2.8-2.6,3.9
		c-0.2,0.2-0.3,0.3-0.6,0.4c-1.1-2-2.2-4-3.4-6.1c-0.7-0.7-1-1.6-1.5-2.4c-0.3-0.6-0.6-1.1-0.9-1.7c0,0,0,0,0,0.1
		c0.3,0.6,0.6,1.1,0.9,1.7c0.3,0.9,1.1,1.6,1.2,2.6c1,2.1,2,4.1,2.9,6.2c3,6.4,5.9,12.8,9.1,19.1c0.4,0.8,0.9,1.6,1.3,2.5
		c0.4,0.7,0.4,0.7-0.3,1.3c-1.4,1.2-3,2-4.7,2.5c-3.5,1.1-7,1.4-10.6,0.5c-1.3-0.3-2.6-0.9-3.7-1.6c-0.4-0.3-0.9-0.5-1.3-0.9
		c-2.9-2.4-6.5-3.5-10-4.5c-1.5-0.2-2.9-0.9-4.4-1.3c-1.1-0.4-2.3-0.7-3.5-1.2c-0.9-0.3-1.8-0.7-2.4-0.9c0.6,0.1,1.5,0.5,2.3,0.8
		c1.1,0.5,2.3,0.7,3.4,1.1c1.4,0.5,2.9,0.7,4.2,1.5c1.5,0.6,3.1,1.1,4.6,1.7c1.6,0.6,3,1.4,4.3,2.4c0.4,0.3,0.7,0.5,1.1,0.8
		c2.9,2.4,6.3,3.4,9.9,3.4c4.4,0,8.5-1,12-3.8c0.4,0.1,0.4,0.4,0.5,0.7c3.3,5.9,7.1,11.5,11.7,16.4c5.2,5.5,11.2,9.9,18.2,12.8
		c0.6,0.3,0.8,0.6,0.9,1.3c0.2,2.9,0.6,5.8,1,8.6c0,0.1,0,0.1,0,0.2c0.1,0.7,0.1,0.8-0.7,0.6c-0.9-0.2-1.8-0.4-2.7-0.6
		c-3.8-1-7.4-2.6-11-4.3c-3.6-1.7-7.2-3.5-11-5c-3.3-1.3-6.7-2.4-10.2-2.9c-2-0.3-4-0.4-6-0.3c-8.3,0.4-15.7-2.2-22.6-6.5
		c-2.3-1.4-4.3-3.2-6.3-5.1c-0.8-0.2-1-1-1.5-1.5c-0.5-0.6-1-1.2-1.3-1.8c-0.2-0.3-0.5-0.6-0.6-1c0.1,0.4,0.4,0.7,0.6,1
		c0.6,0.9,1.3,1.8,2,2.6c0.2,0.3,0.5,0.5,0.6,0.9c1.6,1.9,3.4,3.6,5.4,5.1c5.6,4.2,11.9,6.9,18.8,8c1.3,0.2,2.6,0.3,3.8,0.3
		c5.3-0.2,10.3,1.1,15.1,3.2c2.8,1.2,5.5,2.6,8.1,4c3.9,2.1,7.7,4.1,11.8,5.8c2.5,1,5,1.8,7.7,2.3c0.7,0.1,0.9,0.4,1.1,1.1
		c1,4.5,2,8.9,3.4,13.3c1.7,5.1,3.9,10,6.9,14.4c0.8,1.2,1.7,2.3,2.6,3.5c0.2,0.2,0.4,0.3,0.4,0.7c-1.1,0.3-2.3,0.5-3.4,0.8
		c-4.6,1.1-9.1,2.5-13.5,3.9c-0.7,0.2-1.2,0.1-1.9-0.3c-3.6-2.3-7.3-4.2-11-6.3c-4.4-2.5-8.5-5.3-12.1-8.7c-2.5-2.4-5.1-4.8-7.8-7
		c-3-2.5-6.4-4.5-10.2-5.6c-3-0.9-6.1-1.2-9.2-1.2c-0.7,0-1.4,0-2.1,0c-0.7,0-0.7,0-0.7-0.8c0-0.4-0.1-0.7,0.4-1
		c0.5-0.3,0.7-0.9,0.6-1.5c0-0.5-0.1-1-0.3-1.5c-1.1-3.2-3.3-5.6-6.2-7.2c-0.5-0.3-0.6-0.2-0.6,0.3c0.1,3.4,1,6.5,3.4,9.1
		c0.5,0.6,1.1,1,1.8,1.2c0.4,0.1,0.6,1,0.3,1.3c-0.1,0.1-0.2,0.1-0.4,0.1c-3.3,0.1-6.7,0.3-10-0.4c-2.1-0.4-4-1.2-5.8-2.3
		c-5.7-3.6-10.7-7.9-15.3-12.8c-0.2-0.2-0.4-0.4-0.6-0.6c-0.9-0.3-1.2-1.2-1.8-1.8c-0.7-0.8-1.4-1.7-2-2.5c-0.3-0.5-0.7-1-1-1.5
		c-0.1-0.2-0.3-0.4-0.4-0.5c0,0,0-0.1,0-0.1c0,0,0,0,0,0c0.1,0.1,0.1,0.1,0.2,0.2c0.1,0.1,0.2,0.3,0.4,0.5c0.3,0.5,0.7,1,1,1.5
		c1.1,1.4,2.2,2.7,3.3,4.1c0.1,0.1,0.1,0.3,0.2,0.4c1.9,2.4,4,4.5,6.2,6.6c2.9,2.8,6.1,5.3,9.4,7.6c2.8,1.9,5.9,2.9,9.2,3.2
		c3.2,0.3,6.4,0.2,9.6,0.4c2.2,0.1,4.3,0.2,6.4,0.6c0.3,0.1,0.6,0.1,0.9,0.3c0,0.2-0.1,0.3-0.1,0.5c-0.1,0.4-0.2,0.6-0.7,0.4
		c-1-0.3-1.8,0.1-2.7,0.6c-2.3,1.3-4.1,3.1-5.4,5.5c-0.3,0.6-0.7,1.3-0.9,2.1c0.8,0,1.5-0.2,2.2-0.3c2.4-0.6,4.5-1.6,6.2-3.4
		c0.5-0.5,0.9-1,1.3-1.6c0.4-0.6,0.6-1.3,0.3-2c-0.1-0.2-0.1-0.4,0-0.6c0.3-1.1,0.4-1.2,1.6-0.9c3.1,0.9,5.8,2.5,8.3,4.4
		c3.1,2.5,5.8,5.3,8.6,8.1c3,3.1,6.3,5.8,9.9,8.2c2.1,1.4,4.3,2.7,6.4,4c1.4,0.9,2.8,1.7,4.2,2.6c0.3,0.2,0.5,0.4,0.8,0.5
		c-0.2,0.3-0.4,0.3-0.7,0.4c-4.4,1.4-8.8,2.6-13.4,3.3c-6.1,1-12.3,1.1-18.4,0c-2.2-0.4-4.3-0.9-6.4-1.3c-0.8-0.2-1.5-0.5-2.3-0.8
		c-3-1.4-5.7-3.2-8.4-5.1c-2.7-1.9-5.4-3.9-8.1-5.8c-3.6-2.5-7.4-4.7-11.2-6.8c-1.3-0.3-2.3-1.2-3.4-1.8c-1.3-0.7-2.6-1.5-3.9-2.4
		c-1.4-0.8-2.7-1.7-4.1-2.5c-1.4-0.9-2.8-1.8-4.1-2.8c-0.2-0.2-0.4-0.3-0.6-0.4c-0.4-0.3-0.9-0.6-1.3-1c-0.1,0-0.1-0.1-0.2-0.1
		c0,0,0,0,0,0c0.1,0,0.1,0.1,0.2,0.1c0.4,0.3,0.9,0.6,1.3,0.9c0.2,0.1,0.4,0.3,0.6,0.4c1.3,1,2.7,1.8,4.1,2.7
		c1.3,0.8,2.7,1.7,4.1,2.5c2.1,1.3,4.2,2.5,6.3,3.7c0.3,0.2,0.6,0.3,0.8,0.7c2,1.2,4,2.5,6,3.7c3.2,1.9,6.1,4.2,9.1,6.4
		c3.1,2.3,6.2,4.7,9.5,6.7c0.1,0.1,0.2,0.1,0.2,0.4c-0.8-0.1-1.6-0.1-2.4-0.2c-4.1-0.4-8,0.2-11.8,1.6c-1.6,0.6-3.1,1.3-4.6,2
		c-4.3,2-8.8,3.3-13.4,4.2c-3.4,0.7-6.8,1.3-10.2,1.9c-0.6,0.1-1.2,0.3-1.8,0.4c-0.9,0.5-2,0.4-2.9,0.7c-0.2,0-0.4,0.1-0.6,0.1
		c0.3,0,0.6-0.1,1-0.2c1-0.2,2-0.5,3-0.4c0.2,0,0.3,0,0.5-0.1c0.3-0.2,0.6,0,0.8-0.1c2.1-0.3,4.3-0.5,6.4-0.8
		c3.9-0.5,7.8-1.1,11.6-2.1c2.7-0.7,5.2-1.6,7.8-2.7c3.8-1.6,7.8-2.5,12-2.2c2.6,0.2,5.2,0.8,7.7,1.4c3.2,0.9,6.5,1.8,9.7,2.5
		c5.3,1.2,10.6,1.4,16,1c7.4-0.6,14.5-2.4,21.7-4.2c4.9-1.3,9.7-2.6,14.6-3.5c2.7-0.5,5.5-0.9,8.2-1.1c0.4,0,0.8,0,1.2,0.3
		c4.1,3.3,8.5,6.1,13,8.6c5.5,3.2,11,6.5,16,10.5c2.6,2.1,5.1,4.3,7.4,6.8c0.3,0.3,0.6,0.5,0.7,0.9c-0.2,0.2-0.4,0-0.6-0.1
		c-5.8-2.6-11.8-4.2-18.1-5c-4.6-0.5-9.2-0.4-13.8,0.2c-5.4,0.8-10.8,1.9-16.2,2.9c-4.6,0.8-9.2,1.5-13.9,1.6
		c-2.3,0.1-4.5-0.3-6.7-0.6c-3.3-0.5-6.6-1-10-1c-0.6,0-1.2,0.1-1.8,0.1c-0.8,0.3-1.7,0.3-2.5,0.5c-0.4,0.2-0.9,0.2-1.4,0.4
		c-0.2,0.1-0.4,0.1-0.5,0.2c0.2-0.1,0.5-0.2,0.7-0.2c0.5-0.1,1-0.3,1.5-0.4c1.5-0.4,2.9-0.2,4.4-0.1c3.6,0.3,7.2,1.1,10.7,1.8
		c3.5,0.7,6.9,0.9,10.5,0.8c5.2-0.2,10.4-0.9,15.7-1.6c4.5-0.6,8.9-1.2,13.4-1.3c3.6-0.1,7.1,0.3,10.6,1c1,0.2,2,0.5,3,0.7
		c0.1,0.2-0.1,0.3-0.2,0.3c-6.3,1-10.6,4.4-12.6,10.5c-0.2,0.7-0.3,1.5-0.5,2.3c-0.1,0.4-0.2,0.5-0.6,0.5c-0.3,0-0.5,0-0.8,0
		c-24.3,0-48.6,0-72.9,0c-0.7,0-1.3-0.1-2-0.3c-2.1-0.7-4.2-1.3-6.4-2c-0.3-0.1-0.6-0.2-0.8-0.4c-1.4-1.4-2.9-2.5-4.4-3.8
		c-1.6-1.3-3.1-2.8-4-4.7c-0.6-0.5-0.6-1.2-0.8-1.8c-0.2-0.9-0.4-1.7-0.3-2.6c0-0.4,0-0.7,0-0.9c-0.1,0.2,0,0.5,0,0.9
		c-0.1,0.9,0.1,1.8,0.3,2.8C110.8,233.8,111.1,234.5,111.2,235.2z"/>
	<path d="M157.6,263.8c-0.6,1.8-1.2,3.5-1.7,5.3c-2.4,7.3-4.8,14.7-7.2,22c-0.4,1.1-0.3,0.9-1.3,0.9c-2.1,0-4.3,0-6.4,0
		c-1.1,0-0.9,0.1-1.3-0.9c-3-8.8-5.9-17.6-8.9-26.4c-0.1-0.4-0.2-0.9-0.5-1.3c-0.1,0.4-0.1,0.8-0.1,1.1c0.2,6.9,0.4,13.7,0.6,20.6
		c0.1,2.1,0.1,4.1,0.2,6.2c0,0.7,0,0.7-0.7,0.7c-2.2,0-4.4,0-6.7,0c-0.5,0-0.7-0.1-0.7-0.7c0-0.2,0-0.4,0-0.6c0-11.6,0-23.3,0-34.9
		c0-1.3-0.1-1.2,1.3-1.2c3.1,0,6.2,0,9.3,0c0.9,0,0.9-0.2,1.3,0.9c2.9,8.8,5.9,17.7,8.8,26.5c0.1,0.3,0.2,0.6,0.4,1
		c0.3-0.4,0.3-0.7,0.4-1c2.9-8.8,5.8-17.5,8.7-26.3c0.4-1.3,0.2-1.1,1.6-1.1c3,0,6.1,0,9.1,0c0.3,0,0.5,0,0.8,0
		c0.3,0,0.4,0.1,0.4,0.4c0,0.2,0,0.5,0,0.7c0,11.7,0,23.5,0,35.2c0,0.1,0,0.2,0,0.3c0,0.8,0,0.8-0.7,0.8c-2.1,0-4.2,0-6.3,0
		c-0.7,0-0.7,0-0.7-0.7c0-2,0.1-4,0.1-6c0.1-5.4,0.2-10.9,0.3-16.3c0-1.7,0.1-3.5,0.1-5.2C157.7,263.8,157.7,263.8,157.6,263.8z"/>
	<path d="M236.5,264.3c0,2.5,0,4.8,0,7.2c0,4.1,0.1,8.2,0.2,12.4c0,2.3,0.1,4.6,0.1,6.9c0,0.2,0,0.5,0,0.7c0,0.7,0,0.7-0.7,0.7
		c-1.7,0-3.4,0-5.1,0c-0.6,0-1.2,0-1.7,0c-0.4,0-0.5-0.2-0.5-0.5c0-0.2,0-0.5,0-0.7c0-11.7,0-23.3,0-35c0-1.2-0.1-1.2,1.1-1.2
		c2.6,0,5.2,0,7.8,0c0.7,0,1.1,0.2,1.4,0.8c4.6,8.2,9.3,16.3,14,24.5c0.2,0.3,0.3,0.7,0.7,1c0.2-0.3,0.1-0.6,0.1-0.9
		c-0.1-5-0.1-10.1-0.2-15.1c0-3.1-0.1-6.2-0.1-9.4c0-1,0-1,1-1c2.1,0,4.1,0,6.2,0c0.9,0,0.9,0,0.9,0.9c0,6.6,0,13.3,0,19.9
		c0,5.2,0,10.3,0,15.5c0,1,0.2,1.1-1,1.1c-2.4,0-4.8,0-7.1,0c-0.7,0-1.1-0.2-1.4-0.8c-4.9-8.7-9.9-17.4-14.8-26.1
		C237,264.9,236.9,264.6,236.5,264.3z"/>
	<path d="M186.2,272.9c0-2.5,0.2-5.2,1-7.8c1.6-5.4,5-8.8,10.4-10.2c4.6-1.2,9.3-1.2,14-0.1c5.9,1.4,9.5,5.3,11,11.1
		c0.9,3.6,1,7.2,0.7,10.8c-0.1,1.8-0.5,3.6-1,5.3c-1.6,5.4-5.2,8.7-10.6,10c-4.7,1.1-9.3,1.1-14-0.1c-5.8-1.5-9.2-5.3-10.6-11.1
		C186.4,278.6,186.2,276.1,186.2,272.9z"/>
	<path d="M82.8,268.4c0-4.1,0-8.2,0-12.4c0-0.2,0-0.5,0-0.7c0-0.4,0.2-0.5,0.5-0.5c2.3,0,4.5,0,6.8,0c0.4,0,0.5,0.1,0.5,0.5
		c0,0.3,0,0.5,0,0.8c0,6.9,0,13.9,0,20.8c0,1.5,0.1,3,0.4,4.5c0.6,2.6,2.1,4.2,4.8,4.7c2.1,0.4,4.2,0.5,6.3,0c3-0.6,4.4-2.3,5-5.4
		c0.2-1.2,0.3-2.4,0.3-3.6c0-7.1,0-14.1,0-21.2c0-1.3-0.1-1.2,1.2-1.2c1.9,0,3.9,0,5.8,0c0.9,0,0.9,0,0.9,0.8c0,7.7,0,15.5,0,23.2
		c0,1.8-0.2,3.5-0.6,5.3c-0.5,1.9-1.4,3.5-2.9,4.8c-1.9,1.6-4,2.6-6.4,3.1c-4.5,0.9-9.1,0.9-13.6-0.2c-1.7-0.4-3.3-1.3-4.7-2.3
		c-2.3-1.6-3.5-3.9-3.9-6.6c-0.2-1.9-0.3-3.8-0.3-5.7C82.8,274.1,82.8,271.2,82.8,268.4z"/>
	<path d="M54.1,267.9c0-3.9,0-7.9,0-11.8c0-0.2,0-0.5,0-0.7c0-0.7,0-0.7,0.7-0.7c1.3,0,2.5,0,3.8,0c0.9,0,1.9,0,2.8,0
		c0.5,0,0.6,0.2,0.6,0.6c0,0.3,0,0.5,0,0.8c0,7.1,0,14.1,0,21.2c0,1,0.1,2.1,0.1,3.1c0.2,2.9,2.2,4.4,4.3,5c1.3,0.4,2.7,0.4,4,0.4
		c2.8,0,5.6,0,8.4,0c0.9,0,0.9,0,0.9,0.9c0,1.5,0,3.1,0,4.6c0,0.7,0,0.7-0.7,0.7c-4.2,0-8.4,0.1-12.6-0.1c-1.3-0.1-2.6-0.2-3.9-0.6
		c-4.4-1.6-7.1-4.7-8-9.3c-0.3-1.5-0.3-2.9-0.3-4.4C54.1,274.4,54.1,271.1,54.1,267.9z"/>
	<path d="M172.6,273.3c0-5.7,0-11.5,0-17.2c0-0.2,0-0.5,0-0.7c0-0.7,0-0.7,0.7-0.7c1.9,0,3.9,0,5.8,0c0.4,0,0.7,0,1.1,0
		c0.5,0,0.6,0.2,0.6,0.6c0,0.2,0,0.4,0,0.6c0,11.6,0,23.3,0,34.9c0,0.1,0,0.2,0,0.3c0,0.9,0,1-0.9,1c-2.1,0-4.2,0-6.3,0
		c-0.9,0-0.9,0-0.9-1C172.6,285.2,172.6,279.3,172.6,273.3z"/>
	<path d="M240,245.8c-0.4,0.2-0.8,0.1-1.1,0.1c-11,0-22.1,0-33.1,0c-1.3,0-1.3,0-1-1.3c1.4-5.5,6.3-9.4,11.9-9.5
		c2.6-0.1,5,0.5,7.4,1.5c3.8,1.6,7.5,3.6,11.1,5.6c0.8,0.4,1.5,0.9,2.3,1.4C238.7,244.1,239.3,244.9,240,245.8z"/>
	<path d="M119.4,245.9c-11.8,0-23.5,0-35.2,0c-0.1-0.1,0-0.2,0-0.3c2.8-1.9,5.6-3.5,8.9-4.2c3-0.6,6-0.7,9-0.4
		c5,0.5,9.7,2.1,14.4,3.7c1,0.3,1.9,0.7,2.9,1C119.4,245.8,119.4,245.8,119.4,245.9z"/>
	<path class="st1" d="M261.5,156.8c0,3.4,0,6.9,0,10.3c-0.3,0.1-0.4-0.2-0.6-0.3c-0.6-0.6-1.2-1.2-1.9-1.8c-0.3-0.3-0.4-0.6-0.3-1
		c0.5-2.6,1.5-5,2.6-7.3C261.4,156.8,261.5,156.8,261.5,156.8z"/>
	<path class="st2" d="M261.5,85.7c0,4.1,0,8.1,0,12.2C260.7,93.9,260.4,89.8,261.5,85.7z"/>
	<path class="st3" d="M95.4,189.7c-1.1-0.5-2-1.1-3-1.7c-1.4-0.8-2.8-1.7-4.2-2.6c0-0.2,0-0.3,0.2-0.2c2.5,1.4,4.9,2.8,7.3,4.3
		C95.6,189.6,95.5,189.7,95.4,189.7z"/>
	<path class="st4" d="M220.8,63.5c-2.2-2-4.1-4.2-5.2-7c-0.1-0.2,0-0.3,0.2-0.2c1.2,2.5,2.9,4.6,4.9,6.4c0.2,0.2,0.3,0.3,0.5,0.5
		C221,63.3,220.9,63.4,220.8,63.5z"/>
	<path class="st5" d="M162.8,86.2c0.4-0.4,1-0.6,1.5-0.9c1.5-0.8,2.8-1.9,4.1-3c0.2-0.1,0.3,0,0.2,0.2c-1.6,1.6-3.4,2.9-5.4,3.9
		C163.1,86.4,162.9,86.3,162.8,86.2z"/>
	<path class="st6" d="M83,158.8c-1.4-1.4-2.5-2.9-3.6-4.5c-0.1-0.2,0-0.2,0.2-0.2c1.2,1.5,2.5,2.9,3.7,4.4
		C83.1,158.6,83,158.7,83,158.8z"/>
	<path class="st7" d="M199.3,99.2c1-1.4,1.6-3.1,2-4.8c0.1-0.1,0.1-0.1,0.2,0c-0.2,1.5-0.6,2.9-1.3,4.2c-0.2,0.3-0.3,0.6-0.6,0.8
		C199.5,99.3,199.4,99.3,199.3,99.2z"/>
	<path class="st8" d="M102.7,137.5c-1.1-1-1.9-2.3-2.7-3.5c-0.1-0.2,0-0.2,0.2-0.2c0.8,1.2,1.8,2.3,2.8,3.4
		C102.9,137.4,102.8,137.5,102.7,137.5z"/>
	<path class="st9" d="M249.9,69.4c0.1,1.6,0.6,3.1,0.8,4.6c-0.1,0.2-0.1,0.4-0.2,0.6c-0.5-1.6-0.7-3.3-0.8-5
		C249.7,69.4,249.8,69.4,249.9,69.4z"/>
	<path class="st10" d="M109.1,117c-1.4-0.4-2.8-0.9-4.2-1.4c0-0.2,0-0.3,0.2-0.2c1.5,0.4,3,0.8,4.4,1.4
		C109.4,116.8,109.2,116.9,109.1,117z"/>
	<path class="st11" d="M197.4,159.9c1,0,1.9,0,2.9,0.1c0.4,0.3,0.9,0.1,1.4,0.2c-1.5,0.4-3,0.2-4.5-0.1
		C197.2,159.9,197.2,159.8,197.4,159.9z"/>
	<path class="st12" d="M147.8,230.9c0.9-0.2,1.8-0.5,2.7-0.4c0.3,0.2,0.7,0.2,1,0.2c0.4,0,0.8,0,1.1,0.2c-1.5,0.1-3.1,0-4.6,0.2
		C147.8,231.2,147.7,231.1,147.8,230.9z"/>
	<path class="st13" d="M246.9,54.2c0.4-1.2,1.1-2.3,2.1-3.2c-0.3,0.6-0.7,1.1-1,1.7c-0.3,0.6-0.6,1.2-0.9,1.8
		C247,54.4,247,54.3,246.9,54.2z"/>
	<path class="st14" d="M199,168.2c-0.6-0.9-0.9-1.9-1.2-2.9c-0.1-0.2,0-0.2,0.2-0.2c0.4,0.9,0.8,1.8,1.2,2.7
		C199.1,168,199,168.1,199,168.2z"/>
	<path class="st15" d="M232,58.4c-0.6-1-1.2-2-1.8-3c0.1-0.1,0.2,0,0.3,0c0.6,0.9,1.3,1.7,1.8,2.7C232.1,58.3,232.1,58.4,232,58.4z"
		/>
	<path class="st15" d="M136.4,82.2c0.3-1.1,0.8-2.1,1.5-3c0.1,0.1,0.1,0.2,0,0.3c-0.6,1-0.9,2.2-1.3,3.3
		C136.5,82.6,136.4,82.4,136.4,82.2z"/>
	<path class="st9" d="M191,60.6c-0.4-1-0.5-2.1-0.8-3.1c-0.1-0.2-0.2-0.4,0.2-0.4c0.2,1,0.6,2,0.8,3.1
		C191.1,60.3,191.1,60.4,191,60.6z"/>
	<path class="st16" d="M72.8,217.4c1-0.2,2-0.6,3.1-0.6c0.1,0.1,0.3,0.1,0.4,0.2c-1,0.3-2.1,0.4-3.1,0.6
		C73,217.6,72.8,217.8,72.8,217.4z"/>
	<path class="st17" d="M126.8,91.7c-0.5-0.8-0.9-1.7-1.3-2.5c-0.1-0.2,0-0.2,0.2-0.2c0.5,0.8,1,1.6,1.4,2.5
		C127,91.6,126.9,91.6,126.8,91.7z"/>
	<path class="st12" d="M211.9,102.3c0.7,0.7,1.5,1.4,2.2,2.1c-0.1,0.1-0.2,0.1-0.2,0.2c-0.8-0.6-1.5-1.3-2.1-2.1
		C211.6,102.3,211.7,102.3,211.9,102.3z"/>
	<path class="st18" d="M217.1,131.7c0.1,1,0.6,1.9,0.6,2.9c-0.1,0.2-0.1,0.4-0.2,0.6c-0.2-1.1-0.4-2.2-0.6-3.3
		C216.8,131.7,216.9,131.7,217.1,131.7z"/>
	<path class="st8" d="M170.5,100.4c0.4,0.7,1.1,1.2,1.5,1.9c-0.1,0.1-0.1,0.2-0.2,0.2c-0.7-0.5-1.2-1.2-1.5-2
		C170.2,100.4,170.4,100.3,170.5,100.4z"/>
	<path class="st19" d="M111.2,235.2c-0.4-0.6-0.5-1.2-0.6-1.9c-0.1-0.2,0-0.3,0.2-0.3c0.2,0.6,0.4,1.2,0.6,1.7
		C111.3,234.9,111.3,235,111.2,235.2z"/>
	<path class="st20" d="M223.1,150c0.5,0,1,0,1.6,0c0.2,0.1,0.4,0.1,0.6,0.2c-0.8,0.3-1.6,0-2.3-0.1C222.9,150.1,222.9,150,223.1,150
		z"/>
	<path class="st21" d="M247.4,183.1c0.6-0.2,1.2-0.2,1.8-0.1c-0.4,0.2-0.8,0.3-1.2,0.3C247.8,183.2,247.6,183.2,247.4,183.1z"/>
	<path class="st22" d="M203.4,115.4c-0.1,0.7-0.3,1.3-0.6,2c-0.1-0.1-0.1-0.1-0.2-0.2c0.1-0.6,0.4-1.2,0.6-1.7
		C203.3,115.4,203.4,115.4,203.4,115.4z"/>
	<path class="st11" d="M203.5,181.8c-0.3,0.3-0.7,0.6-1,0.8c0.1-0.4,0.3-0.8,0.7-1.1C203.3,181.6,203.4,181.7,203.5,181.8z"/>
	<path class="st23" d="M220.8,188.5c0.4-0.3,0.9-0.1,1.4-0.3c-0.2,0.4-0.7,0.3-1,0.4C221,188.6,220.9,188.6,220.8,188.5z"/>
	<path class="st24" d="M216.3,232.6c0.1-0.1,0.1-0.2,0.2-0.3c0.2,0,0.4,0,0.6,0.3C216.9,232.7,216.6,232.7,216.3,232.6z"/>
	<path class="st16" d="M77.6,216.8c-0.3,0.2-0.5,0.2-0.8,0.1C77.1,216.8,77.3,216.7,77.6,216.8z"/>
	<path class="st20" d="M226.8,150.1c-0.2,0.2-0.5,0.2-0.8,0.1C226.3,150.1,226.5,150,226.8,150.1z"/>
	<path class="st25" d="M168.6,82.6c-0.1-0.1-0.2-0.1-0.2-0.2c0.1-0.2,0.3-0.3,0.4-0.5c2.1-2,3.6-4.4,4.4-7.2c0.2,0,0.3,0,0.2,0.2
		C172.6,77.9,171,80.5,168.6,82.6z"/>
	<path class="st26" d="M214,50.1c-0.3-1.4-0.2-2.8-0.1-4.2c0-0.6,0.1-1.2,0.3-1.8c0,1.6,0,3.2,0,4.9C214,49.3,214.3,49.8,214,50.1z"
		/>
	<path class="st9" d="M215.7,56.3c-0.1,0.1-0.1,0.2-0.2,0.2c-0.8-1.5-1.2-3.1-1.3-4.8c-0.1-0.2,0-0.2,0.2-0.2
		C214.6,53.1,215.1,54.7,215.7,56.3z"/>
	<path class="st27" d="M88.4,185.2c-0.1,0.1-0.1,0.1-0.2,0.2c-1.4-0.7-2.7-1.7-4.1-2.5c0-0.2,0-0.3,0.2-0.2
		C85.7,183.5,87.1,184.3,88.4,185.2z"/>
	<path class="st28" d="M174.1,69.5c0-1.3,0-2.5,0-3.8c0.2,1.6,0.6,3.3,0.2,4.9C174,70.3,174.3,69.8,174.1,69.5z"/>
	<path class="st29" d="M174.1,69.5c0.2,0.4,0.1,0.8,0.2,1.1c-0.1,1.4-0.2,2.9-0.8,4.3c-0.1-0.1-0.1-0.1-0.2-0.2
		C173.7,73,174.1,71.2,174.1,69.5z"/>
	<path class="st30" d="M84.4,182.7c-0.1,0.1-0.1,0.1-0.2,0.2c-1.4-0.9-2.8-1.7-4.1-2.8l0,0C81.6,180.8,83,181.8,84.4,182.7z"/>
	<path class="st30" d="M105.1,115.4c-0.1,0.1-0.1,0.1-0.2,0.2c-1.2-0.3-2.3-0.8-3.5-1.2c-0.1-0.2,0-0.3,0.2-0.2
		C102.7,114.6,103.9,114.9,105.1,115.4z"/>
	<path class="st31" d="M211.9,102.3c-0.1,0.1-0.1,0.1-0.2,0.2c-0.6-0.6-1.1-1.4-1.5-2.1c-0.1-0.2,0-0.2,0.2-0.2
		C210.9,100.9,211.4,101.6,211.9,102.3z"/>
	<path class="st22" d="M100.2,133.8c-0.1,0.1-0.1,0.1-0.2,0.2c-0.6-0.7-1-1.5-1.4-2.4c0.1,0,0.1-0.1,0.2-0.1
		C99.3,132.3,99.7,133.1,100.2,133.8z"/>
	<path class="st32" d="M101.6,114.3c-0.1,0.1-0.1,0.1-0.2,0.2c-0.8-0.2-1.7-0.6-2.4-1C99.9,113.6,100.7,113.8,101.6,114.3z"/>
	<path class="st33" d="M110.8,233c-0.1,0.1-0.2,0.2-0.2,0.3c-0.3-1-0.4-2-0.3-3c0.1-0.1,0.1-0.1,0.2,0
		C110.4,231.2,110.7,232.1,110.8,233z"/>
	<path class="st34" d="M190.4,57.1c-0.1,0.1-0.1,0.2-0.2,0.4c-0.3-0.8-0.4-1.6-0.5-2.4C190.1,55.7,190.3,56.4,190.4,57.1z"/>
	<path class="st35" d="M249.9,69.4c-0.1,0.1-0.1,0.1-0.2,0.2c-0.3-0.9-0.1-1.8,0-2.6C249.8,67.8,249.9,68.6,249.9,69.4z"/>
	<path class="st31" d="M214.4,51.4c-0.1,0.1-0.1,0.1-0.2,0.2c-0.2-0.5-0.2-1-0.2-1.6c0.1-0.4,0-0.8,0.2-1.1
		C214.3,49.8,214.3,50.6,214.4,51.4z"/>
	<path class="st36" d="M169.9,99.6c-0.3-0.6-0.2-1.2,0.2-1.8c0,0.5,0,0.9,0,1.4C170,99.3,170.1,99.6,169.9,99.6z"/>
	<path class="st37" d="M201.7,92.3c0.1-0.5,0.1-1.1,0.5-1.6c0,0.7,0,1.3-0.3,2C201.7,92.6,201.8,92.4,201.7,92.3z"/>
	<path class="st38" d="M125.7,89c-0.1,0.1-0.1,0.1-0.2,0.2c-0.4-0.5-0.6-1.2-1-1.8c-0.1-0.2,0-0.2,0.2-0.2
		C125,87.8,125.4,88.4,125.7,89z"/>
	<path class="st39" d="M97.8,129.7c0.4,0.4,0.7,0.9,0.7,1.5C98,130.7,97.9,130.2,97.8,129.7z"/>
	<path class="st40" d="M201.7,92.3c0.1,0.1,0.1,0.2,0.2,0.4c-0.1,0.6-0.1,1.2-0.4,1.7c-0.1,0-0.1,0-0.2,0
		C201.4,93.7,201.6,93,201.7,92.3z"/>
	<path class="st41" d="M196.3,159.9c-0.5-0.1-1-0.3-1.5-0.6c0.6,0,1.3,0.2,1.8,0.4C196.6,159.9,196.4,159.8,196.3,159.9z"/>
	<path class="st42" d="M79.5,154.1c-0.1,0.1-0.1,0.1-0.2,0.2c-0.4-0.4-0.8-0.9-1-1.5c0-0.1,0-0.1,0-0.2c0.1,0,0.1,0,0.2,0.1
		C78.8,153.1,79.2,153.6,79.5,154.1z"/>
	<path class="st43" d="M72.8,217.4c0.1,0.1,0.2,0.1,0.4,0.2c-0.6,0.3-1.2,0.3-1.8,0.3C71.8,217.5,72.3,217.5,72.8,217.4z"/>
	<path class="st44" d="M210.3,100.2c-0.1,0.1-0.1,0.1-0.2,0.2c-0.4-0.4-0.6-0.9-0.7-1.5C209.9,99.2,210.1,99.7,210.3,100.2z"/>
	<path class="st45" d="M124.7,87.2c-0.1,0.1-0.1,0.1-0.2,0.2c-0.3-0.4-0.5-0.8-0.6-1.3C124.3,86.4,124.5,86.8,124.7,87.2z"/>
	<path class="st21" d="M198,165.2c-0.1,0.1-0.1,0.1-0.2,0.2c-0.2-0.4-0.4-0.8-0.3-1.5C197.8,164.4,197.8,164.8,198,165.2z"/>
	<path class="st46" d="M223.1,150c-0.1,0.1-0.1,0.1-0.2,0.2c-0.4,0-0.8-0.1-1.1-0.4C222.3,149.8,222.7,149.8,223.1,150z"/>
	<path class="st47" d="M147.8,230.9c0.1,0.1,0.1,0.1,0.2,0.2c-0.4,0.2-0.9,0.3-1.4,0.4c-0.2,0.1-0.2,0-0.2-0.2
		C146.9,231.2,147.3,231.1,147.8,230.9z"/>
	<path class="st48" d="M146.4,231.3c0.1,0.1,0.1,0.1,0.2,0.2c-0.4,0.3-0.8,0.4-1.2,0.4C145.6,231.6,146,231.4,146.4,231.3z"/>
	<path class="st49" d="M78.2,178.6c0.5,0.3,1,0.5,1.4,1c0,0.1,0.1,0.1,0.1,0.2c-0.1,0-0.1-0.1-0.2-0.1c-0.5-0.2-0.9-0.6-1.3-1
		C78.1,178.7,78.1,178.6,78.2,178.6z"/>
	<path class="st50" d="M138.3,78.5c0.2-0.4,0.5-0.6,0.9-0.8c-0.1,0.4-0.4,0.7-0.7,1C138.4,78.7,138.3,78.6,138.3,78.5z"/>
	<path class="st51" d="M217.1,131.7c-0.1,0.1-0.1,0.1-0.2,0.2c-0.2-0.4-0.2-0.8-0.1-1.4C217,131,217.1,131.4,217.1,131.7z"/>
	<path class="st52" d="M249.6,50.3c0.1-0.4,0.4-0.5,0.8-0.7C250.2,50,250,50.2,249.6,50.3z"/>
	<path class="st53" d="M169.9,99.6c0.1-0.1,0.1-0.2,0.2-0.4c0,0.4,0.3,0.8,0.4,1.1c-0.1,0.1-0.1,0.1-0.2,0.2
		C170.1,100.3,170,99.9,169.9,99.6z"/>
	<path class="st46" d="M203.4,115.4c-0.1,0-0.1,0-0.2,0c0.1-0.3,0.2-0.6,0.5-1C203.7,114.9,203.6,115.2,203.4,115.4z"/>
	<path class="st54" d="M196.3,159.9c0.1-0.1,0.3-0.1,0.4-0.2c0.3,0,0.5,0,0.8,0.2c-0.1,0.1-0.1,0.1-0.2,0.2
		C196.9,160,196.6,160,196.3,159.9z"/>
	<path class="st55" d="M138.3,78.5c0.1,0.1,0.1,0.1,0.2,0.2c-0.2,0.3-0.4,0.5-0.6,0.8c0-0.1,0-0.2,0-0.3
		C137.9,78.9,138.1,78.7,138.3,78.5z"/>
	<path class="st56" d="M110.4,230.3c-0.1,0-0.1,0-0.2,0c0-0.3-0.1-0.7,0.1-1.1C110.5,229.6,110.4,230,110.4,230.3z"/>
	<path class="st57" d="M77.4,178.1c0.3,0.1,0.6,0.3,0.8,0.5c0,0,0,0.1-0.1,0.1C77.8,178.6,77.5,178.4,77.4,178.1L77.4,178.1z"/>
	<path class="st28" d="M174,64.5c0,0.1,0,0.1-0.1,0.2c0,0-0.1,0-0.1-0.1c0-0.1,0-0.1,0.1-0.2C174,64.3,174,64.4,174,64.5z"/>
	<path class="st45" d="M230.4,55.5c-0.1,0-0.2,0-0.3,0c-0.2-0.1-0.3-0.3-0.3-0.5c0-0.1,0-0.1,0-0.2c0.1,0,0.1,0,0.2,0.1
		C230.2,55,230.3,55.2,230.4,55.5z"/>
	<path class="st58" d="M77.6,151.6c0.2,0.1,0.3,0.3,0.4,0.5c0.1,0.1,0.1,0.2,0,0.3C77.8,152.2,77.6,151.9,77.6,151.6
		C77.6,151.6,77.6,151.6,77.6,151.6z"/>
	<path class="st57" d="M77.4,178.1c-0.1,0-0.1,0-0.2-0.1c-0.1,0-0.2-0.1-0.1-0.2c0.1-0.1,0.2,0,0.2,0.1
		C77.3,178,77.4,178,77.4,178.1C77.4,178.1,77.4,178.1,77.4,178.1z"/>
	<path class="st30" d="M80.1,180.1c-0.3-0.1-0.5-0.2-0.6-0.4c0,0,0.1-0.1,0.1-0.1C79.7,179.7,80,179.8,80.1,180.1
		C80.1,180,80.1,180.1,80.1,180.1z"/>
	<path class="st45" d="M229.8,55c-0.1-0.1-0.3-0.3-0.2-0.4c0.2-0.1,0.2,0.1,0.3,0.3C229.9,54.9,229.9,54.9,229.8,55z"/>
	<path class="st59" d="M78,152.4c0-0.1,0-0.2,0-0.3c0.2,0.2,0.3,0.4,0.4,0.6c0,0-0.1,0.1-0.1,0.1C78.2,152.7,78.1,152.5,78,152.4z"
		/>
	<path class="st58" d="M77.5,151.6c0,0-0.1-0.1-0.1-0.1c-0.1-0.1-0.1-0.2-0.1-0.2c0.1-0.1,0.2,0,0.2,0.1
		C77.6,151.4,77.6,151.5,77.5,151.6C77.6,151.6,77.6,151.6,77.5,151.6z"/>
	<path class="st0" d="M194.7,273.9c0-2.2,0.1-4.5,0.7-6.7c0.1-0.3,0.2-0.7,0.3-1c1.3-3.4,3.8-5.3,7.4-5.7c1.4-0.2,2.8-0.1,4.1,0.1
		c2.9,0.5,4.9,2.1,6.1,4.8c0.6,1.2,0.9,2.6,1.1,3.9c0.4,3.2,0.4,6.4-0.3,9.6c-0.2,1.1-0.6,2.1-1.1,3.1c-1.1,2.1-2.9,3.4-5.2,4
		c-2.1,0.5-4.2,0.5-6.3,0c-2.5-0.6-4.3-2.2-5.4-4.6c-0.7-1.6-1.1-3.3-1.3-5C194.8,275.6,194.8,274.7,194.7,273.9z"/>
</g>
</svg>
