<?xml version="1.0" encoding="utf-8"?>
<!-- Generator: Adobe Illustrator 25.0.0, SVG Export Plug-In . SVG Version: 6.00 Build 0)  -->
<svg version="1.1" id="Layer_2" xmlns="http://www.w3.org/2000/svg" xmlns:xlink="http://www.w3.org/1999/xlink" x="0px" y="0px"
	 viewBox="0 0 335.9 335.9" style="enable-background:new 0 0 335.9 335.9;" xml:space="preserve">
<style type="text/css">
	.st0{fill:#FFFFFF;}
	.st1{fill:#F7F7F7;}
</style>
<g>
	<path class="st0" d="M277.7,20.8c7.7,2.8,11,8.5,11,16.4c0,6.9,0.2,13.8,0,20.6c-0.1,4.4,1.5,6.1,6,6.2c4.4,0.1,9.1-1.4,13.4,1.3
		c-1.8,2.5-4.5,3-7.3,3.5c-5.3,1-7.9,4.4-8.3,9.7c-0.3,3-0.2,6-0.2,9c0,43,0.1,86,0,129c0,15.3-0.6,15.9-16.1,15.9
		c-63.4,0.1-126.7,0.1-190.1,0c-4.5,0-9.3,0.9-13.4-2.3c-2.5-2.9-2.3-6.5-2.3-9.9c-0.2-62.8-0.2-125.7,0-188.5
		c0-10.6,1.2-11.5,11.4-11.5c62.8,0,125.7,0,188.5,0C272.7,20.2,275.2,19.6,277.7,20.8z"/>
	<path d="M73.6,229.2c68.2,0,136.4,0,204.6,0c10.3,0,10.4,0,10.4-10.5c0-47.2,0-94.3,0-141.5c0-11.9,0-11.9,11.6-11.9
		c2.5,0,5.1,0,7.6,0c0.1,2.5,0.3,5.1,0.3,7.6c0,78.2,0,156.3,0,234.5c0,9.3,0,9.3-9.5,9.3c-74.2,0-148.5,0-222.7,0
		c-16.2,0-23.1-7-23.2-23.2c0-16.9-0.1-33.8-0.2-50.6c-0.5-0.8-0.8-1.7-0.5-2.6C54.2,235.4,68,228.2,73.6,229.2z"/>
	<path d="M73.6,229.2c-6.7,5.1-14.7,8-20.9,13.7c-6.2,2.1-11.3,6.2-16.9,9.3c-8.1,4.4-8,4.6-8-5c0-34.4,0-68.8,0-103.3
		c0-29.1,0.2-58.2-0.2-87.3c-0.1-7.4,1.6-12.2,8.6-15.3c5.7-2.5,11.2-5.7,16.1-9.4c13.9-10.6,29.4-13,46.7-12.7
		c56.1,0.8,112.3,0.3,168.5,0.3c3.4,0,7-0.5,10.2,1.4c-64.5,0-128.9,0-193.4,0.1c-10.7,0-10.8,0-10.8,10.8
		C73.6,97.5,73.6,163.3,73.6,229.2z"/>
	<path d="M163.4,106.5c0,22.2,0,44.1,0,66c0,9.6,0,9.6-9.6,9.7c-19.2,0.1-19.2,0.1-19.2-19.4c0-29.4,0.1-58.7-0.1-88.1
		c-0.1-6.2,1.7-8.8,8.2-8.4c7.4,0.5,14.8,0.4,22.2,0c4.9-0.2,7.5,1.7,9.7,6c9.9,19.6,20.7,38.7,29.1,59.1c0.4,1,1.1,2,2.6,4.9
		c1.1-9.6,0.1-17.3,0-24.9c-0.2-12.9-0.3-25.9-0.5-38.8c-0.1-4.4,1.6-6,6.1-6.3c22.8-1.1,22.8-1.2,22.8,21.4c0,28.7-0.2,57.3,0.1,86
		c0.1,6.7-2,9.1-8.7,8.6c-6-0.5-12-0.3-18,0c-4.9,0.3-7.5-1.7-9.6-6c-10.9-22.2-23.1-43.7-32.8-66.5
		C165,108.6,164.8,107,163.4,106.5z"/>
	<path class="st1" d="M145.9,276.2c2.2-7.7,4.9-15.4,6.5-23.3c1.3-6.6,5.5-6.4,10.3-6c5.3,0.4,3.6,4.5,3.7,7.4c0.2,12,0,24,0.1,36.1
		c0,3.1-0.4,5.4-4.5,5.2c-3.9-0.1-3.8-2.6-3.8-5.2c0-7.8,0-15.6-0.7-23.6c-3.6,5.4-4.7,11.6-6.6,17.5c-1,3.1-1.7,6-6.2,5.9
		c-4.4-0.1-4.6-3.1-5.5-5.8c-1.8-5.4-3.5-10.9-5.3-16.4c-0.6,0-1.3,0.1-1.9,0.1c0,6.9,0.1,13.8-0.1,20.6c-0.1,2.9,1.5,6.9-4.1,6.9
		c-5.4,0-4.2-3.9-4.2-6.8c-0.1-11.6-0.1-23.1,0-34.7c0-2.9-1.4-6.9,4-7.2c4.5-0.2,8.5-0.5,9.9,5.7c1.7,8.1,4.4,15.9,6.7,23.8
		C144.7,276.4,145.3,276.3,145.9,276.2z"/>
	<path class="st1" d="M249.7,278.7c0-8.4,0-16.8,0-25.2c0-3.1-0.8-6.7,4.5-6.5c4.9,0.2,3.9,3.6,3.9,6.4c0.1,12,0.1,24,0,36
		c0,2.2,1.2,5.8-2.6,6c-3.6,0.2-7.8,1.8-10.2-3.3c-4.4-9.4-9.1-18.6-14.2-28.8c-2.1,3.5-1.3,6.4-1.3,9.2c-0.1,5.5,0,11.1-0.1,16.6
		c0,3.2,0.6,6.6-4.6,6.5c-4.9-0.1-4.2-3.3-4.2-6.2c0-12-0.1-24,0-36c0-2.5-1.1-6.1,3.2-6.4c3.8-0.2,7.8-1.3,10,3.7
		c3.3,7.4,7,14.6,10.5,21.8c1.1,2.2,2.2,4.3,3.3,6.5C248.6,278.9,249.2,278.8,249.7,278.7z"/>
	<path class="st1" d="M210.2,295.6c-2.6,0-4.7,0.1-6.2-2.5c-4.6-7.9-16.8-7.8-21.6,0.2c-2.3,3.8-5.9,2.7-8.6,1.9
		c-2.9-0.9-0.5-3.6,0.1-5.2c4.7-12.7,9.6-25.4,14.5-38.1c0.9-2.3,1.4-4.9,4.9-4.9c3.5,0,4,2.7,4.9,5c5,12.9,9.8,25.8,14.9,38.7
		C214.3,294,214.3,296.1,210.2,295.6z"/>
	<path d="M194.1,265c0.9,2.5,2.1,5,2.8,7.6c0.5,1.9,3,4.4-0.2,5.9c-2.2,1-5.2,1.2-7.3-0.1c-2.3-1.4-0.5-3.7,0.1-5.5
		c0.8-2.8,1.9-5.4,2.9-8.1C193,264.8,193.6,264.9,194.1,265z"/>
</g>
</svg>
