<?xml version="1.0" encoding="utf-8"?>
<!-- Generator: Adobe Illustrator 25.0.0, SVG Export Plug-In . SVG Version: 6.00 Build 0)  -->
<svg version="1.1" id="Layer_2" xmlns="http://www.w3.org/2000/svg" xmlns:xlink="http://www.w3.org/1999/xlink" x="0px" y="0px"
	 viewBox="0 0 335.9 335.9" style="enable-background:new 0 0 335.9 335.9;" xml:space="preserve">
<style type="text/css">
	.st0{fill:#FEFEFE;}
	.st1{fill:#FDFDFD;}
</style>
<g>
	<path class="st0" d="M76.8,24.7c1.4,0,2.7-0.1,4.1-0.1c61.9,0,123.8,0,185.7,0c2,0,4,0,5.9,0.6c6.4,1.9,10.5,7,10.6,13.7
		c0.1,8.5,0,16.9,0,25.4c0,1.7-0.1,3.5,0.5,5.2c1.2,1.6,1.1,3.5,1.1,5.4c0,48.8,0.1,97.5,0,146.3c0,6.3-0.7,6.9-7.2,6.9
		c-24.5,0.1-49,0-73.5,0c-39.9,0-79.9,0-119.8,0c-2.7,0-5.5,0.6-8-1.1c-1.6-1.9-1.3-4.2-1.3-6.4c-0.1-14.1,0-28.1,0-42.2
		c0-48.1,0-96.3,0-144.4C74.9,30.7,74.6,27.4,76.8,24.7z"/>
	<path d="M76.7,226.2c67.3,0,134.6,0,201.9,0.1c4.3,0,4.4-2.2,4.4-5.4c0-48.4,0-96.8,0-145.2c0-2.1-0.2-4.2,0.6-6.3
		c5.4,0,10.7,0.1,16.1-0.1c2.9-0.1,3.9,1,3.5,3.7c-0.1,1,0,2,0,3c0,76.7,0,153.3,0,230c0,5.4,0,5.4-5.5,5.4c-74.8,0-149.6,0-224.4,0
		c-8.5,0-13.4-3.4-16.1-11.2c-0.7-1.3-0.3-2.7-0.3-4c0-18,0.3-36.1-0.2-54.1c-0.1-5,1.5-7.5,5.5-9.5c3.5-1.8,6.8-4.1,10.3-6
		C73.8,225.8,75.2,225.2,76.7,226.2z"/>
	<path d="M76.7,226.2c-5.2,3.1-10.3,6.5-15.7,9.4c-2.9,1.6-3.8,3.6-3.8,6.9c0.1,19.3,0.1,38.5,0.1,57.8c-1-1.7-0.7-3.6-0.7-5.5
		c0-17.2,0-34.3,0-51.5c0-4.5-0.1-4.6-3.9-2.3c-5.6,3.3-11.1,6.6-16.6,10c-2.5,1.5-3.4,0.9-3.2-1.8c0-0.7,0-1.5,0-2.2
		c0-63.5,0-126.9-0.1-190.4c0-4,1.2-6.3,4.7-8.3c13.3-7.6,26.3-15.6,39.4-23.5c0,48.4,0,96.8-0.1,145.1
		C76.7,188.6,76.7,207.4,76.7,226.2z"/>
	<path d="M140,125.8c0-17,0.1-34.1-0.1-51.1c0-3.7,1-5,4.8-4.9c13.1,0.2,26.1,0.1,39.2,0.1c8.1,0,15.9,1.4,23.1,5.3
		c10.1,5.4,15.7,13.5,15.5,25.2c0,2.5-0.1,5,0,7.5c0.7,11.4-4.7,19.6-14.1,25.3c-2.7,1.6-3.3,2.9-1.6,5.7c3.7,6.3,7,12.9,10.4,19.4
		c1.8,3.4,4.2,5.9,8.3,6.1c2.2,0.1,2.6,1.4,2.6,3.3c0,3.6-0.1,7.2,0,10.8c0.1,2.2-0.9,3.5-3,4c-10.5,2.7-23.1,1.7-29.9-11.1
		c-4.5-8.4-8.8-17-12.8-25.7c-1.6-3.4-3.6-4.8-7.4-4.6c-8.2,0.4-7.2-0.7-7.2,7.2c-0.1,9.7-0.1,19.4,0,29.1c0.1,3.1-1,4.1-4.1,4
		c-6.6-0.2-13.2-0.2-19.8,0c-3.1,0.1-4.1-1-4-4.1C140.1,160.2,140,143,140,125.8z"/>
	<path class="st0" d="M127.4,266.8c0-6,0.1-11.9,0-17.9c0-2,0.5-3,2.7-2.9c5.6,0.2,11.2-0.1,16.8,0.4c5.2,0.4,10,2.5,11.4,8.1
		c1.4,5.7,1.5,11.5-4.3,15.4c-0.9,0.6-1.8,1.2-1,2.3c2.3,3.2,2.6,7.8,6.9,9.8c2.2,1,1,3.3,1,5.1c0,1.6-1.4,1.8-2.7,2
		c-4.3,0.7-7.6-0.8-9.7-4.6c-1.6-2.8-3.1-5.7-4.4-8.6c-1-2.3-2.5-3-4.7-2.5c-2.2,0.5-1.3,2.4-1.4,3.7c-0.1,3-0.1,6-0.1,9
		c0,1.2-0.2,2.3-1.7,2.3c-2.4,0-4.7,0.1-7.1,0c-2.1-0.1-1.7-1.8-1.7-3.1C127.4,279,127.4,272.9,127.4,266.8z"/>
	<path class="st0" d="M182.6,278.3c2.2-9.3,4.6-18.6,6.5-28c0.7-3.3,2-4.8,5.4-4.3c0.9,0.1,1.7,0.1,2.6,0c2.9-0.3,3.7,0.6,2.8,3.6
		c-3.4,11.8-6.7,23.7-9.9,35.6c-0.6,2.4-1.8,3.1-4.2,3.1c-10.8,0.1-10.8,0.1-13.8-10.1c-2.8-9.4-5.4-18.9-8.4-28.3
		c-1.1-3.4-0.1-4,3.1-3.9c8.2,0.3,6.4-0.9,8.5,6.6c2.3,8.5,4.4,17,6.6,25.6C182.1,278.3,182.4,278.3,182.6,278.3z"/>
	<path class="st1" d="M215.3,270.9c0-4.7-0.1-9.4,0-14.2c0-2.2-0.7-3.2-3-3c-1.2,0.1-2.5-0.1-3.7,0c-3.7,0.5-4.8-1-4.6-4.6
		c0.2-2.4,1-3.2,3.3-3.2c8.8,0.1,17.6,0.2,26.5,0c3.4-0.1,3,1.9,3.1,4.1c0,2.1,0.2,3.8-3,3.8c-8.1,0.1-8.1,0.2-8.1,8.3
		c0,7.5-0.1,14.9,0,22.4c0.1,2.8-0.6,4-3.7,3.9c-7.9-0.3-6.8,1-6.9-7C215.3,277.8,215.3,274.4,215.3,270.9z"/>
	<path class="st0" d="M167.9,106c0-4.7,0-9.4,0-14.2c0-1.7,0.3-3,2.4-3c5,0.1,9.9-0.6,14.8,0.6c6.2,1.5,9.5,5.5,9.7,12
		c0.1,3.1,0.1,6.2,0,9.3c-0.3,5.8-3.6,9.8-9.1,11.3c-5.1,1.4-10.4,0.8-15.6,0.8c-2.1,0-2.2-1.6-2.2-3.2
		C167.9,115.2,167.9,110.6,167.9,106z"/>
	<path d="M138,259.8c0-0.5-0.1-1,0-1.5c0.3-2.1-1.4-5.3,3.1-5.1c5,0.1,7.1,1.5,7.3,5.4c0.1,3.1,0.2,6.1-3.6,7.2
		C139.3,267.4,138,266.3,138,259.8z"/>
</g>
</svg>
