<?xml version="1.0" encoding="utf-8"?>
<!-- Generator: Adobe Illustrator 25.0.0, SVG Export Plug-In . SVG Version: 6.00 Build 0)  -->
<svg version="1.1" id="Layer_2" xmlns="http://www.w3.org/2000/svg" xmlns:xlink="http://www.w3.org/1999/xlink" x="0px" y="0px"
	 viewBox="0 0 335.9 335.9" style="enable-background:new 0 0 335.9 335.9;" xml:space="preserve">
<style type="text/css">
	.st0{fill:#FFFFFF;}
</style>
<g>
	<rect x="23.7" y="23.7" class="st0" width="288.5" height="288.5"/>
	<g>
		<g>
			<path d="M56.5,137.9c27.3-8.7,58.7,0.1,82.7,43.9c2.2,4.2,4.9,3.2,4.8-1.1c0.5-4.4-0.2-23.1-11.8-39.6c-0.4-0.9,0-1.3,0.7-1.9
				c2.7-2,22.9-6.3,45.5-22.5c1.7-1.2,9.3-4.8,8-15.5c-3.8-26.4-24.8-44.3-30.7-47.9c-5.9-3.6-5.2,2.7-5.1,3.7
				c-1.1,20.4-7.2,50.4-29,70.9c-7.8-2.2-10.6-7.7-10.6-7.7s29.4-38.4,21.8-69.1c-2-8.6-4.4-11.7-14-9.7c-9.6,2-32.5,9.2-32.5,9.2
				s-3.6,1.4-0.8,5c2.8,3.6,16.4,17.3,5.3,55.4c-10-3.4-32.1-7.6-34.3-1.6C54.3,115.3,46.7,137.6,56.5,137.9z"/>
			<path d="M150.7,152.7c-0.3,1.6,1.4,10.8,0,18.5c-2.3,5.7-3,9.2,1.4,12.6c4.4,3.5,37.6,19.1,57.1,40c7.4,7.6,11.2-1.8,5.7-6.2
				c-1.5-1.7-8.6-8-8.4-10.2c0.2-2.2,4.2,2,5.7,3.6c-4.1-8.2,4.8-18.7,14.3-6.8c3.9,3.7,1.2,12.6-2.2,15c3.6-3.6-2.7-12.7-7.7-7.6
				c-2.6,2.5,4.6,8.2,6.2,9.6c1.6,1.4,7.3-3.4,9.3-6.7c1.5-2.1,3.6-3.8,6.7-17.1c1-3.4,2.2-4.7,5.3-7.8c3.1-3.1,47.9-40.6,52.8-56.4
				c2.9-8.2,1.5-11.1-4.7-5.3c-6.2,5.9-40.3,31.5-53.3,35.1c-12.9,3.6-15.2-2.9-13.3-4.5c1.1-1.1,29.9-32.3-2.1-15.5
				c-11.7,4.3-23.1-5.2-25.6-13.7c-5.1-16.2-4.9-19.5-16.5-9.5c-6.2,5.1-17.3,10.6-21.5,12.1c-12.6,3-17.7,17.2-7.4,18.6
				c10.2,1.4,15.8-0.2,13,2.7c-2.8,2.9-6.9,5.6-2.3,8.1c4.7,2.6,13.6,8.9,14.1,9.5c0.5,0.6,4.7,1.1,5.9-1.9c1.2-3,0.2-3.8-0.7-4.3
				c-0.8-0.5,0.1-1.8,2-1.6c2,0.2,6.6-1.6,7.7-2.4c1.1-0.8,14.4-3,17.6,1.6c-3.7,1.1-4.7-1.2-9.9,0.6c-2.8,1.1-9.8,2-13,9.3
				c-2.4,5.5-3.3,16.8-13.3,13.6c-9.9-3.2-20.1-6.2-18.6-16.3C156.9,159.5,156.3,153.1,150.7,152.7z"/>
			<path d="M168.5,160.5c4.8,2.7,6.4,4.4,7,5.1c0.6,0.7,3.9,1,3.6-2.2c-1.4-2.6-6.5-6.1-7.8-6.1C170,157.3,167.4,157.6,168.5,160.5z
				"/>
		</g>
		<g>
			<path d="M71.9,278.7l-9.9-15.9c-1.1,0-2.9-0.1-5.3-0.3v16.1h-5v-37c0.2,0,1.5-0.1,3.9-0.2c2.4-0.1,4.2-0.2,5.3-0.2
				c8.9,0,13.3,3.5,13.3,10.6c0,2.3-0.7,4.4-2.1,6.3c-1.4,1.9-3.1,3-5.1,3.5l10.7,17H71.9z M56.7,246.3v12c1.2,0.2,2.4,0.3,3.5,0.3
				c3,0,5.2-0.5,6.6-1.5c1.4-1,2.1-2.7,2.1-5.2c0-2.1-0.7-3.6-2.2-4.5c-1.5-0.9-3.8-1.4-7-1.4C59.2,246,58.2,246.1,56.7,246.3z"/>
			<path d="M97.8,278.7v-17c0-2-0.5-3.6-1.5-4.8c-1-1.2-2.4-1.7-4.2-1.7c-1.2,0-2.3,0.3-3.5,1c-1.2,0.7-2.1,1.5-2.7,2.4v20.1h-4.8
				v-38.1h4.8v14.1c0.6-1,1.7-1.8,3.1-2.5c1.4-0.7,2.9-1,4.4-1c2.9,0,5.1,0.9,6.7,2.8c1.6,1.9,2.4,4.5,2.4,7.7v17H97.8z"/>
			<path d="M150.5,265.1c0-4.2,1.1-7.5,3.4-10.1c2.2-2.6,5.2-3.8,8.9-3.8c3.9,0,6.9,1.2,9,3.7c2.1,2.5,3.2,5.9,3.2,10.3
				c0,4.4-1.1,7.8-3.3,10.3c-2.2,2.5-5.2,3.8-8.9,3.8c-3.9,0-6.9-1.3-9-3.8C151.6,272.8,150.5,269.4,150.5,265.1z M155.6,265.1
				c0,6.8,2.4,10.2,7.2,10.2c2.2,0,4-0.9,5.3-2.7c1.3-1.8,1.9-4.3,1.9-7.4c0-6.7-2.4-10-7.2-10c-2.2,0-3.9,0.9-5.2,2.7
				C156.2,259.5,155.6,262,155.6,265.1z"/>
			<path d="M200.4,253.8l-2.4,3.4c-0.5-0.5-1.3-0.9-2.6-1.4c-1.2-0.4-2.5-0.7-3.6-0.7c-2.6,0-4.7,0.9-6.2,2.7
				c-1.5,1.8-2.3,4.3-2.3,7.5c0,3.2,0.8,5.6,2.3,7.2c1.6,1.7,3.7,2.5,6.5,2.5c2.2,0,4.3-0.8,6.5-2.5l1.9,4c-2.6,1.7-5.8,2.5-9.6,2.5
				c-3.7,0-6.7-1.2-9.1-3.7c-2.4-2.5-3.6-5.8-3.6-10c0-4.3,1.2-7.8,3.7-10.4c2.5-2.6,5.9-3.9,10.3-3.9c1.4,0,2.9,0.3,4.5,0.9
				C198.4,252.6,199.6,253.2,200.4,253.8z"/>
			<path d="M228.4,265.6h-19.5c0,3.2,0.9,5.6,2.6,7.3c1.5,1.5,3.5,2.2,5.9,2.2c2.7,0,5-0.8,6.9-2.4l2,3.5c-0.7,0.7-1.9,1.4-3.4,1.9
				c-1.9,0.7-4.1,1.1-6.4,1.1c-3.4,0-6.3-1.2-8.7-3.5c-2.6-2.5-4-6-4-10.2c0-4.5,1.4-8,4.1-10.7c2.4-2.4,5.3-3.6,8.6-3.6
				c3.9,0,6.9,1.1,9.1,3.3c2.1,2.1,3.2,4.9,3.2,8.3C228.7,263.8,228.6,264.7,228.4,265.6z M216.7,255.2c-2.1,0-3.9,0.7-5.4,2.1
				c-1.4,1.3-2.2,2.9-2.3,4.9h15c0-1.9-0.6-3.5-1.8-4.8C220.8,255.9,219,255.2,216.7,255.2z"/>
			<path d="M248.5,256.3c-1-0.7-2.1-1.1-3.2-1.1c-1.7,0-3.2,0.8-4.5,2.3c-1.3,1.6-1.9,3.4-1.9,5.7v15.5h-4.8v-27h4.8v4.3
				c1.7-3.2,4.3-4.8,7.8-4.8c0.9,0,2.1,0.2,3.7,0.5L248.5,256.3z"/>
			<path d="M252.1,265.1c0-4.2,1.1-7.5,3.4-10.1c2.2-2.6,5.2-3.8,8.9-3.8c3.9,0,6.9,1.2,9,3.7c2.1,2.5,3.2,5.9,3.2,10.3
				c0,4.4-1.1,7.8-3.3,10.3c-2.2,2.5-5.2,3.8-8.9,3.8c-3.9,0-6.9-1.3-9-3.8C253.2,272.8,252.1,269.4,252.1,265.1z M257.1,265.1
				c0,6.8,2.4,10.2,7.2,10.2c2.2,0,4-0.9,5.3-2.7c1.3-1.8,1.9-4.3,1.9-7.4c0-6.7-2.4-10-7.2-10c-2.2,0-3.9,0.9-5.2,2.7
				C257.8,259.5,257.1,262,257.1,265.1z"/>
			<path d="M279.8,277.1l1.7-4.5c2.7,1.7,4.8,2.6,6.5,2.6c3,0,4.4-1.2,4.4-3.7c0-1.8-1.4-3.3-4.3-4.6c-2.2-1-3.7-1.8-4.5-2.3
				c-0.8-0.5-1.4-1.1-2-1.8c-0.6-0.7-1-1.4-1.3-2.1c-0.3-0.7-0.4-1.6-0.4-2.4c0-2.2,0.8-4,2.4-5.2c1.6-1.2,3.7-1.9,6.3-1.9
				c2,0,4.4,0.6,7.4,1.9l-1.4,4.4c-1.9-1.5-3.8-2.3-5.7-2.3c-1.1,0-2.1,0.3-2.9,0.8c-0.8,0.5-1.2,1.2-1.2,2c0,1.7,1,3,3,3.9l3.4,1.6
				c2.1,1,3.6,2.1,4.6,3.3c1,1.2,1.4,2.8,1.4,4.6c0,2.4-0.8,4.3-2.5,5.7c-1.7,1.4-4.1,2.1-7.1,2.1
				C285,279.2,282.3,278.5,279.8,277.1z"/>
			<g>
				<path d="M114.3,247.4c0.8,0,1.5-0.3,2.1-0.9c0.6-0.6,0.9-1.3,0.9-2.1c0-0.8-0.3-1.5-0.9-2.1c-0.6-0.6-1.3-0.9-2.1-0.9
					c-0.8,0-1.5,0.3-2.1,0.9c-0.6,0.6-0.9,1.3-0.9,2.1c0,0.8,0.3,1.5,0.9,2.1C112.8,247.1,113.5,247.4,114.3,247.4z"/>
				<polygon points="111.7,255.7 111.7,278.7 116.4,278.7 116.4,251.7 111.7,251.7 				"/>
			</g>
			<path d="M136.6,251.1c-3.6,0-6.2,1.3-7.7,4v-3.5h-1.5h-3.3v27h4.8v-20.1c0.6-1,1.6-1.8,2.7-2.4c1.2-0.7,2.3-1,3.4-1
				c2,0,3.5,0.6,4.4,1.7c0.9,1.2,1.3,3.2,1.3,6v15.7h4.8v-16.7C145.5,254.7,142.5,251.1,136.6,251.1z"/>
		</g>
	</g>
</g>
</svg>
