<?xml version="1.0" encoding="utf-8"?>
<!-- Generator: Adobe Illustrator 25.0.0, SVG Export Plug-In . SVG Version: 6.00 Build 0)  -->
<svg version="1.1" id="Layer_1" xmlns="http://www.w3.org/2000/svg" xmlns:xlink="http://www.w3.org/1999/xlink" x="0px" y="0px"
	 viewBox="0 0 368 250" style="enable-background:new 0 0 368 250;" xml:space="preserve">
<style type="text/css">
	.st0{fill:#FDFDFD;}
</style>
<g>
	<path d="M211.9,119.2c-1.5,3-3.2,5.7-5.3,8.1c-1.7,1.9-3.5,3.6-5.2,5.3c-1.7,1.6-3.5,3.1-5.1,4.8c-1.3,1.3-2.6,2.6-3.7,4.2
		c-0.1,0.2-0.5,0.3-0.3,0.6c0.1,0.2,0.4,0.1,0.7,0.1c4.6,0,9.3,0,13.9,0c1.1,0,2.1,0.1,3.2-0.1c0.7-0.2,1.5,0.1,2.2,0.3
		c1.1,0.3,1.3,1.3,1.4,2.1c0.1,1.9,0.1,3.8-0.3,5.7c-0.4,1.8-1.2,2.3-2.9,2.4c-12.8,0.4-25.6,0.1-38.5,0.2c-0.2,0-0.4,0-0.5,0
		c-1.3-0.3-1.4-0.6-0.6-1.7c2.2-3,4.6-5.8,7-8.7c2-2.3,4-4.5,6-6.7c4.6-5.3,9.6-10.3,14.6-15.3c2.4-2.4,3.8-5.3,3.7-8.7
		c-0.1-4.2-2.4-6.7-6.9-6.9c-2.3-0.1-4.2,0.6-5.7,2.4c-0.9,1.1-1.3,2.4-1.6,3.8c-0.5,2.3-1.5,2.9-3.8,2.6c-1.1-0.1-2.3,0-3.4,0
		c-1.1,0-2.2-0.1-3.2-0.4c-1.2-0.3-1.6-0.9-1.3-2.1c0.7-3.3,1.8-6.4,3.8-9.1c2-2.7,4.7-4.5,7.9-5.5c2.9-0.9,5.9-1.2,8.9-1.1
		c4.2,0.1,8,1.2,11.3,3.9c3,2.6,4.9,5.7,5.4,9.6c0.2,1.2,0,2.3,0.2,3.6c0.7-0.8,1-1.7,1.4-2.4c1.6-2.7,3.4-5.2,5.6-7.4
		c3.9-3.7,8.5-6.2,13.9-7.3c2.8-0.6,5.6-0.7,8.4-0.4c4.3,0.3,8.2,1.7,11.9,3.9c2,1.2,3.7,2.7,5.4,4.2c0.9,0.9,1.7,2,2.6,2.9
		c0.9,1,1.6,1,2.6,0.1c0.8-0.8,1.5-1.6,2.2-2.4c4.1-4,8.9-6.8,14.5-8.1c1.5-0.4,3-0.5,4.6-0.6c3.5-0.2,7,0.2,10.4,1.3
		c2.7,0.9,5.2,2.1,7.6,3.8c1.9,1.3,3.5,2.9,5.1,4.5c0.7,0.7,1.2,1.7,2,2.3c0.6,0.4,1.1,0.3,1.5-0.1c0.6-0.6,1.1-1.3,1.6-2
		c2.3-2.9,5.1-5.1,8.4-6.7c2.7-1.3,5.5-2.3,8.5-2.7c1.7-0.2,3.5-0.4,5.2-0.3c3.7,0.2,7.2,0.9,10.6,2.5c3.2,1.5,6.1,3.3,8.7,5.7
		c4.1,3.7,6.7,8.2,7.8,13.6c0.5,2.6,0.8,5.2,0.7,7.8c-0.2,4.3-0.8,8.5-2.8,12.4c-1.7,3.2-3.9,6-6.7,8.3c-3,2.5-6.3,4.4-10,5.6
		c-2.1,0.7-4.2,1-6.3,1.2c-4.1,0.4-8.2,0-12.1-1.3c-3.6-1.2-6.8-3.2-9.5-5.9c-1.1-1.1-2.3-2.2-3.2-3.5c-1.1-1.5-2-1.4-3.3,0.2
		c-2.2,2.7-4.8,5.1-7.8,6.9c-2.9,1.7-5.9,2.9-9.2,3.5c-2.8,0.5-5.6,0.5-8.4,0.3c-3.5-0.3-6.8-1.4-9.9-3c-4-2.1-7.3-5-10-8.6
		c-0.6-0.9-1-0.9-1.7-0.2c-1.2,1.1-2.1,2.5-3.3,3.7c-3.1,3.1-6.7,5.3-10.8,6.7c-2,0.7-4.1,1.1-6.3,1.4c-5.9,0.6-11.4-0.5-16.5-3.3
		c-1.9-1-3.6-2.3-5.2-3.7c-2.6-2.3-4.7-5-6.3-8c-1.3-2.5-2.2-5.2-2.7-8C211.8,125.6,211.9,122.5,211.9,119.2z"/>
	<path d="M111.5,124.9c0,7.6,0,15.1,0,22.7c0,0.8,0.1,1.5,0,2.3c-0.1,1.2-0.8,1.9-2,1.9c-1.3,0-2.6,0-3.9-0.2
		c-1.9-0.2-3.8,0.1-5.8,0.2c-2.8,0.1-3.1-1.9-3-3.8c0-0.3,0.1-0.7,0.1-1c0-4.5,0-8.9,0-13.4c0-1.5-0.8-2.3-2.3-2.3
		c-2.8,0-5.6,0-8.4,0c-0.3,0-0.7,0-1,0.1c-1.4,0.4-2.5-0.4-2.6-1.8c0-1.9-0.3-3.7-0.2-5.6c0.1-0.9,0.2-1.9,0.6-2.7
		c0.6-1.2,1.8-1.5,2.9-1.6c2.4-0.3,4.7-0.2,7.1-0.2c0.7,0,1.5-0.2,2.2-0.2c1-0.1,1.6-1.1,1.6-2.4c0-3.8,0.1-7.6,0-11.3
		c-0.1-2.7-1-5.2-2.9-7.2c-1.5-1.6-3.4-2.6-5.6-3.1c-2.4-0.5-4.9-0.6-7.3,0.3c-3.8,1.3-6.1,4-6.9,8c-0.1,0.6-0.2,1.2-0.2,1.7
		c0,4.1,0.2,8.2,0,12.3c-0.2,5.2-0.2,10.5-0.1,15.7c0.1,4.9,0,9.8,0.1,14.7c0,0.7-0.1,1.3-0.5,1.9c-0.6,1-1.6,1-2.6,0.9
		c-1.8,0-3.7-0.3-5.5-0.2c-1.4,0.1-2.8,0.1-4.3,0.1c-1.2,0-1.8-0.6-1.9-1.8c0-0.1,0-0.3,0-0.4c0-15,0-30.1,0-45.1
		c0-4.8,1.6-9.2,4.8-13c2.5-3,5.6-5.3,9.1-7.1c2.6-1.3,5.4-2.1,8.3-2.5C87,80.1,92.1,80.9,97,83c3.6,1.6,6.7,3.9,9.3,6.8
		c2.6,3,4.3,6.4,5,10.3c0.1,0.7,0.2,1.5,0.2,2.3C111.5,109.9,111.5,117.4,111.5,124.9z"/>
	<path d="M119,127.1c0-7.4,0-14.9,0-22.3c0-2.5,0.3-5,0.1-7.5c-0.3-4.1-0.1-8.2-0.1-12.3c0-2.7,1.1-3,3.2-3.2c1-0.1,1.9,0.2,2.9,0.2
		c9.5,0,19-0.1,28.6,0c3.9,0,7.3,1.4,10.3,3.9c2.9,2.4,4.5,5.7,5.9,9.1c0.9,2.3,1.6,4.6,1.9,7c0.3,2.2,0.3,4.5,0.1,6.7
		c-0.3,3.3-1.3,6.4-2.9,9.3c-1.9,3.5-4.3,6.7-8.2,8.4c-1.8,0.8-3.7,1.3-5.7,1.4c-6.4,0-12.9,0-19.3,0c-1.9,0-2.3,0.7-2.3,2.3
		c-0.1,3.3,0.3,6.6,0.1,9.9c-0.1,1.5-0.3,3-0.1,4.4c0.2,1.8,0.1,3.6,0.1,5.4c0,1.7-0.7,2.4-2.5,2.4c-1.8,0-3.7-0.2-5.5-0.2
		c-1.3,0-2.7,0.2-4,0.2c-1.9,0.1-2.7-0.5-2.7-2.8c0-6.1,0-12.2,0-18.3C119,129.9,119,128.5,119,127.1z"/>
	<path d="M4.2,144.8c0-1.6,0-2.9,0-4.3c0-2.1,0.8-3,2.9-3.4c2.2-0.4,4.4-0.5,6.6-1.1c1.9-0.5,3.7-1.2,5.2-2.5c1.7-1.5,2.5-3.4,3-5.5
		c0.5-2.3,0.6-4.6,0.8-7c0.2-3.3,0.5-6.6,0.7-9.9c0.1-2.1,0.2-4.3,0.5-6.4c0.7-5.2,2.5-10.1,6-14.2c2.2-2.6,4.8-4.5,7.7-6
		c2.9-1.4,6.1-2.4,9.3-2.7c1.8-0.2,3.7-0.5,5.5-0.5c2.2,0,2.7,1,2.8,2.8c0.1,1.5,0.1,3,0.1,4.6c-0.1,1.8,0.2,3.7,0.3,5.5
		c0,0.6-0.1,1.2-0.3,1.8c-0.6,1.7-1.6,2-3.8,1.8c-1.2-0.1-2.4-0.1-3.5,0.2c-1.9,0.6-3.8,1.3-5.2,2.7c-1.6,1.5-2.3,3.4-2.6,5.5
		c-0.4,2.8-0.5,5.7-0.8,8.5c-0.2,2.3-0.3,4.6-0.5,6.9c-0.2,2.6-0.2,5.3-0.7,7.9c-0.8,4.9-2.5,9.4-5.7,13.3
		c-3.8,4.7-8.9,7.4-14.7,8.8c-2.5,0.6-5.1,1-7.7,1.3c-0.9,0.1-1.7,0.2-2.6,0.1c-2.4,0-2.8-1.1-3.1-3C4,148.3,4.2,146.4,4.2,144.8z"
		/>
	<path class="st0" d="M336.2,104.9c9.9-0.3,18.8,8.3,18.5,18.7c-0.3,10.4-8,18.7-19.9,18.4c-8.4-0.2-18-8.5-17.1-20.2
		C318.4,113.2,325.8,104.6,336.2,104.9z"/>
	<path class="st0" d="M269.7,123.1c0-10.2,8.2-18.5,18.7-18.4c10.2,0.1,18.4,8.1,18.4,18.3c0,10.7-7.9,18.8-18.6,18.8
		C277.8,141.8,269.7,133.7,269.7,123.1z"/>
	<path class="st0" d="M221.9,123.3c-0.3-10,8.2-18.9,19.4-18.4c9.7,0.5,17.5,8.1,17.5,18.6c0,9.7-8.1,18.7-19.8,18.1
		C230.1,141.2,221.7,133.6,221.9,123.3z"/>
	<path class="st0" d="M143.8,96.3c2.9,0,5.7,0,8.6,0c1.6,0,2.7,0.7,3.4,2c1.1,2.1,1.8,4.3,1.8,6.7c0,1.6,0.1,3.3-0.4,4.9
		c-0.5,2.1-1.8,3.2-3.9,3.5c-1.1,0.2-2.1,0.1-3.2,0.1c-5,0-10,0-15,0c-1.3,0-1.6-0.4-1.8-1.7c-0.1-0.5-0.1-1.1,0-1.6
		c0.4-3.2,0.1-6.5,0.1-9.7c0-1-0.3-2.1,0-3.1c0.2-0.8,0.6-1.2,1.5-1.2C137.9,96.3,140.9,96.3,143.8,96.3z"/>
</g>
</svg>
