<?xml version="1.0" encoding="utf-8"?>
<!-- Generator: Adobe Illustrator 25.0.0, SVG Export Plug-In . SVG Version: 6.00 Build 0)  -->
<svg version="1.1" id="Layer_1" xmlns="http://www.w3.org/2000/svg" xmlns:xlink="http://www.w3.org/1999/xlink" x="0px" y="0px"
	 viewBox="0 0 583 250" style="enable-background:new 0 0 583 250;" xml:space="preserve">
<style type="text/css">
	.st0{fill:#FFFFFF;}
</style>
<g>
	<path d="M31.2,35.8c29.6,0,59.2,0,88.9,0c-0.3,2.7-1.2,5.2-1.9,7.7c-1.4,5.3-2.9,10.7-4.3,16c-1.7,6.3-3.4,12.6-5.1,18.9
		c-0.9,3.5-1.9,7-2.8,10.6c-0.3,1-0.7,1.5-1.9,1.5c-10.6-0.1-21.3,0-31.9,0c-0.9,0-1.3,0.1-1-1.2C73,82.1,75,75,76.9,67.9
		c0.3-1.1,0.5-2.3,0.9-3.4c0.4-1.1-0.1-1.6-0.8-2c-2.7-1.6-5.5-3.1-8.2-4.7c-3.8-2.2-7.7-4.4-11.5-6.7c-3.9-2.3-7.8-4.5-11.7-6.8
		c-3.8-2.2-7.7-4.4-11.5-6.7c-1-0.6-1.9-1.1-2.9-1.7C31.2,35.9,31.2,35.9,31.2,35.8z"/>
	<path d="M19.1,40.6c4,2.3,7.7,4.5,11.5,6.6c3.3,1.9,6.7,3.8,10,5.8c3.8,2.2,7.7,4.4,11.5,6.6c3.5,2,7,4,10.5,6.1
		c1,0.6,2.1,1,2.9,1.8c0.6,0.6,0.8,1.1,0.5,2C64.3,76,62.7,82.5,61,88.9c-0.2,0.9-0.8,1.5-1.9,1.5c-17.4,0-34.8,0-52.2,0
		c-0.9,0-1.1-0.1-0.9-1.1c1.6-5.8,3.1-11.5,4.7-17.3c1.4-5.3,2.8-10.6,4.2-15.9C16.3,51,17.7,45.9,19.1,40.6z"/>
	<path d="M293.6,114.3c-3.8,0.2-7.5-0.1-11.2,0.1c-1.2,0.1-1.7-0.9-2.2-1.7c-2.6-4.7-5.2-9.4-7.8-14.1c-1.2-2.1-2.4-4.2-3.5-6.3
		c-0.3-0.6-0.6-0.6-1-0.1c-2.2,2.4-4.5,4.8-6.6,7.2c-0.6,0.7-0.8,1.7-0.8,2.6c0,3.8,0,7.5,0,11.3c0,0.9-0.3,1.1-1.1,1.1
		c-3.1-0.1-6.2-0.1-9.2,0c-1,0-1.2-0.3-1.2-1.2c0-13.4,0-26.8,0-40.2c0-9,0-18,0-27c0-1,0.3-1.3,1.3-1.2c3,0.1,6.1,0.1,9.1,0
		c1,0,1.2,0.3,1.2,1.2c0,12.8,0,25.6,0,38.4c0,0.4,0,0.8,0,1.6c3-3.5,5.8-6.8,8.6-10c1.8-2.1,3.7-4.1,5.5-6.2c1.3-1.5,2.5-3,3.8-4.4
		c0.6-0.7,1.3-1,2.2-1c3.6,0,7.1,0,10.7,0c0.3,0,0.7-0.1,0.9,0.3c0.1,0.3-0.2,0.5-0.4,0.7c-2.5,2.9-5.1,5.7-7.7,8.6
		c-2.4,2.7-4.8,5.5-7.2,8.2c-0.6,0.6-0.4,1.2-0.1,1.8c1.6,3,3.3,5.9,4.9,8.9c1.7,3,3.4,5.9,5.1,8.9c2.1,3.8,4.2,7.7,6.4,11.6
		C293.2,113.5,293.4,113.8,293.6,114.3z"/>
	<path d="M351.5,108.6c-3.9,3.6-8.2,5.7-13.2,6.2c-3.8,0.4-7.7,0.7-11.4-0.7c-4.2-1.6-6.9-4.5-7.6-9.1c-0.6-4.3,0-8.3,2.6-11.9
		c1.6-2.1,3.6-3.8,5.9-5.1c5-2.9,10.5-4.4,16.2-5.3c2.2-0.4,4.4-0.8,6.6-1c0.7,0,1-0.4,1-1.1c-0.1-4.1-1.7-7-6.6-7.3
		c-6.4-0.4-11.7,2-16.7,5.5c-2,1.4-1.4,1.6-3.1-0.6c-1.3-1.6-2.5-3.2-3.8-4.8c-0.5-0.6-0.5-1,0.1-1.5c2.5-2.2,5.3-4,8.4-5.3
		c3-1.3,6.1-2.3,9.3-2.8c3.1-0.5,6.1-0.5,9.2-0.2c1.3,0.1,2.5,0.3,3.7,0.5c5.9,1.3,9.6,5.4,10.5,11.3c0.3,2.1,0.5,4.2,0.5,6.4
		c0,6.3,0,12.5,0,18.8c0,4,0.3,8.1,0.9,12c0.2,1.4,0.1,1.5-1.4,1.5c-2.9,0-5.8,0-8.8,0c-1,0-1.5-0.3-1.6-1.4
		C352.2,111.6,351.8,110.2,351.5,108.6z"/>
	<path d="M223.7,93.3c-5.3,0-10.5,0-15.8,0c-0.9,0-1.2,0.3-1.1,1.1c0.5,5.6,4,10.6,10.5,11.4c4,0.5,7.9,0.1,11.5-1.8
		c1.7-0.9,3.2-2.2,4.6-3.4c0.4-0.3,0.6-0.4,1,0c1.6,1.8,3.3,3.6,4.9,5.5c0.5,0.6,0.3,1.1-0.2,1.6c-3.8,3.8-8.4,6-13.6,7.2
		c-6.8,1.5-13.2,0.6-19.4-2.5c-4.3-2.2-7.2-5.8-8.9-10.2c-1.4-3.5-2.2-7.1-2.5-11c-0.3-4.9,0.6-9.6,2.6-14.1
		c1.2-2.9,2.9-5.5,5.2-7.7c3-2.8,6.6-4.5,10.6-5.3c2.1-0.5,4.3-0.7,6.5-0.7c6.1,0.1,11.4,2.3,15.4,7c2.5,2.9,3.9,6.3,4.6,10
		c0.7,3.8,0.9,7.7,1,11.6c0,1-0.2,1.4-1.3,1.4C234.1,93.2,228.9,93.3,223.7,93.3z"/>
	<path d="M178.8,85.3c0,9.2,0,18.5,0,27.7c0,1.3-0.4,1.5-1.5,1.5c-3.1-0.1-6.2-0.1-9.2,0c-1.1,0-1.3-0.3-1.3-1.3
		c0-18.6,0-37.1,0.1-55.7c0-1.2-0.3-1.5-1.5-1.5c-6.2,0.1-12.5,0-18.7,0.1c-0.9,0-1.2-0.2-1.2-1.2c0.1-3,0-5.9,0-8.9
		c0-0.7,0.2-1,1-1c17.6,0,35.2,0,52.8,0c0.8,0,1,0.3,1,1c0,2.8,0,5.7,0,8.5c0,1.1-0.4,1.5-1.5,1.5c-6.2,0-12.4,0-18.6,0
		c-1,0-1.3,0.2-1.3,1.2C178.8,66.5,178.8,75.9,178.8,85.3z"/>
	<path d="M173.9,215.8c-6.8-0.1-12.9-2.2-18.3-6.5c-3.8-3-5.8-7.2-7.3-11.6c-0.2-0.5-0.1-0.8,0.4-1c1.6-0.6,3.1-1.2,4.7-1.8
		c0.6-0.2,0.9,0,1.1,0.7c1.1,3.1,2.7,6,5.1,8.3c2.5,2.5,5.5,4.2,9,4.9c5.5,1,10.9,0.8,16-1.6c3.6-1.7,5.8-4.6,6.4-8.6
		c0.7-4.1-0.6-7.6-3.6-10.3c-2.1-1.9-4.9-3-7.5-4.1c-6-2.3-12.1-4.5-18-6.8c-3.7-1.5-7.1-3.5-9.3-7c-1.2-2-1.9-4.3-2.1-6.6
		c-0.3-3.3,0-6.6,1.5-9.6c2.7-5.3,7.2-8.3,12.8-9.9c3.1-0.9,6.3-1.2,9.5-0.9c6.8,0.5,12.9,2.8,17.5,8.1c1.9,2.2,3.1,4.7,4.2,7.3
		c0.1,0.3,0.3,0.8-0.3,1c-1.5,0.6-3,1.3-4.5,2c-0.6,0.3-0.8,0.3-1.2-0.4c-0.9-1.8-1.7-3.6-2.9-5.1c-2.3-3-5.2-4.9-8.8-5.9
		c-5.2-1.4-10.3-1.3-15.1,1.1c-3.9,2-6.2,5.3-6.1,9.8c0.1,3.9,1.8,7,5.5,8.8c5.5,2.8,11.3,4.8,17.2,6.7c4.2,1.4,8.4,3.1,12,5.9
		c3.1,2.3,5,5.3,5.8,9c0.7,3.2,0.8,6.5-0.2,9.7c-1,3.5-2.9,6.5-5.9,8.6c-4.2,2.9-8.9,4.8-14,5.4c-0.6,0.1-1.2,0.3-1.9,0.2
		C175.1,215.7,174.5,215.8,173.9,215.8z"/>
	<path d="M512.5,190.8c-5.5,0-11,0-16.4,0c-1,0-1.3,0.4-1.2,1.3c0.4,3.2,0.8,6.3,2.3,9.2c2.3,4.5,5.8,7.4,10.9,8.2
		c4.8,0.7,9.2-0.5,13-3.6c1.5-1.2,2.6-2.6,3.7-4.1c0.8-1.1,1-1.1,2.1-0.2c0.8,0.7,1.6,1.3,2.4,1.9c0.7,0.5,0.5,0.8,0.1,1.3
		c-3.4,5.5-8.1,9-14.6,10.1c-4.1,0.7-8.2,0.8-12.1-0.7c-4.9-1.9-8.5-5.1-11.1-9.6c-1.9-3.4-2.7-7.1-3.2-11
		c-0.6-5.8-0.1-11.5,2.2-16.9c1.8-4.2,4.6-7.4,8.4-9.8c3.2-2.1,6.7-3.1,10.5-3.2c5-0.1,9.6,1.3,13.4,4.9c3.8,3.6,5.7,8.1,6.6,13
		c0.5,2.7,0.8,5.4,0.7,8.1c0,0.9-0.3,1.2-1.2,1.2C523.5,190.8,518,190.8,512.5,190.8z"/>
	<path d="M299.7,79.6c0-11.2,0-22.4,0-33.5c0-1,0.2-1.3,1.2-1.3c3.1,0.1,6.2,0.1,9.3,0c1,0,1.2,0.3,1.2,1.3c0,22.4,0,44.7,0,67.1
		c0,0.9-0.2,1.2-1.2,1.2c-3.2-0.1-6.3-0.1-9.5,0c-1,0-1.2-0.3-1.2-1.2C299.7,102,299.7,90.8,299.7,79.6z"/>
	<path d="M307.3,206.9c-2.9,2.5-5.7,4.8-9.1,6.3c-2.8,1.3-5.8,2.1-8.9,2.1c-2.1,0-4.3,0.2-6.4-0.5c-4.8-1.5-8.1-4.6-9.1-9.7
		c-0.2-1-0.2-2-0.2-3.1c0-5.5-0.1-11.1-0.2-16.6c-0.1-6.6,0.3-13.1,0.2-19.7c0-0.8,0.3-1,1-1c1.4,0,2.9,0.1,4.3,0
		c1-0.1,1.2,0.3,1.2,1.2c0,10.6,0,21.2,0,31.7c0,2,0.2,4.1,0.7,6.1c0.7,2.8,3.2,5.1,6,5.6c5.7,1,10.7-0.8,15.3-4.2
		c1.1-0.8,2.3-1.7,3.3-2.6c1.3-1.1,1.7-2.6,1.7-4.2c0-10.8,0-21.6,0-32.3c0-1,0.2-1.3,1.2-1.3c1.4,0.1,2.9,0.1,4.3,0
		c1-0.1,1.2,0.3,1.2,1.3c0,15.4,0,30.8,0,46.1c0,0.4,0,0.8,0,1.2c0.1,0.9-0.2,1.1-1.1,1.1c-1.6-0.1-3.2,0-4.8,0
		c-0.7,0-0.9-0.2-0.9-0.9C307.4,211.4,307.3,209.2,307.3,206.9z"/>
	<path d="M439,206.8c-2.7,2.5-5.3,4.5-8.3,6c-5.4,2.7-11.1,3.4-16.9,1.7c-4.4-1.3-7.1-4.5-8.2-9c-0.3-1.4-0.5-2.9-0.5-4.3
		c0-11.7,0-23.3,0-35c0-1.2,0.3-1.6,1.6-1.5c1.4,0.1,2.9,0.1,4.3,0c0.7,0,0.9,0.2,0.9,0.9c0,1.9,0,3.8,0,5.6c0,9.4,0,18.8,0,28.2
		c0,2,0.3,4,1.2,5.8c1.1,2.4,3.1,3.6,5.6,4.1c5.4,1,10.2-0.7,14.6-3.7c1.7-1.1,3.2-2.4,4.7-3.8c1-0.9,1.1-2.2,1.1-3.5
		c0-10.7,0-21.4,0-32.1c0-1.2,0.3-1.6,1.5-1.5c1.3,0.1,2.7,0.1,4.1,0c0.7,0,1,0.2,0.9,0.9c0,2.7,0,5.4,0,8c0,13.1,0,26.3,0,39.4
		c0,1-0.2,1.3-1.2,1.3c-1.4-0.1-2.8-0.1-4.2,0c-0.8,0-1.1-0.2-1.1-1C439.1,211.2,439,209.2,439,206.8z"/>
	<path d="M536.3,206.8c1.2-1.6,3-2.6,4.3-4.1c0.5-0.6,0.8-0.1,1,0.2c1.2,1.3,2.4,2.6,3.9,3.6c4.2,2.7,8.8,3.7,13.8,2.9
		c1.6-0.3,3.2-0.6,4.8-1.1c3.1-1,5.1-3.8,4.9-7.3c-0.1-3.3-1.7-5.5-5-6.7c-4.8-1.7-9.6-3.1-14.4-4.7c-2.7-0.9-5.5-1.8-7.8-3.8
		c-1.6-1.4-2.7-3.2-3.2-5.2c-0.7-3-0.6-6.1,0.8-9c1.6-3.3,4.3-5.4,7.7-6.4c7.9-2.4,15.5-1.7,22.6,2.6c1.2,0.8,2.4,1.7,3.4,2.8
		c0.4,0.4,0.4,0.6,0,1.1c-1.1,1.3-2.2,2.7-3.3,4c-2.8-2.6-5.9-4.8-9.7-5.6c-4-0.9-8-1-11.8,0.9c-3.7,1.8-4.7,6.2-2.4,9.5
		c0.9,1.3,2.2,1.9,3.6,2.4c4.6,1.8,9.4,3,14.1,4.6c2.1,0.7,4.3,1.3,6.2,2.6c3.3,2.1,5.2,5,5.6,8.8c0.3,3.4,0.1,6.9-2.1,9.9
		c-1.6,2.1-3.6,3.6-6,4.6c-4.5,1.8-9.2,2.5-14,2.1c-3.3-0.3-6.4-1.3-9.4-2.9C541.2,210.9,538.7,208.9,536.3,206.8z"/>
	<path d="M323.9,190.1c-0.1-4.5,0.4-8.5,1.8-12.3c2.7-7.1,7.7-11.7,15.1-13.6c5.2-1.3,10.2-0.8,14.9,1.7c3.3,1.7,5.6,4.5,7.6,7.6
		c0.6,0.9,1.1,1.9,1.5,2.9c0.3,0.6,0.2,1.1-0.5,1.4c-1.3,0.5-2.6,1.1-3.9,1.7c-0.7,0.3-1,0.2-1.4-0.5c-0.9-1.8-1.8-3.5-3.1-5.1
		c-1.9-2.3-4.2-3.7-7-4.2c-4.2-0.8-8.1-0.1-11.7,2.5c-2.2,1.6-3.7,3.8-4.6,6.3c-1.5,3.9-2.5,7.9-2.2,12.1c0.4,5.7,1.8,11.2,6.2,15.3
		c3,2.8,6.6,4.1,10.8,3.5c4-0.5,6.9-2.5,9.2-5.6c1-1.4,2.2-2.8,2.8-4.5c0.2-0.5,0.4-0.5,0.9-0.3c1.4,0.7,2.8,1.3,4.2,1.9
		c0.5,0.2,0.7,0.3,0.4,0.9c-2.3,4.9-5.3,9.1-10.4,11.5c-2.3,1.1-4.6,1.6-7.1,1.9c-3.8,0.4-7.3-0.3-10.7-1.8
		c-3.8-1.7-6.7-4.4-8.8-7.9c-2.2-3.6-3.3-7.4-3.9-11.5C323.9,192.6,324,191.1,323.9,190.1z"/>
	<path d="M211.1,189.1c0-6.7,0-12.1,0-17.5c0-0.9-0.2-1.2-1.1-1.1c-2.2,0.1-4.3,0-6.5,0c-0.8,0-1.1-0.2-1.1-1c0.1-1.2,0.1-2.5,0-3.7
		c-0.1-0.9,0.3-1.1,1.1-1c2.1,0,4.2,0,6.4,0c1,0,1.2-0.3,1.2-1.3c0-5.1,0-10.2,0-15.3c0-1,0.3-1.2,1.2-1.2c1.5,0.1,3,0.1,4.6,0
		c0.8,0,1,0.2,1,1c0,5.2,0,10.4,0,15.6c0,0.9,0.2,1.2,1.2,1.2c3.5-0.1,7,0,10.5,0c0.8,0,1.1,0.2,1,1c-0.1,1.2-0.1,2.3,0,3.5
		c0.1,1-0.3,1.1-1.2,1.1c-3.5,0-7,0-10.4,0c-0.9,0-1.2,0.2-1.2,1.1c0,10.1,0,20.2,0.1,30.3c0,2.3,0.2,4.6,2.2,6.2
		c0.9,0.7,1.9,1.1,3,1.2c2.3,0.3,4.5,0.1,6.7,0c0.7,0,1,0.2,1,0.9c-0.1,1.3,0,2.6,0,3.8c0,0.5-0.2,0.7-0.7,0.8
		c-2.5,0.4-5.1,0.6-7.6,0.4c-2.7-0.2-5.3-0.6-7.6-2.2c-2.3-1.6-3.3-3.9-3.5-6.5C210.8,200.2,211.4,194,211.1,189.1z"/>
	<path d="M377.9,189.6c0-6.8,0-12.4,0-18c0-0.9-0.2-1.2-1.1-1.2c-2.2,0.1-4.3,0-6.5,0c-0.8,0-1.1-0.2-1.1-1c0.1-1.2,0.1-2.5,0-3.7
		c-0.1-0.9,0.3-1.1,1.1-1c2.1,0,4.2,0,6.4,0c1,0,1.2-0.3,1.2-1.3c0-5.1,0-10.2,0-15.3c0-1,0.3-1.2,1.2-1.2c1.5,0.1,3,0.1,4.6,0
		c0.8,0,1,0.2,1,1c0,5.2,0,10.4,0,15.6c0,0.9,0.2,1.2,1.2,1.2c3.5-0.1,7,0,10.6,0c0.8,0,1.1,0.2,1,1c-0.1,1.2-0.1,2.3,0,3.5
		c0,0.8-0.2,1.1-1.1,1.1c-3.5,0-7,0-10.6,0c-0.9,0-1.2,0.2-1.1,1.1c0,10.4,0,20.8,0.1,31.3c0,2.2,0.5,4.4,2.7,5.7
		c0.8,0.5,1.6,0.6,2.5,0.8c2.1,0.4,4.3,0.1,6.4,0c0.8,0,1.1,0.2,1.1,1c-0.1,1.2,0,2.5,0,3.7c0,0.5-0.1,0.7-0.7,0.8
		c-2.4,0.4-4.8,0.6-7.2,0.4c-3.1-0.2-6.2-0.7-8.6-2.9c-1.5-1.4-2.4-3.2-2.6-5.3C377.5,200.7,378.1,194.5,377.9,189.6z"/>
	<path d="M13.9,100.7c0.4,0,0.8,0,1.2,0c13.9,0,27.8,0,41.7,0c1,0,1.5,0,1.1,1.3c-1.8,6.7-3.6,13.5-5.3,20.2
		c-0.2,0.7-0.5,0.8-1.1,0.5c-3.4-2-6.8-3.9-10.2-5.9c-3.5-2-7-4-10.5-6c-4.2-2.4-8.5-4.9-12.7-7.4c-1.4-0.8-2.8-1.6-4.1-2.4
		C13.9,100.9,13.9,100.8,13.9,100.7z"/>
	<path d="M464.7,173.5c2-2.4,3.9-4.6,6.4-6.2c2.8-1.9,5.9-2.9,9.2-3.4c1.5-0.2,2.9-0.1,4.4-0.2c0.8-0.1,1,0.2,0.9,0.9
		c-0.2,1.4-0.3,2.9-0.5,4.3c-0.1,0.8-0.9,0.6-1.5,0.7c-2.3,0.2-4.6,0.5-6.8,1.2c-4.7,1.5-8,4.7-10.6,8.8c-1.1,1.7-1.4,3.4-1.4,5.4
		c0.1,9.3,0,18.7,0.1,28c0,1-0.2,1.4-1.2,1.3c-1.3-0.1-2.6-0.1-4,0c-1.2,0.1-1.6-0.2-1.6-1.5c0.1-13.7,0-27.4,0-41.1c0-2,0-4,0-6
		c0-0.7,0.1-1.1,1-1c1.6,0.1,3.2,0.1,4.8,0c0.8,0,1,0.3,1,1C464.7,168.2,464.7,170.8,464.7,173.5z"/>
	<path d="M245.7,173.6c2.3-2.8,4.6-5.1,7.4-6.9c2.4-1.4,4.9-2.2,7.6-2.7c1.7-0.3,3.3-0.2,5-0.2c0.8,0,1,0.4,0.9,1
		c-0.2,1.4-0.5,2.7-0.5,4.1c0,0.5-0.2,0.6-0.7,0.7c-2.6,0.4-5.2,0.6-7.7,1.4c-4.6,1.5-7.9,4.5-10.5,8.5c-1.2,1.8-1.5,3.7-1.5,5.8
		c0.1,9.3,0,18.6,0.1,27.9c0,0.9-0.2,1.2-1.2,1.2c-1.6-0.1-3.2,0-4.8,0c-0.6,0-0.8-0.2-0.8-0.7c0-0.2,0-0.4,0-0.6
		c0-15.7,0-31.3,0-47c0-1,0.2-1.5,1.3-1.3c0.1,0,0.2,0,0.4,0c1.7,0.1,3.3-0.2,5,0.1c0.2,1.6,0.1,3.3,0.1,4.9
		C245.7,170.9,245.7,172.1,245.7,173.6z"/>
	<path d="M378.2,114.4c-5.2,0.1-7.9-3.7-8-7.8c-0.1-4.5,3.4-8.3,8.4-8.1c4.2,0.2,7.6,3.4,7.6,8.1
		C386.3,111.2,382.7,114.6,378.2,114.4z"/>
	<path class="st0" d="M352,94.8c0,1-0.1,2.1,0,3.1c0.3,2.3-0.9,3.8-2.7,4.9c-3.8,2.4-7.9,3.9-12.5,3.5c-4-0.3-6.5-2.3-6.3-6.3
		c0.1-2.6,1.7-4.3,3.8-5.8c2.2-1.5,4.8-1.9,7.3-2.6c3.1-0.8,6.3-1.4,9.4-2.1c0.7-0.2,1.1,0,1.1,0.9C351.9,91.8,352,93.3,352,94.8z"
		/>
	<path class="st0" d="M218.4,84.6c-3.5,0-7,0-10.5,0c-0.8,0-1.1-0.2-1.1-1c0.1-3.3,1.6-5.8,4-7.9c2.3-2.1,5-3,7.9-3
		c5.4,0,9.4,2.4,10.9,8.4c0.1,0.6,0.2,1.2,0.3,1.7c0.2,1.8,0.3,1.8-1.5,1.8C225.1,84.6,221.7,84.6,218.4,84.6z"/>
	<path class="st0" d="M494.8,185.5c0.4-3.1,1-6.2,2.6-8.9c2.4-4,5.7-6.7,10.5-7.4c3.3-0.5,6.2,0.1,9,1.8c2.4,1.4,3.9,3.6,5.1,6.1
		c1.2,2.5,1.5,5.2,2,7.9c0.1,0.3,0,0.5-0.4,0.5c-0.2,0-0.4,0-0.6,0c-9.1,0-18.1,0-27.2,0C495.4,185.6,495.1,185.5,494.8,185.5z"/>
	<path class="st0" d="M378.3,113.4c-3.9,0.2-7.1-3.1-7-6.6c0-4.2,2.9-7.3,7.1-7.3c3.8,0,6.8,3.2,6.9,7.1
		C385.3,110.2,381.8,113.8,378.3,113.4z"/>
	<path d="M375.5,106.3c0-1.2,0-2.5,0-3.7c0-0.5,0.1-0.8,0.6-0.7c1.2,0.1,2.4-0.1,3.5,0.2c0.9,0.2,1.6,0.6,1.8,1.5
		c0.2,1,0.3,2.2-0.7,2.8c-0.9,0.6-0.7,1.1-0.3,1.9c0.4,0.6,0.7,1.2,1,1.9c0.1,0.3,0.3,0.5,0,0.7c-0.2,0.2-0.4,0-0.6,0
		c-1.1-0.3-1.4-1.4-1.9-2.2c-0.3-0.6-0.4-1.4-1.4-1.4c-0.5,0-0.9,0-0.9,0.8c0.1,0.7,0,1.4,0,2.2c0,0.4,0,0.7-0.5,0.7
		c-0.6,0-0.7-0.2-0.7-0.7C375.5,108.8,375.5,107.6,375.5,106.3z"/>
	<path class="st0" d="M376.7,104.6c0-1-0.3-1.9,1.3-1.8c1.5,0.1,2.3,0.7,2.3,1.8c0,1.2-0.6,1.5-2.3,1.7
		C376.4,106.4,376.6,105.5,376.7,104.6z"/>
</g>
</svg>
