<?xml version="1.0" encoding="UTF-8"?>
<svg id="Layer_1" xmlns="http://www.w3.org/2000/svg" version="1.1" viewBox="0 0 149.1 149">
  <!-- Generator: Adobe Illustrator 29.8.1, SVG Export Plug-In . SVG Version: 2.1.1 Build 2)  -->
  <defs>
    <style>
      .st0 {
        fill: #0062ff;
      }

      .st1 {
        fill: #fff;
      }

      .st2 {
        fill: none;
      }
    </style>
  </defs>
  <circle class="st0" cx="74.6" cy="74.5" r="73.6"/>
  <g>
    <rect class="st2" x="37.1" y="100.1" width="75.2" height="5.1"/>
    <rect class="st2" x="37.1" y="53.5" width="75.2" height="12.3"/>
    <rect class="st2" x="65.3" y="34.8" width="18.8" height="9.4"/>
    <path class="st1" d="M118.9,46.9c-1.8-1.8-4.1-2.8-6.6-2.8h-18.8v-9.4c0-2.6-.9-4.8-2.8-6.6-1.8-1.8-4.1-2.8-6.6-2.8h-18.8c-2.6,0-4.8.9-6.6,2.8s-2.8,4.1-2.8,6.6v9.4h-18.8c-2.6,0-4.8.9-6.6,2.8s-2.8,4.1-2.8,6.6v51.7c0,2.6.9,4.8,2.8,6.6s4.1,2.8,6.6,2.8h75.2c2.6,0,4.8-.9,6.6-2.8,1.8-1.8,2.8-4.1,2.8-6.6v-51.7c0-2.6-.9-4.8-2.8-6.6h0ZM65.3,34.8h18.8v9.4h-18.8v-9.4ZM112.2,65.8v39.4H37.1v-51.7h75.2s0,12.3,0,12.3Z"/>
    <rect class="st1" x="70" y="77" width="9.4" height="9.4"/>
    <polygon class="st1" points="79.3 77 112.2 51.5 112.2 60.8 79.3 86.4 79.3 77"/>
    <polygon class="st1" points="37.1 60.8 37.1 51.5 70 77 70 86.4 37.1 60.8"/>
  </g>
</svg>