<?xml version="1.0" encoding="UTF-8"?>
<svg id="Layer_1" xmlns="http://www.w3.org/2000/svg" version="1.1" viewBox="0 0 149.1 149">
  <!-- Generator: Adobe Illustrator 29.8.1, SVG Export Plug-In . SVG Version: 2.1.1 Build 2)  -->
  <defs>
    <style>
      .st0 {
        fill: #0062ff;
      }

      .st1 {
        fill: #fff;
      }
    </style>
  </defs>
  <circle class="st0" cx="74.6" cy="74.5" r="73.6"/>
  <path class="st1" d="M45.6,110.6c-7.9,0-14.7-2.7-20.3-8.2-5.6-5.5-8.4-12.2-8.4-20.1s2-12.8,6.1-18.2c4.1-5.3,9.4-8.7,16.1-10.2,2.2-8,6.5-14.5,13.1-19.5,6.5-5,13.9-7.4,22.2-7.4s18.8,3.5,25.9,10.6c7.1,7.1,10.6,15.7,10.6,25.9,6,.7,11,3.3,15,7.8s5.9,9.7,5.9,15.7-2.3,12.1-6.9,16.6c-4.6,4.6-10.1,6.9-16.6,6.9h-28.7c-2.9,0-5.3-1-7.4-3.1s-3.1-4.5-3.1-7.4v-26.9l-8.4,8.1-7.3-7.3,20.9-20.9,20.9,20.9-7.3,7.3-8.4-8.1v26.9h28.7c3.7,0,6.7-1.3,9.3-3.8,2.5-2.5,3.8-5.6,3.8-9.3s-1.3-6.7-3.8-9.3-5.6-3.8-9.3-3.8h-7.8v-10.4c0-7.2-2.5-13.4-7.6-18.5s-11.3-7.6-18.5-7.6-13.4,2.5-18.5,7.6-7.6,11.3-7.6,18.5h-2.6c-5.1,0-9.4,1.8-12.9,5.4s-5.4,7.9-5.4,12.9,1.8,9.4,5.4,12.9c3.6,3.6,7.9,5.4,12.9,5.4h13.1v10.4h-13.1Z"/>
</svg>