<?xml version="1.0" encoding="UTF-8"?>
<svg id="Layer_1" xmlns="http://www.w3.org/2000/svg" version="1.1" viewBox="0 0 149.1 149">
  <!-- Generator: Adobe Illustrator 29.8.1, SVG Export Plug-In . SVG Version: 2.1.1 Build 2)  -->
  <defs>
    <style>
      .st0 {
        fill: #0062ff;
      }

      .st1 {
        fill: #fff;
      }
    </style>
  </defs>
  <circle class="st0" cx="74.6" cy="74.5" r="73.6"/>
  <path class="st1" d="M107.9,115.7c-.7,0-1.4,0-2.2-.3s-1.4-.5-2-.9l-16.1-9.4c-1.3-.7-2.2-1.7-2.9-2.9s-1-2.5-1-4v-18.9c0-1.4.3-2.8,1-4s1.6-2.2,2.9-2.9l16.1-9.4c.6-.5,1.3-.8,2-.9s1.4-.3,2.2-.3,1.4.1,2.1.3,1.3.5,1.9.9l16.1,9.4c1.3.7,2.2,1.7,3,2.9s1.1,2.5,1.1,4v18.9c0,1.4-.4,2.8-1.1,4s-1.7,2.2-3,2.9l-16.1,9.4c-.6.4-1.3.6-1.9.9s-1.4.3-2.1.3ZM70.2,67.2c-5.9,0-11-2.1-15.2-6.3s-6.3-9.3-6.3-15.2,2.1-11,6.3-15.2,9.3-6.3,15.2-6.3,11,2.1,15.2,6.3c4.2,4.2,6.3,9.3,6.3,15.2s-2.1,11-6.3,15.2c-4.2,4.2-9.3,6.3-15.2,6.3ZM27.3,110.2v-15c0-3,.8-5.7,2.3-8.3s3.6-4.6,6.3-5.9c4.6-2.3,9.7-4.3,15.4-5.9,5.7-1.6,12-2.4,18.9-2.4h1.9c.5,0,1.1,0,1.6.3-.7,1.6-1.3,3.3-1.8,5s-.9,3.6-1.1,5.4h-.5c-6.4,0-12.1.8-17.1,2.4s-9.2,3.2-12.4,4.8c-.8.5-1.5,1.1-1.9,1.9s-.7,1.7-.7,2.7v4.3h33.9c.5,1.9,1.3,3.7,2.2,5.6s1.9,3.6,3,5.2H27.3ZM70.2,56.5c3,0,5.5-1.1,7.6-3.2s3.2-4.6,3.2-7.6-1.1-5.5-3.2-7.6-4.6-3.2-7.6-3.2-5.5,1.1-7.6,3.2c-2.1,2.1-3.2,4.6-3.2,7.6s1.1,5.5,3.2,7.6c2.1,2.1,4.6,3.2,7.6,3.2ZM95.2,77.2l12.6,7.4,12.6-7.4-12.6-7.3-12.6,7.3ZM111.9,105.1l12.1-7v-14.8l-12.1,7.1v14.6h0ZM91.7,98.1l12.1,7.1v-14.6l-12.1-7.1v14.6Z"/>
</svg>