<?xml version="1.0" encoding="UTF-8"?>
<svg id="Layer_1" xmlns="http://www.w3.org/2000/svg" version="1.1" viewBox="0 0 149.1 149">
  <!-- Generator: Adobe Illustrator 29.8.1, SVG Export Plug-In . SVG Version: 2.1.1 Build 2)  -->
  <defs>
    <style>
      .st0 {
        fill: #0062ff;
      }

      .st1 {
        fill: #fff;
      }
    </style>
  </defs>
  <circle class="st0" cx="74.6" cy="74.5" r="73.6"/>
  <path class="st1" d="M37.8,110.6c-2.6,0-4.8-.9-6.6-2.7s-2.7-4-2.7-6.6v-56c0-2.6.9-4.8,2.7-6.6s4-2.7,6.6-2.7h28l9.3,9.3h37.3c2.6,0,4.8.9,6.6,2.7s2.7,4,2.7,6.6h-50.5l-9.3-9.3h-24.1v56l11.2-37.3h79.7l-12,40c-.6,2-1.8,3.6-3.4,4.8s-3.5,1.8-5.5,1.8H37.8ZM47.6,101.3h60.2l8.4-28h-60.2s-8.4,28-8.4,28ZM47.6,101.3l8.4-28s-8.4,28-8.4,28ZM37.8,54.7v-9.3,9.3Z"/>
</svg>