<?xml version="1.0" encoding="UTF-8"?>
<svg id="Layer_1" data-name="Layer 1" xmlns="http://www.w3.org/2000/svg" viewBox="0 0 147.18 147.18">
  <defs>
    <style>
      .cls-1 {
        fill: #0062ff;
      }

      .cls-2 {
        fill: #fff;
      }
    </style>
  </defs>
  <circle class="cls-1" cx="73.59" cy="73.59" r="73.59"/>
  <path class="cls-2" d="M62.96,86.48l6.02-6.24-9.25-9.25,9.25-9.25-6.02-6.24-15.49,15.49s15.49,15.49,15.49,15.49ZM83.61,86.48l15.49-15.49-15.49-15.49-6.02,6.24,9.25,9.25-9.25,9.25,6.02,6.24ZM43.16,109.71c-2.37,0-4.39-.85-6.08-2.53-1.68-1.68-2.53-3.71-2.53-6.08v-60.24c0-2.37.85-4.39,2.53-6.08s3.71-2.53,6.08-2.53h18.07c.94-2.58,2.49-4.66,4.68-6.24,2.19-1.58,4.64-2.37,7.37-2.37s5.18.79,7.37,2.37,3.74,3.65,4.68,6.24h18.07c2.37,0,4.39.85,6.08,2.53s2.53,3.71,2.53,6.08v60.25c0,2.37-.85,4.39-2.53,6.08-1.68,1.68-3.71,2.53-6.08,2.53h-60.25ZM43.16,101.11h60.25v-60.24h-60.25v60.25h0ZM73.28,37.64c.94,0,1.7-.31,2.31-.92s.92-1.38.92-2.31-.31-1.7-.92-2.31-1.38-.92-2.31-.92-1.7.31-2.31.92-.92,1.38-.92,2.31.31,1.7.92,2.31,1.38.92,2.31.92ZM43.16,101.11v-60.24,60.25h0Z"/>
</svg>