<?xml version="1.0" encoding="UTF-8"?>
<svg id="Layer_1" xmlns="http://www.w3.org/2000/svg" version="1.1" viewBox="0 0 149.1 149">
  <!-- Generator: Adobe Illustrator 29.8.1, SVG Export Plug-In . SVG Version: 2.1.1 Build 2)  -->
  <defs>
    <style>
      .st0 {
        fill: #0062ff;
      }

      .st1 {
        fill: #fff;
      }
    </style>
  </defs>
  <circle class="st0" cx="74.6" cy="74.5" r="73.6"/>
  <path class="st1" d="M67.1,118.7v-18.8l33.7-33.5c.9-.9,1.9-1.6,3-2.1s2.3-.7,3.5-.7,2.4.2,3.5.7,2.1,1.1,3,2.1l5.6,5.7c.8.9,1.5,1.9,1.9,3s.7,2.2.7,3.4-.3,2.3-.7,3.4-1.2,2.1-2,3l-33.5,33.7h-18.8,0ZM112.6,78.8l-5.7-5.6,5.7,5.6ZM76.3,109.5h5.7l18.6-18.6-2.9-2.9-2.9-2.9-18.6,18.6v5.7ZM97.7,88.1l-2.9-2.9,2.9,2.9,2.9,2.9-2.9-2.9ZM70.5,60.3l-6.4-6.5,8.4-8.4h-15.4c-.7,2-1.8,3.7-3.2,5.2s-3.2,2.5-5.2,3.2v38.3c2.7,1,4.9,2.7,6.6,5,1.7,2.3,2.6,5,2.6,8s-1.3,7.1-4,9.7c-2.7,2.7-5.9,4-9.7,4s-7.1-1.3-9.7-4-4-5.9-4-9.7.9-5.6,2.6-7.9,3.9-3.9,6.6-4.9v-38.4c-2.7-1-4.9-2.7-6.6-5s-2.6-5-2.6-8,1.3-7.1,4-9.7c2.7-2.7,5.9-4,9.7-4s5.6.9,8,2.6c2.3,1.7,4,3.9,5,6.6h15.4l-8.4-8.4,6.4-6.5,19.5,19.5s-19.5,19.5-19.5,19.5ZM108.3,27c3.8,0,7.1,1.3,9.7,4,2.7,2.7,4,5.9,4,9.7s-1.3,7.1-4,9.7-5.9,4-9.7,4-7.1-1.3-9.7-4c-2.7-2.7-4-5.9-4-9.7s1.3-7.1,4-9.7c2.7-2.7,5.9-4,9.7-4ZM44.2,109.5c1.3,0,2.4-.4,3.3-1.3s1.3-2,1.3-3.3-.4-2.4-1.3-3.3-2-1.3-3.3-1.3-2.4.4-3.3,1.3-1.3,2-1.3,3.3.4,2.4,1.3,3.3,2,1.3,3.3,1.3ZM44.2,45.4c1.3,0,2.4-.4,3.3-1.3s1.3-2,1.3-3.3-.4-2.4-1.3-3.3-2-1.3-3.3-1.3-2.4.4-3.3,1.3-1.3,2-1.3,3.3.4,2.4,1.3,3.3,2,1.3,3.3,1.3ZM108.3,45.4c1.3,0,2.4-.4,3.3-1.3s1.3-2,1.3-3.3-.4-2.4-1.3-3.3-2-1.3-3.3-1.3-2.4.4-3.3,1.3-1.3,2-1.3,3.3.4,2.4,1.3,3.3,2,1.3,3.3,1.3Z"/>
</svg>