<?xml version="1.0" encoding="UTF-8"?>
<svg xmlns="http://www.w3.org/2000/svg" version="1.1" viewBox="0 0 500 500">
  <defs>
    <style>
      .cls-1 {
        fill: #434343;
      }

      .cls-2 {
        fill: #b3b3b2;
      }

      .cls-3 {
        fill: #f1f1f1;
      }

      .cls-4 {
        fill: #323232;
      }
    </style>
  </defs>
  <!-- Generator: Adobe Illustrator 28.7.1, SVG Export Plug-In . SVG Version: 1.2.0 Build 142)  -->
  <g>
    <g id="_Слой_1" data-name="Слой_1">
      <g>
        <path class="cls-2" d="M249.3,4L17.7,85.4l36.6,303.3,195.2,107.3,196.2-108.7,36.6-303.3L249.3,4Z"/>
        <path class="cls-4" d="M459.2,101.5L248.7,29.8v440.7l176.4-97.6,34.1-271.3h0Z"/>
        <path class="cls-1" d="M43.7,102.8l31.4,271.3,173.6,96.3V29.7L43.7,102.8h0Z"/>
        <path class="cls-3" d="M306.6,264.3l-57.9,27.1h-61.1l-28.7,71.8-53.4,1L248.7,45.8l57.9,218.6h0ZM301,250.7l-51.9-102.8-42.6,101.1h42.2l52.3,1.8h0Z"/>
        <path class="cls-2" d="M248.7,45.8l.4,102.1,48.3,101.1h-48.6v42.4c-.1,0,67.1,0,67.1,0l31.4,72.8,51.1.9L248.7,45.8h0Z"/>
      </g>
    </g>
  </g>
</svg>