<?xml version="1.0" encoding="UTF-8"?>
<svg xmlns="http://www.w3.org/2000/svg" version="1.1" viewBox="0 0 500 500">
  <defs>
    <style>
      .cls-1 {
        fill-rule: evenodd;
      }
    </style>
  </defs>
  <!-- Generator: Adobe Illustrator 28.7.1, SVG Export Plug-In . SVG Version: 1.2.0 Build 142)  -->
  <g>
    <g id="_Слой_1" data-name="Слой_1">
      <path d="M143.5,225.1c0,6,.6,10.9,1.8,14.4,1.3,3.6,2.9,7.5,5.2,11.7.8,1.3,1.1,2.6,1.1,3.7,0,1.6-1,3.2-3.1,4.9l-10.2,6.8c-1.5,1-2.9,1.5-4.2,1.5s-3.2-.8-4.9-2.3c-2.3-2.4-4.2-5-5.8-7.6-1.6-2.8-3.2-5.8-5-9.6-12.7,14.9-28.6,22.4-47.7,22.4s-24.5-3.9-32.5-11.7c-8-7.8-12-18.2-12-31.2s4.9-25,14.8-33.4c9.9-8.4,23-12.7,39.8-12.7s11.2.5,17.2,1.3c6,.8,12.2,2.1,18.7,3.6v-11.8c0-12.3-2.6-20.9-7.6-26-5.2-5-14-7.5-26.5-7.5s-11.5.6-17.5,2.1c-6,1.5-11.8,3.2-17.5,5.5-2.6,1.1-4.5,1.8-5.7,2.1s-1.9.5-2.6.5c-2.3,0-3.4-1.6-3.4-5v-8c0-2.6.3-4.5,1.1-5.7s2.3-2.3,4.5-3.4c5.7-2.9,12.5-5.4,20.5-7.3,8-2.1,16.4-3.1,25.3-3.1,19.3,0,33.4,4.4,42.5,13.1,8.9,8.8,13.5,22.1,13.5,39.9v52.6h.3ZM77.6,249.8c5.4,0,10.9-1,16.7-2.9,5.8-1.9,11-5.5,15.4-10.4,2.6-3.1,4.5-6.5,5.5-10.4,1-3.9,1.6-8.6,1.6-14.1v-6.8c-4.7-1.1-9.7-2.1-14.9-2.8-5.2-.6-10.2-1-15.3-1-10.9,0-18.8,2.1-24.2,6.5-5.4,4.4-8,10.6-8,18.7s1.9,13.3,6,17.2c3.9,4.1,9.6,6,17,6h0ZM208,267.4c-2.9,0-4.9-.5-6.2-1.6-1.3-1-2.4-3.2-3.4-6.3l-38.1-125.5c-1-3.2-1.5-5.4-1.5-6.5,0-2.6,1.3-4.1,3.9-4.1h15.9c3.1,0,5.2.5,6.3,1.6,1.3,1,2.3,3.2,3.2,6.3l27.3,107.5,25.3-107.5c.8-3.2,1.8-5.4,3.1-6.3,1.3-1,3.6-1.6,6.5-1.6h13c3.1,0,5.2.5,6.5,1.6,1.3,1,2.4,3.2,3.1,6.3l25.6,108.8,28.1-108.8c1-3.2,2.1-5.4,3.2-6.3,1.3-1,3.4-1.6,6.3-1.6h15.1c2.6,0,4.1,1.3,4.1,4.1s-.2,1.6-.3,2.6c-.2,1-.5,2.3-1.1,4.1l-39.1,125.5c-1,3.2-2.1,5.4-3.4,6.3s-3.4,1.6-6.2,1.6h-14c-3.1,0-5.2-.5-6.5-1.6s-2.4-3.2-3.1-6.5l-25.2-104.7-25,104.5c-.8,3.2-1.8,5.4-3.1,6.5s-3.6,1.6-6.5,1.6h-14ZM416.5,271.7c-8.4,0-16.9-1-25-2.9s-14.4-4.1-18.7-6.5c-2.6-1.5-4.4-3.1-5-4.5s-1-3.1-1-4.5v-8.3c0-3.4,1.3-5,3.7-5s1.9.2,2.9.5,2.4,1,4.1,1.6c5.5,2.4,11.5,4.4,17.9,5.7,6.5,1.3,12.8,1.9,19.3,1.9,10.2,0,18.2-1.8,23.7-5.4,5.5-3.6,8.4-8.8,8.4-15.4s-1.5-8.3-4.4-11.4c-2.9-3.1-8.4-5.8-16.4-8.4l-23.5-7.3c-11.8-3.7-20.6-9.3-26-16.6-5.4-7.1-8.1-15.1-8.1-23.5s1.5-12.8,4.4-18,6.8-9.7,11.7-13.3c4.9-3.7,10.4-6.5,16.9-8.4,6.5-1.9,13.3-2.8,20.5-2.8s7.3.2,10.9.6c3.7.5,7.1,1.1,10.6,1.8,3.2.8,6.3,1.6,9.3,2.6,2.9,1,5.2,1.9,6.8,2.9,2.3,1.3,3.9,2.6,4.9,4.1,1,1.3,1.5,3.1,1.5,5.4v7.6c0,3.4-1.3,5.2-3.7,5.2s-3.4-.6-6.2-1.9c-9.3-4.2-19.6-6.3-31.2-6.3s-16.6,1.5-21.6,4.5c-5,3.1-7.6,7.8-7.6,14.4s1.6,8.4,4.9,11.5c3.2,3.1,9.3,6.2,17.9,8.9l23,7.3c11.7,3.7,20.1,8.9,25.2,15.6s7.5,14.3,7.5,22.7-1.5,13.3-4.2,18.8c-2.9,5.5-6.8,10.4-11.8,14.3-5,4.1-11,7-18,9.1-7.3,2.3-14.9,3.4-23.2,3.4h0Z"/>
      <g>
        <path class="cls-1" d="M447.2,350.6c-53.4,39.4-131,60.4-197.7,60.4s-177.7-34.6-241.4-92c-5-4.5-.5-10.7,5.5-7.1,68.8,39.9,153.7,64.1,241.5,64.1s124.3-12.3,184.2-37.7c8.9-4.1,16.6,5.8,7.8,12.3Z"/>
        <path class="cls-1" d="M469.4,325.3c-6.8-8.8-45.1-4.2-62.5-2.1-5.2.6-6-3.9-1.3-7.3,30.5-21.4,80.7-15.3,86.5-8.1,5.8,7.3-1.6,57.5-30.2,81.5-4.4,3.7-8.6,1.8-6.7-3.1,6.5-16.1,20.9-52.3,14.1-60.9Z"/>
      </g>
    </g>
  </g>
</svg>