<?xml version="1.0" encoding="UTF-8"?>
<svg xmlns="http://www.w3.org/2000/svg" version="1.1" viewBox="0 0 500 500">
  <defs>
    <style>
      .cls-1 {
        fill: #fff;
      }

      .cls-2 {
        fill: #383838;
      }

      .cls-3 {
        fill: #656565;
      }

      .cls-4 {
        fill: #2b2b2b;
      }
    </style>
  </defs>
  <!-- Generator: Adobe Illustrator 28.7.1, SVG Export Plug-In . SVG Version: 1.2.0 Build 142)  -->
  <g>
    <g id="_Слой_1" data-name="Слой_1">
      <g>
        <path class="cls-3" d="M467.4,149.3c0-8.2-1.8-15.5-5.3-21.7-3.5-6.1-8.7-11.3-15.7-15.3-57.9-33.4-115.8-66.7-173.7-100.1-15.6-9-30.7-8.7-46.2.5-23,13.6-138.4,79.7-172.8,99.6-14.2,8.2-21,20.7-21.1,37,0,67.1,0,134.3,0,201.4,0,8,1.7,15.2,5.1,21.3,3.5,6.3,8.8,11.6,16,15.7,34.4,19.9,149.8,86,172.8,99.6,15.5,9.1,30.6,9.5,46.2.5,57.9-33.4,115.8-66.7,173.7-100.1,7.2-4.2,12.5-9.4,16-15.7,3.4-6.1,5.1-13.3,5.1-21.3,0,0,0-134.2,0-201.4"/>
        <path class="cls-4" d="M250.7,249.3l-213,122.7c3.5,6.3,8.8,11.6,16,15.7,34.4,19.9,149.8,86,172.8,99.6,15.5,9.1,30.6,9.5,46.2.5,57.9-33.4,115.8-66.7,173.7-100.1,7.2-4.2,12.5-9.4,16-15.7l-211.7-122.6"/>
        <path class="cls-4" d="M187.6,285.7c12.4,21.6,35.7,36.2,62.4,36.2s50.3-14.8,62.7-36.7l-62-35.9-63.1,36.3"/>
        <path class="cls-2" d="M467.4,149.3c0-8.2-1.8-15.5-5.3-21.7l-211.4,121.7,211.7,122.6c3.4-6.1,5.1-13.3,5.1-21.3,0,0,0-134.2,0-201.4"/>
        <path class="cls-1" d="M455.8,258.1h-16.5v16.5h-16.5v-16.5h-16.5v-16.5h16.5v-16.5h16.5v16.5h16.5v16.5M395.4,258.1h-16.5v16.5h-16.5v-16.5h-16.5v-16.5h16.5v-16.5h16.5v16.5h16.5v16.5"/>
        <path class="cls-1" d="M312.7,285.3c-12.3,21.9-35.8,36.7-62.7,36.7s-50-14.6-62.4-36.2c-6.2-10.9-9.5-23.2-9.5-35.7,0-39.7,32.2-71.9,71.9-71.9s49.7,14.4,62.2,35.8l62.9-36.2c-25-43.1-71.6-72.1-125.1-72.1-79.8,0-144.4,64.7-144.4,144.4s7,50.7,19.1,71.9c24.9,43.4,71.7,72.5,125.3,72.5s100.5-29.3,125.4-72.8l-62.8-36.4"/>
      </g>
    </g>
  </g>
</svg>