<?xml version="1.0" encoding="UTF-8"?>
<svg xmlns="http://www.w3.org/2000/svg" version="1.1" viewBox="0 0 500 500">
  <defs>
    <style>
      .cls-1 {
        fill: #181818;
      }

      .cls-2 {
        fill: #fff;
      }

      .cls-3 {
        fill: #656565;
      }

      .cls-4 {
        fill: #232323;
      }
    </style>
  </defs>
  <!-- Generator: Adobe Illustrator 28.7.1, SVG Export Plug-In . SVG Version: 1.2.0 Build 142)  -->
  <g>
    <g id="_Слой_1" data-name="Слой_1">
      <g>
        <path class="cls-3" d="M469.3,148.4c0-8.3-1.8-15.6-5.4-21.9-3.5-6.2-8.8-11.4-15.9-15.5-58.4-33.7-116.8-67.2-175.2-100.9-15.7-9.1-31-8.8-46.6.5-23.2,13.7-139.6,80.4-174.3,100.5-14.3,8.3-21.2,20.9-21.2,37.4,0,67.7,0,135.4,0,203.1,0,8.1,1.7,15.3,5.1,21.5,3.5,6.4,8.9,11.7,16.1,15.9,34.7,20.1,151.1,86.8,174.3,100.5,15.6,9.2,30.9,9.6,46.6.5,58.4-33.7,116.8-67.3,175.2-100.9,7.2-4.2,12.6-9.5,16.1-15.9,3.4-6.2,5.1-13.4,5.1-21.5,0,0,0-135.4,0-203.1"/>
        <path class="cls-1" d="M250.7,249.3l-214.9,123.7c3.5,6.4,8.9,11.7,16.1,15.9,34.7,20.1,151.1,86.8,174.3,100.5,15.6,9.2,30.9,9.6,46.6.5,58.4-33.7,116.8-67.3,175.2-100.9,7.2-4.2,12.6-9.5,16.1-15.9l-213.5-123.7Z"/>
        <path class="cls-4" d="M469.3,148.4c0-8.3-1.8-15.6-5.4-21.9l-213.3,122.8,213.5,123.7c3.4-6.2,5.1-13.4,5.1-21.5,0,0,0-135.4,0-203.1"/>
        <g>
          <path class="cls-2" d="M377.2,203.1v23.1h23.1v-23.1h11.6v23.1h23.1v11.6h-23.1v23.1h23.1v11.6h-23.1v23.1h-11.6v-23.1h-23.1v23.1h-11.6v-23.1h-23.1v-11.6h23.1v-23.1h-23.1v-11.6h23.1v-23.1h11.6ZM400.3,237.8h-23.1v23.1h23.1v-23.1Z"/>
          <path class="cls-2" d="M251.1,87c60.3,0,113,32.8,141.2,81.4l-.3-.5-71,40.9c-14-23.7-39.6-39.6-69-40h-.9c-44.8,0-81.2,36.3-81.2,81.2,0,14.1,3.7,28,10.7,40.3,14,24.4,40.3,40.9,70.5,40.9s56.8-16.7,70.7-41.4l-.3.6,70.9,41c-27.9,48.3-79.8,80.9-139.5,81.6h-1.8c-60.5,0-113.3-32.9-141.5-81.9-13.7-23.9-21.6-51.6-21.6-81.1,0-90,73-163,163-163h0Z"/>
        </g>
      </g>
    </g>
  </g>
</svg>