<?xml version="1.0" encoding="UTF-8"?>
<svg xmlns="http://www.w3.org/2000/svg" version="1.1" viewBox="0 0 500 500">
  <!-- Generator: Adobe Illustrator 28.7.1, SVG Export Plug-In . SVG Version: 1.2.0 Build 142)  -->
  <g>
    <g id="_Слой_1" data-name="Слой_1">
      <g>
        <path d="M75.5,170.2h25v115.6c-12.8,2.4-22.2,3.4-32.4,3.4-30.5,0-46.4-13.8-46.4-40.2s16.9-42,43-42,7.1.3,10.9,1.3v-38.1ZM75.5,228.4c-2.9-1-5.4-1.3-8.4-1.3-12.6,0-19.9,7.8-19.9,21.4s7,20.6,19.8,20.6,5-.2,8.6-.6v-40.1Z"/>
        <path d="M140.2,208.8v57.9c0,19.9-1.5,29.5-5.8,37.8-4.1,7.9-9.4,13-20.4,18.5l-23.2-11c11-5.2,16.4-9.7,19.8-16.7,3.6-7.1,4.7-15.4,4.7-37.1v-49.3h25,0ZM115.3,170.4h25v25.6h-25v-25.6ZM155.3,214.5c11-5.2,21.6-7.5,33.1-7.5s21.2,3.4,25,10.1c2.1,3.7,2.8,8.6,2.8,19v50.8c-11.2,1.6-25.3,2.8-35.7,2.8-20.9,0-30.3-7.3-30.3-23.5s12.5-25.6,43.1-28.2v-5.5c0-4.5-2.3-6.2-8.6-6.2-9.2,0-19.6,2.6-29.4,7.6v-19.3s0,0,0,0ZM194.4,254.2c-16.5,1.6-21.9,4.2-21.9,10.7s3.1,7.1,9.9,7.1,7.1-.3,12-1.1v-16.7ZM228.3,212.7c14.8-3.9,26.9-5.7,39.2-5.7s22.1,2.9,27.6,8.6c5.2,5.3,6.8,11.2,6.8,23.7v49h-25v-48c0-9.6-3.2-13.1-12.2-13.1s-6.5.3-11.5,1.8v59.3h-25v-75.6ZM311.6,301.9c8.8,4.5,17.5,6.6,26.8,6.6,16.4,0,23.3-6.6,23.3-22.5v-.5c-4.9,2.4-9.7,3.4-16.2,3.4-21.9,0-35.8-14.4-35.8-37.3s20.6-44.4,57.1-44.4,20.6,1.1,32.6,3.6l-8.6,18c-6.6-1.3-.5-.2-5.6-.7v2.6l.3,10.5.2,13.6c.2,3.4.2,6.8.3,10.2v6.8c0,21.4-1.8,31.5-7.1,39.7-7.8,12.2-21.2,18.2-40.4,18.2s-18.2-1.5-26.9-4.9v-23s0,0,0,0ZM361.2,227.3h-2.6c-4.9-.2-10.5,1.1-14.4,3.6-6,3.4-9.1,9.6-9.1,18.3,0,12.5,6.2,19.6,17.2,19.6s6.2-.6,9.4-1.6v-8.6c0-2.9-.2-6.2-.2-9.6l-.2-11.5-.2-8.3v-1.9s0,0,0,0ZM438.1,206.7c25,0,40.2,15.7,40.2,41.2s-15.9,42.5-41.2,42.5-40.4-15.7-40.4-41c0-26.3,15.9-42.6,41.4-42.6h0ZM437.6,270.3c9.6,0,15.2-7.9,15.2-21.7s-5.5-21.7-15.1-21.7-15.6,7.9-15.6,21.7c0,13.8,5.7,21.7,15.4,21.7h0Z"/>
      </g>
    </g>
  </g>
</svg>