<?xml version="1.0" encoding="UTF-8"?>
<svg xmlns="http://www.w3.org/2000/svg" version="1.1" viewBox="0 0 500 500">
  <!-- Generator: Adobe Illustrator 28.7.1, SVG Export Plug-In . SVG Version: 1.2.0 Build 142)  -->
  <g>
    <g id="_Слой_1" data-name="Слой_1">
      <g>
        <path d="M493.9,207.1c-1.4-1.1-13.8-10.5-40.6-10.5s-14.1.7-21,1.8c-5.1-34.9-34.4-51.7-35.5-52.6l-7.2-4.1-4.6,6.6c-5.8,8.9-10.2,18.9-12.7,29.2-4.8,19.8-1.8,38.5,8.3,54.5-12.2,6.8-32.1,8.4-36.2,8.7H16.7c-8.5,0-15.5,6.8-15.5,15.3-.5,28.3,4.4,56.5,14.3,83.2,11.3,29.2,28.2,50.8,49.8,64,24.5,14.8,64.4,23.2,109.4,23.2s40.6-1.8,60.7-5.5c27.9-5,54.7-14.6,79.4-28.5,20.2-11.6,38.5-26.4,54-43.7,26.1-28.9,41.5-61.3,52.8-90h4.6c28.4,0,45.9-11.2,55.6-20.7,6.5-5.9,11.3-13.2,14.8-21.4l2.1-5.9-4.8-3.4Z"/>
        <path d="M47.2,231.2h43.8c2.1,0,3.9-1.6,3.9-3.9v-38.7c0-2.1-1.6-3.9-3.9-3.9h-43.8c-2.1,0-3.9,1.6-3.9,3.9v38.7c.2,2.3,1.8,3.9,3.9,3.9h0ZM107.6,231.2h43.8c2.1,0,3.9-1.6,3.9-3.9v-38.7c0-2.1-1.6-3.9-3.9-3.9h-43.8c-2.1,0-3.9,1.6-3.9,3.9v38.7c.2,2.3,1.8,3.9,3.9,3.9M169.2,231.2h43.8c2.1,0,3.9-1.6,3.9-3.9v-38.7c0-2.1-1.6-3.9-3.9-3.9h-43.8c-2.1,0-3.9,1.6-3.9,3.9v38.7c0,2.3,1.6,3.9,3.9,3.9ZM229.9,231.2h43.8c2.1,0,3.9-1.6,3.9-3.9v-38.7c0-2.1-1.6-3.9-3.9-3.9h-43.8c-2.1,0-3.9,1.6-3.9,3.9v38.7c0,2.3,1.8,3.9,3.9,3.9ZM107.6,175.8h43.8c2.1,0,3.9-1.8,3.9-3.9v-38.7c0-2.1-1.6-3.9-3.9-3.9h-43.8c-2.1,0-3.9,1.6-3.9,3.9v38.7c.2,2.1,1.8,3.9,3.9,3.9M169.2,175.8h43.8c2.1,0,3.9-1.8,3.9-3.9v-38.7c0-2.1-1.6-3.9-3.9-3.9h-43.8c-2.1,0-3.9,1.6-3.9,3.9v38.7c0,2.1,1.6,3.9,3.9,3.9M229.9,175.8h43.8c2.1,0,3.9-1.8,3.9-3.9v-38.7c0-2.1-1.8-3.9-3.9-3.9h-43.8c-2.1,0-3.9,1.6-3.9,3.9v38.7c0,2.1,1.8,3.9,3.9,3.9M229.9,120.2h43.8c2.1,0,3.9-1.6,3.9-3.9v-38.7c0-2.1-1.8-3.9-3.9-3.9h-43.8c-2.1,0-3.9,1.6-3.9,3.9v38.7c0,2.1,1.8,3.9,3.9,3.9M291.1,231.2h43.8c2.1,0,3.9-1.6,3.9-3.9v-38.7c0-2.1-1.6-3.9-3.9-3.9h-43.8c-2.1,0-3.9,1.6-3.9,3.9v38.7c.2,2.3,1.8,3.9,3.9,3.9"/>
      </g>
    </g>
  </g>
</svg>