<?xml version="1.0" encoding="UTF-8"?>
<svg xmlns="http://www.w3.org/2000/svg" version="1.1" viewBox="0 0 500 500">
  <defs>
    <style>
      .cls-1 {
        fill: #a2a2a3;
      }

      .cls-2 {
        fill: #fff;
      }
    </style>
  </defs>
  <!-- Generator: Adobe Illustrator 28.7.1, SVG Export Plug-In . SVG Version: 1.2.0 Build 142)  -->
  <g>
    <g id="_Слой_1" data-name="Слой_1">
      <g>
        <path d="M116,280.8c-14.9,0-20.4-8.3-20.4-20.7v-7.8c0-11.9,5.7-20.7,20.8-20.7s10.2,1.1,13.6,4.1c1,.7,1.4,1.5,1.4,2.2,0,1.3-1.1,2.6-3.4,2.6-1.2,0-1.9-.5-3.2-1.3-2.2-1.5-5-2.2-8.3-2.2-9.4,0-13.6,5.2-13.6,15.4v7.6c0,10.8,4,15.4,13.1,15.4s11.9-4.2,11.9-11v-3.5h-9.6c-1.8,0-3.4-1.3-3.4-2.8s1.5-2.8,3.4-2.8h13.1c2,0,3.4,1.3,3.4,3v5.9c0,9.3-5.7,16.4-18.9,16.4Z"/>
        <path d="M162.3,252.5c-.9-.2-1.8-.4-4-.4-3.4,0-7.6.9-8.9,6v19.7c0,1.7-1.6,2.9-3.5,2.9s-3.5-1.3-3.5-2.9v-22.2c0-2.6-.9-3.4-2.5-4.2-.9-.4-1.4-1.1-1.4-1.9,0-1.6,1.4-2.5,3.5-2.5s.8,0,1.1,0c3,.7,4.6,2.2,5.4,4.1,3.4-4,8.2-4.6,11.1-4.6s4,.3,5.4.8c1.5.6,2,2.1,1.4,3.4-.6,1.3-2,2.2-4,1.8Z"/>
        <path d="M197.7,280.7c-1.5,0-3.2-.6-4.2-1.4-.8-.5-1.3-1.3-1.6-2-3,2.7-7.7,3.4-11.2,3.4-9.9,0-14-4.2-14-9.7v-.5c0-5.5,4.6-9.6,14.8-9.6h9.1v-1.6c0-5.3-1.5-7.9-8.3-7.9s-6.2.7-8.2,1.7c-3.6,1.6-6.6-2.4-3.2-4.2,3.2-1.6,7.4-2.3,11.8-2.3,11.5,0,14.8,4.6,14.8,13.3v12.3c0,2.6.7,3.4,2.2,4.2.9.4,1.4,1.1,1.4,1.9,0,1.7-1.4,2.5-3.4,2.5ZM190.5,265.4h-8.4c-6.7,0-8.5,2.4-8.5,5.2v.5c0,2.8,1.8,5.1,8.3,5.1s8.7-2.2,8.7-6.9v-3.9Z"/>
        <path d="M218.1,280.7c-5.2,0-8.3-.5-11.3-1.5-1.7-.5-2.2-2-1.8-3.2.6-1.4,2.3-2,3.9-1.5,2.6.8,4.9,1.3,9.2,1.3s8.6-2.1,8.6-5.1-5.8-4.3-11.3-5.4c-5.3-1-10.3-2.6-10.3-8.9s6-9.8,13.7-9.8,7.4.5,10.3,1.4c1.8.6,2.4,2,1.8,3.3-.6,1.3-2.2,2-3.9,1.5-2.7-.9-4.9-1.3-8-1.3-5,0-7.4,1.9-7.4,4.6s4.8,4.2,10.2,5c5.6,1,11.5,2.4,11.5,9.4s-6.6,10.2-15.4,10.2Z"/>
        <path d="M250.7,280.7c-5.2,0-8.3-.5-11.3-1.5-1.7-.5-2.2-2-1.8-3.2.6-1.4,2.3-2,3.9-1.5,2.6.8,4.9,1.3,9.2,1.3s8.6-2.1,8.6-5.1-5.8-4.3-11.3-5.4c-5.3-1-10.3-2.6-10.3-8.9s6-9.8,13.7-9.8,7.4.5,10.3,1.4c1.8.6,2.4,2,1.8,3.3-.6,1.3-2.2,2-3.9,1.5-2.7-.9-4.9-1.3-8-1.3-5,0-7.4,1.9-7.4,4.6s4.8,4.2,10.2,5c5.6,1,11.6,2.4,11.6,9.4s-6.6,10.2-15.4,10.2Z"/>
        <path d="M299.8,280.7c-1.9,0-3.5-1.3-3.5-2.9v-18.6c0-4.2-1.4-7.1-7.5-7.1s-7.9,1.7-9.8,4.2v21.6c0,1.7-1.5,2.9-3.5,2.9s-3.5-1.3-3.5-2.9v-42.4c0-1.6,1.5-2.8,3.5-2.8s3.5,1.3,3.5,2.8v14.4c2.6-2,6.3-3.2,11.2-3.2,10.1,0,13.2,5.2,13.2,12.1v19.1c0,1.7-1.6,2.9-3.5,2.9Z"/>
        <path d="M325.3,280.7c-11.4,0-16.1-6.1-16.1-13.7v-6.8c0-7.5,4.7-13.7,16.1-13.7s16.2,6.1,16.2,13.7v6.8c0,7.5-4.7,13.7-16.2,13.7ZM334.5,260.2c0-5.1-2.6-8.3-9.1-8.3s-9.1,3.2-9.1,8.3v6.8c0,5.1,2.6,8.4,9.1,8.4s9.1-3.2,9.1-8.4v-6.8Z"/>
        <path d="M364.9,280.7c-3,0-6.7-.8-9.5-2.6v11.3c0,1.6-1.6,2.9-3.5,2.9s-3.4-1.3-3.4-2.9v-34.3c0-2.7-.6-3.4-2.2-4.2-.9-.4-1.4-1.1-1.4-1.9,0-1.7,1.5-2.5,3.4-2.5s3,.5,4.3,1.4c.6.5,1.1.9,1.5,1.5,3-1.8,6.9-2.9,10.5-2.9,10.4,0,14.8,4.8,14.8,13.3v6c0,8.8-3.9,14.8-14.4,14.8ZM372.3,259.6c0-5.3-2.3-8-8.8-8s-5.5.9-8.1,2.8v18.3c2.6,2.2,5.9,3,8.3,3,6.1,0,8.6-3.2,8.6-8.9v-7.2Z"/>
        <path d="M402.8,280.7c-3,0-6.7-.8-9.5-2.6v11.3c0,1.6-1.6,2.9-3.5,2.9s-3.4-1.3-3.4-2.9v-34.3c0-2.7-.6-3.4-2.2-4.2-.9-.4-1.4-1.1-1.4-1.9,0-1.7,1.5-2.5,3.4-2.5s3,.5,4.3,1.4c.6.5,1.1.9,1.5,1.5,3-1.8,6.9-2.9,10.5-2.9,10.4,0,14.8,4.8,14.8,13.3v6c0,8.8-3.8,14.8-14.4,14.8ZM410.2,259.6c0-5.3-2.3-8-8.8-8s-5.5.9-8.1,2.8v18.3c2.6,2.2,5.9,3,8.3,3,6.1,0,8.6-3.2,8.6-8.9v-7.2Z"/>
        <path d="M453.4,263.1c0,1.4-1.2,2.2-2.6,2.2h-21.9v1.8c0,5.2,2.8,8.6,9.1,8.6s7.4-.7,10-1.8c1.5-.7,3.2,0,3.8,1.3.6,1.3,0,2.4-1.4,3.1-3.8,1.6-8.1,2.4-12.7,2.4-11.5,0-15.8-6.5-15.8-14v-6.1c0-7.5,4.6-14,15.8-14s15.7,6.4,15.7,13.9v2.7ZM446.6,259.7c0-5.1-2.2-8.4-8.7-8.4s-9,3.3-9,8.4v1.1h17.7v-1.1Z"/>
        <path d="M479.9,252.5c-.9-.2-1.8-.4-4-.4-3.4,0-7.6.9-8.9,6v19.7c0,1.7-1.6,2.9-3.5,2.9s-3.5-1.3-3.5-2.9v-22.2c0-2.6-.9-3.4-2.5-4.2-.9-.4-1.4-1.1-1.4-1.9,0-1.6,1.4-2.5,3.4-2.5s.8,0,1.1,0c3,.7,4.6,2.2,5.4,4.1,3.4-4,8.2-4.6,11.1-4.6s4,.3,5.4.8c1.5.6,2,2.1,1.4,3.4-.6,1.3-2,2.2-4,1.8Z"/>
        <g>
          <path class="cls-1" d="M51.1,201v4c16.6,6,27.7,21.1,27.6,38-.1-.3-.3-.5-.4-.8-3.2-12.7-13.7-22.8-27.1-26v3.1c8.9,2.4,16.4,8.1,20.8,15.6-9.4-7.2-24.9-9.3-40.2-4.3-20.9,6.9-33.4,24.5-28,39.3,4.2,11.3,17.7,17.7,33.1,17.1,10.2-3.6,18.3-9.7,23.2-16.8-.9,4.7-3.2,9.3-6.7,13.5,15-5.5,25.4-16.5,27.2-27.8.7-2,1.2-4.2,1.6-6.3,3.5-21.5-9.9-41.7-31-48.6Z"/>
          <path d="M63,246.4c2.1,8.5-5.9,17.5-17.8,20.1-12,2.6-23.4-2.1-25.5-10.5-2.1-8.5,5.9-17.5,17.8-20.1,12-2.7,23.4,2.1,25.5,10.5Z"/>
          <path class="cls-2" d="M53.9,244.3c.9,3.4-2.4,7.1-7.2,8.1-4.8,1.1-9.4-.8-10.3-4.2-.8-3.4,2.4-7.1,7.2-8.1,4.8-1.1,9.4.8,10.3,4.3Z"/>
        </g>
        <path d="M492.8,253.4c-2.6,0-4.7-2-4.7-4.4s2.1-4.4,4.7-4.4,4.7,2,4.7,4.4-2.1,4.4-4.7,4.4ZM492.8,245.2c-2.2,0-4,1.7-4,3.8s1.8,3.8,4,3.8,4-1.7,4-3.8-1.8-3.8-4-3.8ZM493.5,249.3l1,1.7s0,0,0,.1c0,.2-.2.3-.3.3s-.2,0-.3-.2l-1.1-1.9h-.9v1.7c0,.2-.2.3-.3.3s-.3-.1-.3-.3v-4.2c0-.2.2-.3.3-.3h1.4c1.2,0,1.6.6,1.6,1.2v.3c0,.5-.3,1-1.1,1.2ZM493.9,247.8c0-.3-.2-.7-1-.7h-1v1.7h1c.8,0,1-.4,1-.7v-.3Z"/>
      </g>
    </g>
  </g>
</svg>