<?xml version="1.0" encoding="UTF-8"?>
<svg xmlns="http://www.w3.org/2000/svg" version="1.1" viewBox="0 0 500 500">
  <defs>
    <style>
      .cls-1 {
        fill: #030104;
      }
    </style>
  </defs>
  <!-- Generator: Adobe Illustrator 28.7.1, SVG Export Plug-In . SVG Version: 1.2.0 Build 142)  -->
  <g>
    <g id="_Слой_1" data-name="Слой_1">
      <path class="cls-1" d="M455.6,14.2H44.4c-16.6,0-30.1,13.5-30.1,30.1v411.3c0,16.6,13.5,30.1,30.1,30.1h411.3c16.6,0,30.1-13.5,30.1-30.1V44.3c0-16.6-13.5-30.1-30.1-30.1ZM228.3,280c0,13.1-1.2,24.3-3.7,33.5s-6.3,16.6-11.3,22.4c-5,5.7-11.3,9.9-18.8,12.6-7.5,2.7-16.2,4-26.2,4s-16.7-1.4-23.8-4.1c-13.9-5.2-24.8-16.4-29.6-30.5-2.8-7.9-4.2-16.1-4-24.5v-5.9h28.2c0,26.3,9.7,39.5,29.2,39.5s9.4-.6,13.3-1.8c3.9-1.2,7.2-3.4,9.9-6.8,2.7-3.3,4.7-7.9,6.1-13.8s2.1-13.6,2.1-23.1v-147.2h28.6v145.6ZM386,322.7c-3,6-7.2,11.3-12.4,15.6-5.8,4.7-12.5,8.2-19.6,10.4-7.7,2.5-16.3,3.7-25.8,3.7-42.2,0-64.4-16.6-66.7-50h27.7c.1,18.8,13,28.3,38.7,28.3s10.8-.6,15.1-1.9c4.4-1.2,8-3,10.9-5.2,5.7-4.1,9-10.6,9-17.6.1-3.1-.5-6.1-1.7-8.9-1.1-2.3-3.4-4.3-6.7-6-4.4-2.2-9-3.9-13.7-5.1-7.6-2.2-15.2-4.3-22.9-6.3-9.2-2.3-17.1-4.6-23.8-6.8-5.9-1.8-11.4-4.6-16.4-8.3-4.2-3.1-7.5-7.2-9.5-12-2.1-4.8-3.1-10.8-3.1-18s1.4-12.3,4-17.8c2.7-5.4,6.5-10.2,11.6-14.2,5-4,11.1-7.1,18.2-9.4,7.7-2.4,15.8-3.5,23.9-3.4,40.8,0,61.5,14.5,62.2,43.5h-27.3c-1-14.5-11.9-21.8-32.8-21.8s-8.9.5-12.9,1.4-7.4,2.2-10.3,4c-2.9,1.7-5.2,3.9-6.8,6.4-1.6,2.6-2.5,5.7-2.4,8.8,0,3,.4,5.5,1.1,7.5.7,2,2.5,3.8,5.4,5.4,2.9,1.7,7.1,3.3,12.7,5s13.3,3.6,23,6c9.4,2.3,17.6,4.6,24.5,7.1,6.9,2.5,12.6,5.4,17.3,8.9,4.6,3.4,8,7.7,10.2,12.6,2.2,5,3.3,11.2,3.3,18.7,0,7.1-1.4,13.5-4.3,19.5h0Z"/>
    </g>
  </g>
</svg>