<?xml version="1.0" encoding="UTF-8"?>
<svg xmlns="http://www.w3.org/2000/svg" version="1.1" viewBox="0 0 500 500">
  <!-- Generator: Adobe Illustrator 28.7.1, SVG Export Plug-In . SVG Version: 1.2.0 Build 142)  -->
  <g>
    <g id="_Слой_1" data-name="Слой_1">
      <path d="M36.2,243.7c-1.2-1.3-2.7-2.3-4.4-3.1s-3.4-1.1-5.2-1.1c-1.8,0-3.6.3-5.2,1-1.7.7-3.2,1.8-4.4,3.1-1.3,1.3-2.3,2.8-2.9,4.4-.7,1.7-1,3.5-1,5.2,0,1.8.3,3.6,1,5.2.7,1.7,1.7,3.2,3,4.4,2.5,2.6,6,4.1,9.6,4,3.6,0,7.1-1.4,9.6-4,1.3-1.2,2.3-2.7,3-4.4s1-3.4,1-5.2-.3-3.6-1-5.2c-.7-1.7-1.7-3.2-3-4.4h0ZM197.1,212.5c-.2,8.6.2,17.3,1.2,25.9h-.5c-1.1-2.1-3.5-6-7.1-11.8L103.1,88.9h-26.6v175.8h20.5v-127.1c.2-8-.1-16.1-1-24.1h.8c1.5,3.8,3.3,7.5,5.6,11l90.1,140.2h25.2V88.9h-20.5v123.6ZM356.4,245.3h-72.3v-60.9h63.3v-18.5h-63.3v-58.4h67.9v-18.6h-88.9v175.8h93.2v-19.3ZM372,88.9v18.6h50.4v157.1h20.5V107.5h51v-18.6h-121.8ZM171.5,308.3c-5.1,2-9.7,5.1-13.5,9.1-3.9,4.2-7,9.1-9,14.5-2,5.4-2.9,11.2-2.7,16.9-.4,10.6,3.3,21,10.4,28.9,3.5,3.7,7.8,6.6,12.6,8.5,4.8,1.9,9.9,2.8,15,2.5,7.7.3,15.3-1.3,22.3-4.7v-9c-6.3,3.7-13.6,5.6-21,5.4-4,.2-7.9-.5-11.6-2-3.7-1.5-7-3.8-9.7-6.7-5.6-6.5-8.5-15-8.1-23.6-.5-9.1,2.7-18,8.7-24.9,2.8-3.2,6.3-5.6,10.2-7.3,3.9-1.7,8.1-2.5,12.3-2.3,6.7-.1,13.3,1.5,19.2,4.8v-9.7c-6.1-2.5-12.7-3.6-19.2-3.4-5.5,0-11,.9-16.1,2.9h0ZM267.3,335.9c-5.2-5.5-12.5-8.4-20.1-8-4-.2-7.9.5-11.6,1.9-3.7,1.4-7,3.6-9.9,6.3-2.8,3.1-4.9,6.7-6.3,10.6s-2,8-1.7,12.2c-.4,7.9,2.3,15.6,7.6,21.5,2.6,2.8,5.8,5,9.3,6.5,3.5,1.5,7.3,2.2,11.2,2,3.9.1,7.8-.6,11.4-2.1,3.6-1.5,6.8-3.8,9.5-6.7,5.4-6.1,8.2-14,7.8-22.2.5-8.1-2.1-16-7.2-22.1h0ZM260.3,375.4c-3.4,4-8.5,6.1-13.7,5.8-2.7.1-5.3-.4-7.7-1.4-2.4-1-4.6-2.6-6.3-4.6-3.7-4.6-5.5-10.3-5.2-16.2-.3-6,1.5-12,5.2-16.8,1.7-2,3.9-3.6,6.3-4.7,2.4-1,5.1-1.5,7.7-1.4,2.6-.2,5.2.3,7.6,1.4s4.5,2.6,6.2,4.6c3.5,4.8,5.2,10.7,4.8,16.7.4,5.8-1.3,11.7-4.8,16.5h0ZM304.9,332.1c-2.9,2.6-5,5.9-6,9.7v-12.1h-9.6v57.9h9.6v-29.5c-.3-5.3,1.1-10.7,3.9-15.2,1-1.7,2.4-3,4.1-4s3.6-1.5,5.5-1.6c2.5-.2,4.9.5,7,1.8v-9.5c-1.8-.6-3.6-.8-5.5-.8-3.3,0-6.5,1.2-9,3.3ZM375.7,356c.5-7.3-1.7-14.6-6.2-20.4-2.2-2.5-4.9-4.4-7.9-5.7s-6.3-1.8-9.6-1.7c-3.6-.1-7.2.6-10.6,2.1-3.3,1.5-6.3,3.7-8.7,6.4-5.2,6.1-7.9,13.9-7.6,22-.5,8,2,15.9,7,22.2,2.4,2.7,5.4,4.7,8.7,6.1s6.9,2,10.5,1.8c7.1.3,14.2-1.6,20.1-5.5v-8.7c-5.1,4.1-11.4,6.4-17.9,6.5-2.5.2-5-.2-7.4-1.2s-4.5-2.3-6.3-4.1c-3.4-4.2-5.2-9.5-4.9-14.8h40.7v-5ZM335,353.3c.5-4.6,2.5-8.9,5.7-12.2,2.9-3.1,6.9-4.8,11.1-4.7,2-.1,4,.2,5.8,1s3.5,1.9,4.8,3.4c2.7,3.6,4,8,3.8,12.4h-31.2Z"/>
    </g>
  </g>
</svg>