<?xml version="1.0" encoding="UTF-8"?>
<svg xmlns="http://www.w3.org/2000/svg" version="1.1" viewBox="0 0 500 500">
  <defs>
    <style>
      .cls-1 {
        fill: #707070;
      }
    </style>
  </defs>
  <!-- Generator: Adobe Illustrator 28.7.1, SVG Export Plug-In . SVG Version: 1.2.0 Build 142)  -->
  <g>
    <g id="_Слой_1" data-name="Слой_1">
      <g>
        <path d="M248.2,4.7c-125.2,0-117.4,54.3-117.4,54.3v56.2h119.6v16.9H83.5S3.4,123,3.4,249.4s69.9,121.8,69.9,121.8h41.7v-58.6s-2.2-69.9,68.8-69.9h118.5s66.6,1.1,66.6-64.3v-108.2S379.1,4.7,248.2,4.7ZM182.4,42.5c11.9,0,21.5,9.6,21.5,21.5,0,0,0,0,0,0,0,11.9-9.6,21.5-21.5,21.5,0,0,0,0,0,0-11.9,0-21.5-9.6-21.5-21.5,0,0,0,0,0,0,0-11.9,9.6-21.5,21.5-21.5,0,0,0,0,0,0Z"/>
        <path class="cls-1" d="M251.8,495.3c125.2,0,117.4-54.3,117.4-54.3v-56.2h-119.6v-16.9h166.9s80.1,9.1,80.1-117.2-69.9-121.8-69.9-121.8h-41.7v58.6s2.2,69.9-68.8,69.9h-118.5s-66.6-1.1-66.6,64.3v108.2s-10.1,65.5,120.7,65.5h0ZM317.7,457.5c-11.9,0-21.5-9.6-21.5-21.5h0c0-11.9,9.6-21.5,21.5-21.5h0c11.9,0,21.5,9.6,21.5,21.5h0c0,11.9-9.6,21.5-21.5,21.5h0Z"/>
      </g>
    </g>
  </g>
</svg>