<?xml version="1.0" encoding="UTF-8"?>
<svg xmlns="http://www.w3.org/2000/svg" version="1.1" viewBox="0 0 500 500">
  <!-- Generator: Adobe Illustrator 28.7.1, SVG Export Plug-In . SVG Version: 1.2.0 Build 142)  -->
  <g>
    <g id="_Слой_1" data-name="Слой_1">
      <g>
        <path d="M498.5,248.7c0-32.9-41.2-64.1-104.5-83.5,14.6-64.4,8.1-115.7-20.5-132.1-6.6-3.8-14.3-5.7-22.7-5.7v22.6c4.7,0,8.4.9,11.5,2.6,13.8,7.9,19.8,38,15.1,76.7-1.1,9.5-2.9,19.6-5.2,29.8-19.9-4.9-41.5-8.6-64.3-11-13.7-18.7-27.9-35.8-42.1-50.7,33-30.7,64-47.5,85.1-47.5v-22.6c-27.9,0-64.3,19.9-101.2,54.3-36.9-34.2-73.4-53.9-101.2-53.9v22.6c21,0,52.1,16.7,85.1,47.2-14.2,14.9-28.4,31.8-41.8,50.6-22.9,2.4-44.6,6.2-64.4,11.1-2.3-10.1-4.1-20-5.3-29.4-4.8-38.7,1.1-68.8,14.8-76.8,3-1.8,7-2.6,11.7-2.6v-22.6c-8.5,0-16.2,1.8-22.9,5.7-28.5,16.4-34.9,67.6-20.2,131.8C42.5,184.8,1.5,215.9,1.5,248.7s41.2,64.1,104.5,83.5c-14.6,64.4-8.1,115.7,20.5,132.1,6.6,3.8,14.3,5.7,22.8,5.7,27.9,0,64.3-19.9,101.2-54.3,36.9,34.2,73.4,53.9,101.2,53.9s16.2-1.8,22.9-5.7c28.5-16.4,34.9-67.6,20.2-131.8,62.8-19.4,103.8-50.6,103.8-83.4h0ZM366.6,181.2c-3.7,13.1-8.4,26.5-13.7,40-4.2-8.1-8.5-16.2-13.3-24.3-4.7-8.1-9.6-16-14.6-23.7,14.4,2.1,28.3,4.8,41.5,8h0ZM320.2,289.1c-7.9,13.7-16,26.6-24.4,38.7-15.1,1.3-30.4,2-45.8,2s-30.6-.7-45.6-1.9c-8.4-12.1-16.6-24.9-24.5-38.5-7.7-13.3-14.7-26.7-21.1-40.3,6.3-13.6,13.4-27.2,21-40.4,7.9-13.7,16-26.6,24.4-38.7,15.1-1.3,30.4-2,45.8-2s30.6.7,45.6,1.9c8.4,12.1,16.6,24.9,24.5,38.5,7.7,13.3,14.7,26.7,21.1,40.3-6.4,13.6-13.4,27.2-21,40.4h0ZM352.9,275.9c5.5,13.6,10.1,27.2,14,40.3-13.3,3.2-27.3,6-41.7,8.1,5-7.8,9.9-15.8,14.6-24,4.7-8.1,9-16.3,13.2-24.4h0ZM250.2,384c-9.4-9.7-18.8-20.6-28.2-32.4,9.1.4,18.4.7,27.9.7s18.9-.2,28.2-.7c-9.1,11.9-18.5,22.7-27.9,32.4ZM174.8,324.3c-14.4-2.1-28.3-4.8-41.5-8,3.7-13.1,8.4-26.5,13.7-40,4.2,8.1,8.5,16.2,13.3,24.3s9.6,16,14.6,23.7ZM249.7,113.5c9.4,9.7,18.8,20.6,28.2,32.4-9.1-.4-18.4-.7-27.9-.7s-18.9.2-28.2.7c9.1-11.9,18.5-22.7,27.9-32.4ZM174.7,173.2c-5,7.8-9.9,15.8-14.6,24-4.7,8.1-9,16.2-13.2,24.3-5.5-13.6-10.1-27.2-14-40.3,13.3-3.1,27.3-5.9,41.7-8h0ZM83,300c-35.9-15.3-59.1-35.4-59.1-51.3s23.2-36.1,59.1-51.3c8.7-3.7,18.2-7.1,28.1-10.2,5.8,19.9,13.4,40.5,22.8,61.7-9.3,21.1-16.8,41.6-22.5,61.4-10-3.1-19.6-6.6-28.4-10.3h0ZM137.5,444.8c-13.8-7.9-19.8-38-15.1-76.7,1.1-9.5,2.9-19.6,5.2-29.8,19.9,4.9,41.5,8.6,64.3,11,13.7,18.7,27.9,35.8,42.1,50.7-33,30.7-64,47.5-85.1,47.5-4.6-.1-8.4-1-11.4-2.7h0ZM377.9,367.6c4.8,38.7-1.1,68.8-14.8,76.8-3,1.8-7,2.6-11.7,2.6-21,0-52.1-16.7-85.1-47.2,14.2-14.9,28.4-31.8,41.8-50.6,22.9-2.4,44.6-6.2,64.4-11.1,2.3,10.2,4.2,20.1,5.3,29.5ZM416.9,300c-8.7,3.7-18.2,7.1-28.1,10.2-5.8-19.9-13.4-40.5-22.8-61.7,9.3-21.1,16.8-41.6,22.5-61.4,10,3.1,19.6,6.6,28.5,10.3,35.9,15.3,59.1,35.4,59.1,51.3-.1,15.9-23.3,36.1-59.2,51.3h0Z"/>
        <circle cx="249.9" cy="248.7" r="46.3"/>
      </g>
    </g>
  </g>
</svg>