<?xml version="1.0" encoding="UTF-8"?>
<svg xmlns="http://www.w3.org/2000/svg" version="1.1" viewBox="0 0 500 500">
  <defs>
    <style>
      .cls-1 {
        fill: #8a8d8e;
      }

      .cls-2 {
        fill: #5e5e5e;
      }
    </style>
  </defs>
  <!-- Generator: Adobe Illustrator 28.7.1, SVG Export Plug-In . SVG Version: 1.2.0 Build 142)  -->
  <g>
    <g id="_Слой_1" data-name="Слой_1">
      <path d="M191.4,239.6c-6.6,0-11.9,1.9-16,5.8-4.1,3.9-6.2,9-6.2,15.2s.5,6.2,1.5,8.9c1,2.7,2.6,5.2,4.7,7.5,2.1,2.3,6.4,5.4,12.7,9.3,7.8,4.8,12.9,8.6,15.3,11.6,2.4,3,3.7,6.2,3.7,9.5s-1.4,7.9-4.4,10.6c-3,2.6-7,4-11.9,4s-9.8-1.8-13.7-5.5c-3.9-3.7-5.9-8.5-5.9-14.6h-2.4v22h2.4c.7-2.1,1.8-3.2,3.1-3.2s2.2.4,4.5,1.3c5.7,2,10.4,3,14.1,3,6.4,0,11.8-2.2,16.4-6.8,4.5-4.5,6.8-10,6.8-16.4s-1.5-9.4-4.5-13.2c-3-3.8-8.7-8.3-17.3-13.5-7.4-4.5-12.2-8.1-14.4-10.9-2.2-2.8-3.4-5.9-3.4-9.4s1.4-6.7,4-8.9c2.7-2.2,6.2-3.3,10.6-3.3s9.1,1.5,12.3,4.4c3.3,3,5.2,7.1,5.7,12.3h2.4v-19.1h-2.3c-.3,1-.5,1.6-.8,1.9-.2.3-.7.4-1.3.4s-2.2-.3-4.2-1c-4.3-1.4-8.2-2.2-11.8-2.2h0ZM270.7,239.6c-8,0-15.3,1.9-21.8,5.7-6.6,3.8-11.8,9-15.6,15.7-3.8,6.7-5.7,13.7-5.7,21.3s3.3,19.2,10,27.1c6.7,7.9,14.7,12.8,24,14.7,2.1,1.1,5.2,4,9.2,8.6,4.5,5.2,8.3,9,11.4,11.2,3.1,2.2,6.4,3.9,10,5,3.6,1.1,7.4,1.6,11.6,1.6s9.6-.9,13.5-2.7l-.9-2.2c-2.3.8-4.8,1.2-7.4,1.2s-7.1-1.2-10.6-3.5c-3.6-2.3-8-6.8-13.3-13.4-2.5-3.2-4.2-5.1-5.2-5.9,10.2-2,18.6-6.9,25.1-14.8,6.5-7.9,9.8-16.9,9.8-27s-4.3-22.1-12.7-30.3c-8.5-8.2-18.9-12.3-31.3-12.3h0ZM320.2,239.6v2.6c5.5,0,8.4,1.6,9.1,4.7.2,1.1.4,3.2.4,6.2v57.4c0,4.3-.7,7-1.9,8.2-1.2,1.2-3.2,1.9-6,2.2v2.6c-.1,0,53,0,53,0l1.4-13h-2.4c-.7,3.5-2.3,6.1-4.8,7.5-2.5,1.5-7,2.2-13.5,2.2h-5c-5.8,0-9.2-2.1-10.1-6.3-.2-.8-.2-1.7-.3-2.7l.2-58.1c0-4.3.5-7.2,1.7-8.6,1.1-1.4,3.2-2.2,6.1-2.4v-2.6h-27.8ZM271.5,242.8c9,0,16.4,3.6,22.1,10.7,5.7,7.2,8.5,17,8.5,29.5s-2.9,21.3-8.6,28.4c-5.7,7.1-13.4,10.6-22.9,10.6s-16.5-3.7-22.2-11c-5.7-7.3-8.5-16.9-8.5-28.6s2.8-21.7,8.6-28.9c5.7-7.2,13.4-10.8,23-10.8h0ZM393.7,255.1c-1.3,0-2.3.4-3,1.3-.8.9-1,1.9-.7,3.2.3,1.3,1,2.4,2.1,3.3,1.1.9,2.3,1.4,3.6,1.4s2.2-.5,2.9-1.4c.7-.9.9-2,.6-3.3-.3-1.3-.9-2.4-2-3.2-1.1-.9-2.2-1.3-3.5-1.3h0ZM428.8,264c-2.2,8.5-7,13.1-14.3,13.8v2.4h8.6l-.2,28.7c0,4.9.2,8.2.5,9.8.8,4,3.4,6,7.8,6,6.3,0,12.9-3.8,19.8-11.5l-2.1-1.8c-5,5-9.4,7.6-13.2,7.6s-3.8-1.4-4.4-4c-.2-.7-.2-1.4-.2-2.3v-32.5h13.2v-3.9h-13v-12.3h-2.5ZM479.3,274.8c-7.3,0-13.3,3.6-17.9,10.6-4.6,7.1-6,14.9-4.2,23.5,1.1,5,3.2,9,6.4,11.7,3.2,2.8,7.3,4.1,12.3,4.1s10.9-1.2,13.6-3.5c2.7-2.3,5.2-6.1,7.5-11.3l-1.8-1.9c-3.6,6.7-11,10.1-16.6,10.1s-12.3-4.2-14.1-12.5c-.2-1.1-.4-2.3-.5-3.4,9.1-1.4,16-4,20.6-7.7,4.6-3.7,9.3-7.6,8.4-11.7-.5-2.5-1.8-4.4-3.7-5.8-2-1.5-7.1-2.2-10-2.2h0ZM399.4,275.1l-15.8,3.6v2.8l5.4-.7c2.6,0,4.2,1.2,4.7,3.6.2.8.3,1.9.3,3.3l-.2,25.8c0,3.6-.4,5.6-1.2,6.3-.8.6-2.9.9-6.3.9v2.4c0,0,24.9,0,24.9,0v-2.4c-3.5,0-5.8-.3-6.8-.8-1-.5-1.7-1.5-2-3-.2-1.1-.3-2.9-.3-5.4v-36.4c0,0-2.8,0-2.8,0h0ZM475.3,279.8c1.5,0,3,.6,4.5,1.7,1.5,1.2,2.3,2.4,2.6,3.8,1.4,6.8-4.6,11.6-18.3,14.2-.4-5,.5-9.5,2.7-13.6,2.2-4.1,5-6.2,8.5-6.2h0Z"/>
      <path class="cls-2" d="M156.1,141.3H20.5c-9.1,0-16.5,7.4-16.5,16.5v149.5c0,9.1,7.4,16.5,16.5,16.5h89.3c-1-44.4,14.2-130.7,46.3-182.6h0Z"/>
      <path class="cls-1" d="M151.1,146.1H20.5c-6.5,0-11.7,5.2-11.7,11.7v138.6c29.6-11.4,74-21.2,104.7-20.7,6.2-32.3,24.3-95.5,37.6-129.6h0Z"/>
      <path d="M187.7,136.4c-9.3-8.3-20.5-5-31.6,4.9-1.6,1.5-3.3,3.1-4.9,4.8-19,20.1-36.6,57.4-42.1,85.9,2.1,4.3,3.8,9.8,4.9,14.1.3,1.1.5,2.1.7,3,.5,2,.7,3.4.7,3.4,0,0-.2-.6-.9-2.7-.1-.4-.3-.8-.5-1.3,0-.2-.2-.5-.3-.7-1.2-2.9-4.7-9-6.2-11.6-1.2,3.5-2.3,7-3.4,10.6,4.4,8,7,21.6,7,21.6,0,0-.2-.9-1.3-4-1-2.7-5.8-11.2-7-13.2-2,7.2-2.7,12.1-2,13.3,1.4,2.3,2.7,6.3,3.8,10.7,2.6,9.9,4.4,22,4.4,22,0,0,0,.8.2,2-.4,8.3-.1,16.9.5,24.7.9,10.3,2.5,19.2,4.5,23.9l1.4-.8c-3-9.3-4.2-21.6-3.7-35.7.8-21.6,5.8-47.6,15-74.8,15.5-41,37-73.8,56.7-89.5-18,16.2-42.2,68.7-49.5,88.1-8.1,21.8-13.9,42.2-17.4,61.7,6-18.3,25.4-26.2,25.4-26.2,0,0,9.5-11.7,20.6-28.5-6.7,1.5-17.6,4.1-21.3,5.7-5.4,2.3-6.9,3-6.9,3,0,0,17.5-10.7,32.5-15.5,20.7-32.5,43.2-78.7,20.5-99"/>
    </g>
  </g>
</svg>