<?xml version="1.0" encoding="UTF-8"?>
<svg xmlns="http://www.w3.org/2000/svg" version="1.1" xmlns:xlink="http://www.w3.org/1999/xlink" viewBox="0 0 500 500">
  <defs>
    <style>
      .cls-1 {
        fill: #8e8e8e;
      }

      .cls-2 {
        fill: #231f1f;
      }

      .cls-3 {
        fill: url(#linear-gradient);
      }
    </style>
    <linearGradient id="linear-gradient" x1="149.4" y1="359.5" x2="149.4" y2="359.5" gradientTransform="translate(-64552.8 -155873.9) scale(433.7)" gradientUnits="userSpaceOnUse">
      <stop offset="0" stop-color="#939fab"/>
      <stop offset="1" stop-color="#dcdee1"/>
    </linearGradient>
  </defs>
  <!-- Generator: Adobe Illustrator 28.7.1, SVG Export Plug-In . SVG Version: 1.2.0 Build 142)  -->
  <g>
    <g id="_Слой_1" data-name="Слой_1">
      <path class="cls-1" d="M337.3,158.1l-54.5,17.8-47.4,20.9-13.2,3.5c-3.4,3.2-6.9,6.5-10.8,9.7-4.2,3.6-8.1,6.9-11.1,9.3-3.4,2.7-8.2,7.6-10.8,10.7-3.8,4.7-6.8,9.7-8,13.5-2.3,6.9-1.2,13.9,3.2,20.4,5.5,8.2,16.8,16.6,29.7,22.3,6.6,3,17.8,6.6,26.2,8.8,13.9,3.5,40.9,7.4,55.8,8,3,.1,7,.1,7.2,0,.3-.3,2.7-4.6,5.3-10.1,9.2-18.6,15.7-36.2,19.3-51.1,2.2-9.1,3.8-21.1,5-35.4.3-4.1.4-17.4.1-21.9-.4-7.4-1.1-13.4-2-19.3-.1-.8-.3-1.6-.1-1.6.1-.1.7-.3,7.4-2.2l-1.4-3.4ZM324.9,165.4c.5,0,1.8,12.7,2.2,20.7.1,1.6,0,2.8,0,2.8-.3,0-6.9-3.9-11.8-6.9-4.1-2.6-11.9-7.8-13.1-8.8q-.4-.3,3-1.5c5.7-2,19.2-6.4,19.7-6.4ZM297.1,174.6c.4,0,1.4.5,3.6,1.9,8.5,5.3,20,11.8,25,13.9,1.5.7,1.6.4-1.8,2.8-7.4,5.1-16.9,10.1-28.2,15.1-2,.9-3.6,1.6-3.8,1.6s.1-1.1.5-2.3c2.7-10.3,4.3-20.7,4.5-28.9q-.3-4.2.1-4.2h0ZM291.4,176.8c.3.3.1,9.5-.3,12-.7,5.9-1.9,11.6-3.8,18-.4,1.5-.8,2.8-.9,2.8-.1.3-5.8-5.3-7.7-7.4-3.2-3.6-5.7-7.4-7.6-11.1-.9-1.9-2.4-5.5-2.3-5.5.7-.5,22.4-8.9,22.6-8.8h0ZM264.5,187.3c.3.1.5.8.7,1.5,1.4,3.6,4.3,8.9,6.9,12.2,2.8,3.6,6.5,7.7,9.5,10.3.9.8,1.9,1.6,2,1.8q.3.3-6.4,2.7c-7.8,3-16.2,5.9-25.9,9.1-2.3.8-4.6,1.5-6.9,2.3-.4.1-.3-.1.8-1.8,4.9-7.6,12.2-22.3,16.2-32.8.7-1.8,1.4-3.6,1.5-4.1.1-.5.4-.8.9-1.1.3.1.5,0,.7,0h0ZM256.3,190.7c.1.1-2,4.5-4.1,8.5-4.1,7.8-8.4,15.4-14.2,24.7-.9,1.6-1.9,3.1-2,3.2q-.3.3-.9-1.1c-1.4-2.7-2.6-6.4-3.1-9.6-.7-3.2-.5-8.8.3-12.3q.5-2.6,1.8-3.1c5-2.6,22-10.5,22.3-10.4h0ZM327.2,193.7v1.8c0,9.2-.9,21.8-2.4,30.9-.3,1.6-.4,3-.5,3,0,0-1.2-.3-2.6-.7-6.2-1.9-12.8-4.7-18.9-8.1-4.1-2.2-9.9-5.8-9.6-5.9,0,0,1.8-.9,3.8-2,8.1-4.2,15.8-8.8,22.6-13.2,2.6-1.6,6.4-4.5,7.2-5.1l.5-.5ZM225.2,205.8c.1,0,.1.3-.1,1.8-.1,1.1-.4,3.1-.4,4.5-.3,5.9.7,10.4,3.6,16.5.8,1.6,1.5,3.1,1.5,3.1-.3.3-27.6,8.2-36.1,10.5-2.6.7-4.7,1.4-5,1.4-.3.1-.3,0-.3-.7.9-6.1,5.5-13.9,12-20.7,4.3-4.5,7.7-7,13.5-10.4,4.2-2.2,10.5-5.8,11.2-5.9q-.1,0,0,0h0ZM289.4,217.3s1.1.5,2.2,1.2c8.8,5.1,21.1,9.9,31.5,12.3l.9.3-1.4.7c-5.5,3.1-23.5,10.5-41.9,17.4-2.7.9-5.3,2-5.8,2.2-.5.3-.9.3-.9.3,0,0,.7-1.5,1.6-3.2,5.1-9.6,10.3-21.4,13-29.5.5-.9.8-1.6.8-1.6h0ZM282.9,219.5s-.3.9-.7,1.9c-3.6,8.6-8.2,18.1-14.3,28.8-1.5,2.7-2.8,4.9-2.8,4.9,0,0-1.2-.7-2.7-1.6-8.8-5.4-16.5-11.9-21.5-18.4l-.7-.9,3.8-1.1c13.4-3.6,24.9-7.6,36.2-12.4,1.2-.5,2.6-1.1,2.7-1.1h0ZM323.5,233.7c0,.9-2,9.5-3.8,15.5-1.5,5.1-2.7,9.2-5,16.4-.9,3.1-1.9,5.7-1.9,5.7,0,0-.3,0-.5-.1-12.2-2.2-23.2-5.3-33.5-9.5-2.8-1.2-7-3-7.3-3.2s2.4-1.2,5.5-2.6c18.8-8.2,38.1-17.4,44.9-21.5.8-.4,1.5-.7,1.6-.7h0ZM229.6,236.9c.1.1-5.1,7.6-12.4,17.8-2.6,3.6-5.5,7.8-6.6,9.3-1.1,1.6-2.8,4.1-3.8,5.5l-1.8,2.7-1.9-1.6c-2.2-1.8-5.9-5.7-7.7-7.8-3.5-4.5-5.9-9.1-6.9-13.2-.4-2-.4-3,0-3.1.7-.1,11.6-2.7,21.9-5.1,5.7-1.4,12.3-2.8,14.7-3.5,2.4-.5,4.3-.9,4.5-.9h0ZM234.9,238.9l1.4,1.5c5.9,6.6,12,11.5,19.3,15.8,1.4.7,2.3,1.4,2.2,1.5-.3.3-25.4,9.2-37.2,13.1-6.5,2.3-11.9,4.2-12,4.2l-.8-.5-.7-.5,1.2-1.8c3.9-5.5,8.8-11.8,19.3-24.5l7.3-8.8ZM267.7,262.4s1.9.7,4.1,1.5c5.4,2,9.6,3.2,15.3,4.7,7,1.8,17.2,3.5,23.1,4.1.9.1,1.4.1,1.2.3-.3.1-6.4,2.2-10.8,3.6-7,2.2-28.6,8.6-46.4,13.6-3.2.9-6.1,1.8-6.2,1.8-.4.1-1.8-.3-1.8-.4s.9-1.4,2.2-2.7c5.9-7,11.8-15,16.8-22.4,1.4-2.4,2.6-4.1,2.6-4.1h0ZM260.4,262.6s-2.8,4.7-8,12.8c-2.2,3.4-4.6,7.3-5.5,8.6-.8,1.4-2,3.4-2.7,4.6l-1.2,2.2h-.7c-1.5-.5-11.9-4.2-14.6-5.3-3.4-1.4-6.9-3-9.6-4.5-3.2-1.8-7.4-4.5-7-4.5s5.7-1.6,12.6-3.4c18-4.9,28-7.7,34.6-9.9,1.1-.5,2.2-.8,2.2-.8h0ZM311.7,274.6c.3.4-6.5,18.9-8.9,24.7-.5,1.4-.7,1.6-1.1,1.6-.7,0-10.4-1.4-16.2-2.3-10.3-1.6-27.4-4.6-31.8-5.5l-.9-.3,6.1-1.4c13.2-3,19.5-4.6,25.9-6.5,8.1-2.4,16.1-5.5,24.2-9.3,1.4-.5,2.4-1.1,2.7-1.1Z"/>
      <path class="cls-3" d="M281.1,31.2c-.9-.1-15.5,5.1-25,8.9-12.7,5.1-22.6,10.1-28.6,14.5-2.3,1.6-5.1,4.5-5.5,5.5-.1.4-.3.9-.3,1.4l5.5,5.3,13.1,4.2,31.2,5.5,35.7,6.1.4-3.1h-.3l-4.7-.7-.9-1.6c-4.9-8.5-10.3-19.2-13.4-26.4-2.4-5.5-4.7-12-5.9-16.6-.7-2.8-.8-3-1.2-3h0ZM280.4,33.2c.1,0,.3,1.2.4,2.6.7,5.8,2,11.4,4.1,17.3,1.5,4.6,1.5,4.3-.3,3.8-4.2-1.2-23-4.5-36.6-6.4-2.2-.3-4.1-.5-4.1-.7-.1-.1,9.9-5.4,14.2-7.4,5.7-2.6,21.2-8.9,22.3-9.2h0ZM240.7,51.8l1.6.5c8.8,3,30.7,7.2,42.8,8.1,1.4.1,2.6.3,2.6.3,0,0-1.1.7-2.6,1.4-5.8,3-12.3,6.5-16.8,9.3-1.4.8-2.6,1.5-2.7,1.5s-1.1-.1-1.9-.3l-1.6-.3-4.1-4.1c-7.3-7-13-12.4-15.1-14.6l-2.3-1.9ZM239.1,53l5.8,7.3c3.1,4.1,6.4,7.8,7,8.8.7.8,1.2,1.6,1.2,1.6-.1.1-8.4-1.5-12.7-2.4-4.5-1.1-6.4-1.5-9.1-2.4l-2.3-.7v-.5c0-2.7,3.5-6.9,9.5-11.1l.5-.5ZM288.4,62.8c.1,0,.4.4.8,1.5,1.4,3.1,5.8,11.4,6.9,13,.3.5.9.5-4.9-.4-13.9-2.3-18.4-3-18.4-3.1,0,0,.4-.3.9-.7,4.3-2.4,8.6-5.4,12.6-8.6.9-.8,1.8-1.5,2-1.6-.1,0,0,0,0,0Z"/>
      <path d="M222.2,59.5s-.9,1.5,0,3.6c.5,1.4,2.2,3,3.9,4.6,0,0,18.4,17.8,20.5,20.4,10.1,11.8,14.6,23.2,15,39.1.3,10.3-1.6,19.2-6.5,29.6-8.5,18.6-26.6,39.3-54.5,62.2l4.1-1.4c2.6-2,6.2-4.1,14.6-8.6,19.5-10.7,41.2-20.4,68-30.4,38.5-14.5,101.9-31.5,138-37l3.8-.5-.5-.9c-3.2-5.1-5.5-8.2-8.2-11.6-7.8-9.9-17.4-17.7-29.2-24.3-16.1-9.1-37-16.1-63.5-21.4-5-.9-15.9-2.8-24.9-4.2-18.9-3-31.1-5-44.5-7.3-4.9-.8-12-2-16.8-3.1-2.4-.5-7.2-1.6-10.9-3-3.2-.9-7.4-2.2-8.4-5.7h0ZM232.9,69.9s.7.3,1.6.5c1.6.5,3.6,1.2,5.9,1.8,1.8.5,3.6.9,5.4,1.5,2.4.7,4.6,1.2,4.6,1.2.3.3,4.5,13.6,5.8,18.6.5,1.9.9,3.6.9,3.6,0,0-.5-.7-1.1-1.6-4.9-8.5-12.4-17-21.2-24.1-1.2-.9-2-1.6-2-1.6h0ZM253.1,75.4c.3,0,1.1.1,2.2.4,7,1.6,19.6,3.9,27.6,5.3,1.4.3,2.4.4,2.4.5s-.5.4-1.1.7c-1.4.7-6.9,3.9-8.6,5.1-4.6,3.1-8.6,6.4-11.6,9.3l-2.2,2.2s-.3-.7-.4-1.6c-1.5-5.7-4.6-14.2-7.4-20.1-.5-.8-.9-1.8-.8-1.8q-.1,0,0,0h0ZM288.7,82.2c.3.1.7,1.5,1.5,4.6,1.5,5.9,2.2,12.7,2,18.9-.1,1.8-.1,3.4-.3,3.5v.4c-.1,0-2.3-.7-2.3-.7-4.5-1.4-11.6-3.5-17.7-5.3-3.5-.9-6.4-1.8-6.4-1.9,0-.3,5.1-5.4,7.3-7.3,4.2-3.6,15.5-12.4,15.8-12.3h0ZM291.5,82.6c.1-.1,17,2.8,24.7,4.3,5.7,1.1,14.1,2.8,14.6,3.1s-.7.5-3.4,1.8c-10.8,4.9-18.9,9.3-27,14.6-2.2,1.4-3.9,2.6-3.9,2.6,0,0-.1-1.2-.1-2.6,0-7.8-1.6-15.7-4.5-22.4-.1-.7-.4-1.2-.4-1.4ZM335.3,91.2c.1.1-.4,3.5-.9,5.4-1.5,6.1-5.5,15.3-10.4,23.8-.8,1.5-1.6,2.7-1.8,2.8-.1,0-1.2-.5-2.4-1.4-4.7-2.8-10.3-5.4-16.1-7.8-1.6-.7-3.1-1.2-3.1-1.4-.3-.3,13-9.1,20-13.2,5.5-3.4,14.6-8.4,14.7-8.2ZM338.4,91.8c.4,0,7.8,2,11.8,3.2,9.7,2.8,20.8,6.9,28,10.3l3,1.4-2.2.5c-17.7,4.1-32.8,8.8-47.4,14.7-1.2.5-2.3.9-2.3.9-.1,0,.3-.9.8-2.2,4.5-9.3,7.3-19.1,8-27.4.3-.8.4-1.5.4-1.5h0ZM263.8,108.9c.1-.1,5.8,1.2,8.9,2.2,4.7,1.4,14.6,4.6,14.6,4.9,0,0-1.1.9-2.4,2.2-5.4,4.5-10.5,9.2-16.8,15.3-1.9,1.8-3.4,3.2-3.5,3.2s-.1-.3-.1-.5c.9-6.9.7-15.8-.5-24.9,0-1.4-.1-2.3-.1-2.3h0ZM384.1,109.1c.1.1-2.7,4.3-4.3,6.8-2.4,3.5-6.1,8.2-14.3,18.5-4.3,5.4-9.2,11.6-10.8,13.6s-3,3.8-3.1,3.8c0,0-.5-.7-1.2-1.6-4.6-6.9-10.1-13-16.6-18.4-1.2-1.1-2.6-2.2-3.1-2.4-.4-.3-.8-.7-.8-.7,0-.1,7-3.1,12.3-5.3,9.3-3.8,22-8.4,31.5-11.2,5.1-1.8,10.5-3.2,10.5-3.1ZM387.3,109.9c.1,0,1.2.4,2.3,1.2,10,5.7,19.9,13.1,27.6,20.7,2.2,2.2,7.6,7.7,7.4,7.8,0,0-1.9.1-4.1.3-17.3,1.4-39.5,5-60.8,10.1-1.5.3-2.7.7-2.8.7s1.5-1.6,3.5-3.5c12.6-12,18.2-19.7,25-33.2.9-2.3,1.8-3.9,1.9-4.1q-.1,0,0,0h0ZM295.6,119.2c.5.1,5.9,2.7,10,4.6,3.6,1.9,9.3,4.9,9.6,5,0,0-1.9,1.1-4.3,2.3-7.7,3.9-14.3,7.6-21.4,11.8-2,1.2-3.6,2.2-3.6,2.2-.1,0-.1-.1.9-2.2,3.6-6.8,6.6-14.9,8.4-22.7.1-.5.3-.9.4-.9h0ZM290.3,120.3c.1.1-1.2,5.1-2.2,8-1.6,5.3-4.6,11.8-7.3,16.8-.7,1.2-1.6,2.8-2.2,3.8l-1.1,1.6-2.3-2.2c-2.7-2.6-4.9-4.2-7.7-5.7-1.1-.5-2-1.1-2-1.2,0-.3,7-6.8,12.4-11.4,3.9-3.4,12.2-9.9,12.3-9.7ZM323,133.7l2,1.4c4.6,3,10,7,14.2,10.5,2.3,1.9,6.9,5.9,7.8,7l.5.5-3.4.9c-18.9,5.3-33.4,9.9-50.4,16.1-1.9.7-3.5,1.2-3.6,1.2-.3,0-.4.3,3.8-3.6,10.8-10,20.5-21.1,27.7-31.8l1.4-2.3ZM314.4,135.8c.1.1-5.5,8-8.9,12.6-4.1,5.4-11.2,14.3-16.1,20.1-2,2.4-3.8,4.5-3.9,4.5s-.1-.5-.1-1.5c0-5-1.2-10.3-3.5-14.9-.9-1.9-1.1-2.3-.9-2.6.8-.7,12.7-7.6,20.4-11.6,5-2.7,13-6.8,13.1-6.6ZM262.3,148.5c.1,0,1.1.5,2.2,1.1,2.6,1.5,5,3.1,7,4.7.1.1-.9.9-2.4,2-3.9,2.8-9.9,7.3-13.2,10-3.6,2.8-3.8,3-3.4,2.3,2.7-4.2,4.1-6.5,5.5-9.5,1.2-2.7,2.6-5.8,3.5-8.6.3-1.1.7-2,.8-2h0ZM276.3,159.5c.3,0,.4.3,1.6,2,2.3,3.5,4.2,8.2,4.6,12v.8c.1,0-5.5,2.2-5.5,2.2-10.1,3.9-19.5,7.8-25.7,10.7-1.8.8-4.9,2.3-6.9,3.2-2,1.1-3.6,1.8-3.6,1.8,0,0,1.2-.9,2.8-2.2,12.3-8.9,23-18.8,30.9-28.5.8-1.1,1.6-2,1.8-2h0ZM269.9,161c.1.1-4.6,5.5-7.7,8.8-8,8.1-15.8,14.5-25.5,20.7-1.2.8-2.3,1.5-2.4,1.6-.3.1.1-.3,4.3-4.9,2.7-3,4.7-5.4,7.2-8.4,1.6-2,1.9-2.3,4.1-3.9,5.9-4.6,19.9-14.1,20.1-13.9Z"/>
      <path class="cls-2" d="M91.5,331.5c-.8,0-1.5.1-2.3.1-15.4.8-25.7,7.6-31.8,20.8-5.1,11.9-4.6,27.6,0,39.5,5.4,11.8,14.2,18,28.8,20.3,3.1.5,5.1,2.2,11.2,9.2l7.4,8.6h13.4l-8.9-8.9c-4.9-4.9-8.9-9.2-8.9-9.6s1.9-1.2,4.2-1.9c7.6-2.3,13.8-8.1,18.1-17,3.5-7.2,4.1-9.3,4.6-18.2,1.4-26.5-12.6-43-35.8-42.8h0ZM103.3,400.7c-6.5,3.1-15.9,3.8-22.2,1.5-6.4-2.3-12.6-8.9-15.4-16.5-3.1-8.2-2.7-23.4.9-30.1,5.7-10.8,13.2-15.8,24.2-15.8,16.2,0,25.5,10,26.8,28.6.9,15.7-4.3,27.4-14.3,32.3h0ZM334.5,354.1c-5.7,0-9.9,2.3-12.8,6.8l-2.3,3.5v-9.2h-9.7v55.3h9.7v-17.7c0-16.2.1-18.1,2.4-22.4,3.1-6.1,8.5-9.1,13.6-7.7l3.5.9v-9.6h-4.5ZM277.5,353.5c-1.9,0-3.9.3-5.9.7-13,3.4-20.3,15.8-19.9,28.6,0,10.7,2,16.1,7.3,21.8,10.5,8.6,20.1,9.3,33.1,4.7,2.2-.9,4.6-2,4.6-2v-8.6l-4.6,2.4c-10.4,4.6-18.4,4.6-24.7-.8-4.1-4.1-5.8-9.1-6.6-14.6h39.2v-7.4c0-15.3-9.2-24.9-22.4-24.7h0ZM261.7,377.8s1.5-9.5,6.8-13.2c2.6-1.8,5.5-2.7,8.5-2.7s5.8.9,8.2,2.8c4.9,3.8,5.8,13.1,5.8,13.1h-29.3ZM27.3,367.8c-10.5-6.4-15.3-10.9-14.6-16.4,1.6-15,20.1-13,30.4-7.3v-10.1c.1,0-5.5-2.4-13.6-2.6-12.4-.1-20.5,3.9-24.3,12.3-5.5,12.3-.7,21.6,17.2,31.9,10,5.8,14.5,10.8,14.5,16.4,0,11.4-13.6,15.3-27.8,8.2-3-1.5-5.4-2.7-5.5-2.7-.5,3.2-.3,10.9-.3,10.9,0,0,4.3,1.8,10.8,3.1,16.2,3.2,30.8-4.3,32.3-16.6,1.1-11.6-3.1-17.7-18.9-27.2h0ZM420.6,353.5c-1.9,0-3.9.3-5.9.7-13,3.4-20.3,15.8-19.9,28.6,0,10.7,2,16.1,7.3,21.6,10.5,8.6,20.1,9.5,33.2,4.7,2.2-.9,4.6-2,4.6-2v-8.6l-4.6,2.4c-10.5,4.6-18.4,4.6-24.7-.8-4.1-4.1-5.8-8.9-6.6-14.6h39.1v-7.4c0-15.3-9.2-24.9-22.4-24.6ZM404.6,377.7s1.5-9.5,6.8-13.2c2.6-1.9,5.5-2.7,8.4-2.7s5.8.9,8.2,2.8c4.9,3.8,5.8,13.1,5.8,13.1h-29.2ZM226.5,368c-10.5-6.4-15.1-10.9-14.6-16.4,1.6-15,20.1-13,30.4-7.3v-10.1c.1,0-5.5-2.4-13.6-2.6-12.4-.1-20.5,3.9-24.3,12.3-5.5,12.3-.5,21.6,17.2,31.9,10,5.8,14.3,10.8,14.3,16.2,0,11.4-13.6,15.4-27.8,8.2-2.8-1.5-5.4-2.7-5.5-2.7-.5,3.2-.3,10.9-.3,10.9,0,0,4.3,1.8,10.8,3.1,16.2,3.2,30.8-4.3,32.3-16.6,1.2-11.5-3-17.6-18.8-27h0ZM477.6,353.9c-5.7,0-10,2.3-12.8,6.8l-2.3,3.5v-9.2h-9.7v55.3h9.7v-17.6c0-16.2.1-18.1,2.4-22.4,3.1-6.1,8.5-9.1,13.6-7.6l3.5.9v-9.6h-4.5ZM149.2,367.7v-35.3h-9.7v78h41.2v-9.2h-31.4v-33.5ZM375.8,378.7l-8.1,20.9-7.7-21.1-7.8-23.4h-10c6.5,18.4,13.5,37.2,20.7,55.3,3.1.1,6.2,0,9.3,0l10.9-27.4,11.1-28h-9.6c-.1.1-4.3,11.2-8.8,23.6ZM171.9,311.2c1.6,0,2.8-.5,3.9-1.6s1.6-2.3,1.6-3.9-.5-2.8-1.6-3.9c-1.1-.9-2.3-1.5-3.9-1.5s-3,.5-3.9,1.6c-1.1,1.1-1.6,2.4-1.6,3.9s.5,3,1.6,3.9c.9.9,2.3,1.5,3.9,1.5ZM168.4,302.2c.9-.9,2-1.4,3.5-1.4s2.6.4,3.5,1.4,1.5,2,1.5,3.5-.5,2.6-1.5,3.5-2.2,1.4-3.5,1.4-2.6-.4-3.5-1.4-1.5-2.2-1.5-3.5c.1-1.4.5-2.6,1.5-3.5ZM170.7,306.2h.7c.4,0,.9.4,1.2,1.2l.8,1.8h1.2l-.9-1.9c-.4-.8-.8-1.2-1.2-1.4.5-.1.9-.3,1.4-.7.3-.3.4-.8.4-1.2s-.1-.9-.5-1.4-1.1-.5-2-.5h-2v7h.9v-3ZM170.7,303h.9c.7,0,1.1.1,1.4.3s.3.4.3.9c0,.8-.5,1.2-1.5,1.2h-1.1v-2.4ZM9,305.5c0-2.4-.1-4.3-.1-5.4.3,1.2.5,2.2.8,2.8l9.5,20.9h1.6l9.5-21.2c.3-.5.5-1.5.8-2.7h.1c-.1,2.2-.3,3.9-.3,5.4v18.5h3.2v-27.6h-4.1l-8.8,19.3c-.3.8-.8,1.9-1.4,3.4h-.1c-.1-.8-.7-1.9-1.2-3.2l-8.5-19.3h-4.3v27.6h3.1v-18.5ZM41,305.7h2.8v17.2h-2.8v-17.2ZM42.3,299.3c.5,0,1.1-.1,1.5-.5s.7-.8.7-1.5-.1-1.1-.7-1.5c-.4-.4-.9-.5-1.5-.5s-1.1.1-1.5.5-.7.9-.7,1.5.1,1.1.7,1.5c.4.4.9.5,1.5.5ZM63.5,323.1v-3c-1.5,1.1-3.1,1.8-4.9,1.8s-3.6-.7-4.9-2-1.9-3.1-1.9-5.4.7-4.3,1.9-5.7,3-2,4.9-2,3.2.5,4.7,1.5v-3.4c-1.4-.7-2.8-.9-4.6-.9-3.1,0-5.7.9-7.4,3-1.8,1.9-2.7,4.6-2.7,7.8s.8,5.3,2.6,7c1.8,1.9,4.1,2.8,6.8,2.8,2.3-.1,4.1-.5,5.5-1.5ZM71.5,314.1c0-2.3.5-4.1,1.5-5.4.9-1.1,1.9-1.8,3.2-1.8s1.9.1,2.4.7v-3.2c-.4-.1-1.1-.3-1.9-.3s-2.2.4-3,1.1c-.9.8-1.8,1.9-2.2,3.4h-.1v-4.1h-3.1v19.7h3.1v-10.1ZM89.6,324.5c3,0,5.4-.9,7.2-2.8s2.7-4.5,2.7-7.6-.8-5.7-2.4-7.6-3.9-2.7-6.9-2.7-5.4.9-7.2,2.6c-1.9,1.9-2.8,4.6-2.8,8s.8,5.4,2.6,7.3c1.6,1.9,3.9,2.8,6.9,2.8h0ZM85.2,308.5c1.2-1.2,2.8-1.9,4.7-1.9s3.5.7,4.7,1.9c1.1,1.4,1.8,3.2,1.8,5.7s-.5,4.3-1.6,5.5c-1.1,1.4-2.7,2-4.7,2s-3.6-.7-4.9-2-1.8-3.1-1.8-5.5c-.1-2.4.4-4.3,1.8-5.7ZM113.1,322.8c1.2-1.1,1.9-2.4,1.9-4.1s-.5-2.7-1.5-3.6-1.9-1.5-3.6-2.2c-1.5-.7-2.4-1.2-3-1.6-.5-.5-.8-1.1-.8-2s.3-1.5.9-1.9c.7-.5,1.5-.8,2.6-.8,1.8,0,3.1.4,4.5,1.4v-3.1c-1.2-.7-2.7-.9-4.2-.9s-3.8.5-5,1.6c-1.4,1.1-1.9,2.4-1.9,4.1s.4,2.7,1.2,3.5c.7.8,1.9,1.5,3.5,2.2s2.7,1.4,3.2,1.9.8,1.1.8,1.9c0,1.9-1.2,2.8-3.8,2.8s-3.6-.7-5.1-1.9v3.4c1.4.8,3,1.2,4.9,1.2,2.3-.1,4.2-.7,5.4-1.8h0ZM128.1,303.9c-3,0-5.4.9-7.2,2.6-1.9,1.9-2.8,4.6-2.8,8s.8,5.4,2.6,7.3,4.1,2.8,7,2.8,5.4-.9,7.2-2.8,2.7-4.5,2.7-7.6-.8-5.7-2.4-7.6c-1.8-1.9-4.1-2.7-7-2.7h0ZM134.4,314.2c0,2.4-.5,4.3-1.6,5.5-1.1,1.4-2.7,2-4.7,2s-3.6-.7-4.9-2-1.8-3.1-1.8-5.5.7-4.5,1.9-5.8c1.2-1.2,2.8-1.9,4.7-1.9s3.5.7,4.6,1.9c1.2,1.4,1.8,3.2,1.8,5.8h0ZM142.9,324.1h3.1v-17h4.6v-2.7h-4.6v-3c0-2.7,1.1-4.2,3.2-4.2s1.5.1,2,.5v-2.8c-.5-.3-1.4-.3-2.3-.3-1.8,0-3.1.5-4.2,1.6-1.4,1.2-2,2.8-2,5.1v3.2h-3.4v2.7h3.4v16.8ZM155.8,318.7c0,3.8,1.8,5.8,5.1,5.8s2.2-.1,3-.7v-2.7c-.5.4-1.2.7-2,.7s-1.8-.3-2.3-.8c-.4-.5-.7-1.5-.7-2.8v-11.1h5v-2.7h-5v-5.8c-1.1.4-2.2.7-3.1.9v4.7h-3.4v2.7h3.4v11.8ZM494.4,355c-1.1-.9-2.3-1.5-3.9-1.5s-3,.5-3.9,1.6c-1.1,1.1-1.6,2.4-1.6,3.9s.5,2.8,1.6,3.9c1.1.9,2.4,1.5,3.9,1.5s2.8-.5,3.9-1.6,1.6-2.3,1.6-3.9c.1-1.6-.5-3-1.6-3.9ZM494,362.4c-.9.9-2,1.4-3.5,1.4s-2.6-.4-3.5-1.4-1.5-2.2-1.5-3.5.4-2.6,1.4-3.5,2-1.4,3.5-1.4,2.6.4,3.5,1.4,1.5,2.2,1.5,3.5-.4,2.6-1.4,3.5ZM491.1,359.2c.5-.1.9-.4,1.4-.7.3-.3.4-.8.4-1.2s-.1-.9-.5-1.4-1.1-.5-2-.5h-2v7h.9v-3h.7c.4,0,.8.4,1.2,1.2l.8,1.8h1.2l-.9-1.9c-.4-.8-.8-1.2-1.1-1.4ZM490.4,358.5h-1.1v-2.3h.9c.7,0,1.1.1,1.4.3s.3.4.3.9c-.1.8-.5,1.1-1.5,1.1h0ZM314.4,303.5h.9v-7h2.3v-.9h-5.5v.9h2.3v7ZM319.6,298.3v-1.6c0,.4.1.7.3.8l2.7,6.1h.4l2.7-6.1c.1-.1.1-.4.3-.8v6.9h.9v-8h-1.1l-2.4,5.5c0,.1-.3.5-.4,1.1h-.1c0-.3-.1-.5-.4-.9l-2.4-5.5h-1.2v8h.9v-5.4Z"/>
    </g>
  </g>
</svg>