<?xml version="1.0" encoding="UTF-8"?>
<svg xmlns="http://www.w3.org/2000/svg" version="1.1" viewBox="0 0 500 500">
  <defs>
    <style>
      .cls-1 {
        fill: #fff;
      }
    </style>
  </defs>
  <!-- Generator: Adobe Illustrator 28.7.1, SVG Export Plug-In . SVG Version: 1.2.0 Build 142)  -->
  <g>
    <g id="_Слой_1" data-name="Слой_1">
      <path d="M0,250.1V.2h499.8v499.8H0"/>
      <path class="cls-1" d="M109.7,251v20.4h65v184.9h46.1v-184.9h65v-20c0-11.2,0-20.4-.5-20.6,0-.4-39.6-.5-87.7-.5l-87.5.4v20.5h-.4q0-.1,0-.1ZM401.7,230.1c12.7,3,22.5,8.7,31.2,17.9,4.6,5,11.5,13.7,12,16,0,.7-21.6,15.4-34.7,23.5-.5.4-2.5-1.7-4.5-5-6.5-9.2-13.1-13.2-23.5-14-15-1-25,6.9-25,20s.7,6.2,2.2,9.5c3.4,6.9,9.6,11,29,19.5,35.7,15.4,51.2,25.5,60.6,40,10.6,16.2,13,41.7,5.9,60.9-8,20.9-27.5,35-55.4,39.6-8.7,1.5-28.7,1.2-38.1-.4-20-3.7-39.1-13.7-50.9-26.6-4.6-5-13.5-18.4-13-19.2l4.7-3,18.7-10.9,14.1-8.2,3.2,4.4c4.1,6.5,13.4,15.2,18.7,18.2,16.2,8.4,38,7.2,48.7-2.5,4.6-4.2,6.6-8.7,6.6-15s-.9-8.4-3.7-12.7c-4-5.5-12-10-34.5-20-25.9-11-36.9-18-47.1-28.7-5.9-6.5-11.2-16.6-13.7-25-1.9-7.2-2.5-25-.7-32.1,5.4-25,24.2-42.5,51.2-47.5,8.7-1.7,29.4-1,38,1.2l-.2.2h0Z"/>
    </g>
  </g>
</svg>