<svg width="20" height="20" viewBox="0 0 20 20" fill="none" xmlns="http://www.w3.org/2000/svg">
<mask id="mask0_416_918" style="mask-type:alpha" maskUnits="userSpaceOnUse" x="0" y="0" width="20" height="20">
<rect width="20" height="20" fill="#D9D9D9"/>
</mask>
<g mask="url(#mask0_416_918)">
<path d="M10.0007 13.3334C11.0423 13.3334 11.9277 12.9688 12.6569 12.2396C13.3861 11.5105 13.7507 10.625 13.7507 9.58337C13.7507 8.54171 13.3861 7.65629 12.6569 6.92712C11.9277 6.19796 11.0423 5.83337 10.0007 5.83337C8.95898 5.83337 8.07357 6.19796 7.3444 6.92712C6.61523 7.65629 6.25065 8.54171 6.25065 9.58337C6.25065 10.625 6.61523 11.5105 7.3444 12.2396C8.07357 12.9688 8.95898 13.3334 10.0007 13.3334ZM10.0007 11.8334C9.37565 11.8334 8.8444 11.6146 8.4069 11.1771C7.9694 10.7396 7.75065 10.2084 7.75065 9.58337C7.75065 8.95837 7.9694 8.42712 8.4069 7.98962C8.8444 7.55212 9.37565 7.33337 10.0007 7.33337C10.6257 7.33337 11.1569 7.55212 11.5944 7.98962C12.0319 8.42712 12.2507 8.95837 12.2507 9.58337C12.2507 10.2084 12.0319 10.7396 11.5944 11.1771C11.1569 11.6146 10.6257 11.8334 10.0007 11.8334ZM10.0007 15.8334C7.97287 15.8334 6.12565 15.2674 4.45898 14.1355C2.79232 13.0035 1.58398 11.4862 0.833984 9.58337C1.58398 7.6806 2.79232 6.16324 4.45898 5.03129C6.12565 3.89935 7.97287 3.33337 10.0007 3.33337C12.0284 3.33337 13.8757 3.89935 15.5423 5.03129C17.209 6.16324 18.4173 7.6806 19.1673 9.58337C18.4173 11.4862 17.209 13.0035 15.5423 14.1355C13.8757 15.2674 12.0284 15.8334 10.0007 15.8334ZM10.0007 14.1667C11.5701 14.1667 13.0111 13.7535 14.3236 12.9271C15.6361 12.1007 16.6395 10.9862 17.334 9.58337C16.6395 8.1806 15.6361 7.06601 14.3236 6.23962C13.0111 5.41323 11.5701 5.00004 10.0007 5.00004C8.43121 5.00004 6.99023 5.41323 5.67773 6.23962C4.36523 7.06601 3.36176 8.1806 2.66732 9.58337C3.36176 10.9862 4.36523 12.1007 5.67773 12.9271C6.99023 13.7535 8.43121 14.1667 10.0007 14.1667Z" fill="white" fill-opacity="0.5"/>
</g>
</svg>
